<svg width="62" height="62" viewBox="0 0 62 62" fill="none" xmlns="http://www.w3.org/2000/svg">
<path d="M20.2392 44.051C24.8428 46.9752 30.2775 49.6592 34.7191 49.6592C35.7192 49.7018 36.7176 49.5407 37.6536 49.1854C38.5895 48.8302 39.4434 48.2883 40.1633 47.5928C44.521 43.2275 40.4302 35.3966 36.469 27.8212L47.5272 16.763C49.4973 18.0311 51.4129 19.382 53.2688 20.8119L55.7812 17.9182C54.0081 16.5361 52.1818 15.2236 50.3065 13.9837L57.6875 6.60271L54.9921 3.90918L46.9725 11.9269C40.6513 8.28593 33.4228 5.73918 29.3816 9.78805C25.4928 13.6825 28.3293 20.3334 31.7987 27.1025L19.776 39.1233C17.9444 37.8604 16.1638 36.5249 14.4385 35.1202L11.9375 38.0006C13.5849 39.3527 15.2794 40.6466 17.0177 41.8798L8.125 50.7743V3.90918H4.3125V53.4717C4.3125 54.4828 4.71417 55.4525 5.42916 56.1675C6.14414 56.8825 7.11386 57.2842 8.125 57.2842H57.6875V53.4717H10.8185L20.2392 44.051ZM32.077 12.4892C34.2406 10.3199 39.1168 11.944 44.1569 14.7443L34.6352 24.2641C32.1323 19.2716 30.1555 14.4145 32.077 12.4892ZM33.6421 30.6481C36.6539 36.4279 39.7077 42.6499 37.4679 44.8936C34.9669 47.3984 28.8478 44.844 23.0338 41.2564L33.6421 30.6481Z" fill="#FFFFFF"/>
</svg>
