<svg width="188" height="212" viewBox="0 0 188 212" fill="none" xmlns="http://www.w3.org/2000/svg">
<path fill-rule="evenodd" clip-rule="evenodd" d="M180.341 53.1297C166.271 44.4849 153.049 33.7475 140.875 22.4723C139.25 20.9685 136.634 19.2854 137.334 16.2567C139.591 14.9475 142.987 17.8052 144.972 19.1562C151.194 23.4035 155.481 27.3133 161.725 32.2085C167.2 36.5038 172.836 40.7291 178.29 45.6723C180.29 47.4842 182.445 49.5122 182.947 51.059C183.1 51.536 183.319 53.4448 183.319 53.7499C183.321 56.3563 181.97 58.4932 181.084 60.7944C176.021 73.956 170.489 85.8146 164.518 98.2877C164.092 99.1754 163.541 100.367 163.027 101.394C162.46 102.532 161.652 103.559 161.539 104.295C161.366 105.405 161.717 107.12 161.725 108.647C161.739 111.643 162.48 156.527 160.19 157.059C155.679 158.103 157.816 119.629 157.816 116.908C157.816 109.765 158.65 100.034 160.607 95.1824C166.347 80.948 174.421 67.1897 180.341 53.1297Z" fill="#00B2FF"/>
<g opacity="0.21">
<g opacity="0.21">
<path opacity="0.21" fill-rule="evenodd" clip-rule="evenodd" d="M180.341 53.1297C166.271 44.4849 153.049 33.7475 140.875 22.4723C139.25 20.9685 136.634 19.2854 137.334 16.2567C139.591 14.9475 142.987 17.8052 144.972 19.1562C151.194 23.4035 155.481 27.3133 161.725 32.2085C167.2 36.5038 172.836 40.7291 178.29 45.6723C180.29 47.4842 182.445 49.5122 182.947 51.059C183.1 51.536 183.319 53.4448 183.319 53.7499C183.321 56.3563 181.97 58.4932 181.084 60.7944C176.021 73.956 170.489 85.8146 164.518 98.2877C164.092 99.1754 163.541 100.367 163.027 101.394C162.46 102.532 161.652 103.559 161.539 104.295C161.366 105.405 161.717 107.12 161.725 108.647C161.739 111.643 162.48 156.527 160.19 157.059C155.679 158.103 157.816 119.629 157.816 116.908C157.816 109.765 158.65 100.034 160.607 95.1824C166.347 80.948 174.421 67.1897 180.341 53.1297Z" fill="black"/>
</g>
</g>
<path fill-rule="evenodd" clip-rule="evenodd" d="M186.391 53.931C186.391 57.1179 184.067 59.706 181.202 59.706C178.339 59.706 176.015 57.1179 176.015 53.931C176.015 50.7441 178.339 48.1567 181.202 48.1567C184.067 48.1572 186.391 50.7445 186.391 53.931Z" fill="#00B2FF"/>
<path fill-rule="evenodd" clip-rule="evenodd" d="M183.675 53.9338C183.675 55.4559 182.57 56.6843 181.202 56.6843C179.838 56.6843 178.732 55.4559 178.732 53.9338C178.732 52.4151 179.838 51.1833 181.202 51.1833C182.57 51.1838 183.675 52.4151 183.675 53.9338Z" fill="white"/>
<path fill-rule="evenodd" clip-rule="evenodd" d="M148.043 0.043741C152.295 -0.29329 156.12 1.36371 158.677 3.41654C161.154 5.40643 163.301 8.12131 163.633 11.5881C164.206 17.6306 161.406 22.1594 160.949 27.8413C159.933 40.4436 165.773 48.0645 172.404 54.8399C177.417 59.957 182.469 64.921 182.006 74.3781C181.868 77.1824 181.104 79.865 180.251 82.1067C176.707 91.4214 170.044 97.82 166.419 107.239C165.798 108.851 164.403 140.702 164.107 143.872C164.009 144.929 163.954 146.741 163.902 148.314C163.857 149.764 163.916 151.477 162.251 151.511C160.297 151.549 160.639 149.587 160.703 148.314C160.84 145.611 161.606 114.329 162.084 111.887C163.374 105.289 166.855 99.4252 170.03 94.2712C172.529 90.2277 175.279 86.0935 177.051 81.6632C178.906 77.0292 179.526 70.737 177.26 65.8534C175.319 61.6736 171.61 58.2673 168.381 54.8399C162.11 48.1899 156.311 39.6366 157.85 26.9528C158.17 24.3228 158.83 21.6733 159.503 19.0491C160.133 16.5852 160.925 13.5564 160.227 10.7004C159.463 7.59506 156.797 5.16463 153.825 3.7722C151.036 2.46589 147.041 2.35493 144.019 3.95024C143.154 4.40568 142.418 5.1522 141.642 5.81509C140.757 6.57527 139.469 7.25637 138.65 6.43739C137.805 5.59523 138.891 4.67688 139.578 4.03884C141.795 1.98477 144.115 0.353859 148.043 0.043741Z" fill="#003294"/>
<path fill-rule="evenodd" clip-rule="evenodd" d="M187.972 160.215C187.705 158.225 187.576 155.408 186.417 154.038C184.313 151.548 180.514 152.735 177.531 151.318C175.852 150.517 175.071 147.155 172.866 146.129C171.645 145.557 170.36 145.739 169.091 145.632C167.538 145.498 165.891 145.434 164.193 145.4C164.193 145.394 164.193 145.389 164.195 145.383C163.926 145.385 163.65 145.383 163.377 145.383C161.937 145.365 160.463 145.367 158.976 145.374C157.492 145.367 156.019 145.365 154.579 145.383C154.307 145.383 154.033 145.385 153.763 145.383C153.765 145.389 153.765 145.394 153.765 145.4C152.064 145.434 150.417 145.497 148.867 145.632C147.599 145.739 146.31 145.558 145.089 146.129C142.884 147.155 142.105 150.517 140.424 151.318C137.441 152.735 133.641 151.548 131.537 154.038C130.378 155.408 130.251 158.225 129.984 160.215C140.098 160.473 177.859 160.473 187.972 160.215Z" fill="#00B2FF"/>
<path fill-rule="evenodd" clip-rule="evenodd" d="M131.532 57.5827C118.988 50.6156 107.749 42.2887 97.4344 33.0216C94.0219 29.956 90.6859 26.787 87.7061 23.292C94.5808 17.4623 102.519 12.2097 113.907 11.1539C126.665 9.9739 134.825 17.1745 137.506 26.6615C139.01 31.9944 138.563 38.7031 137.216 43.9048C135.863 49.1296 133.953 53.4981 131.532 57.5827Z" fill="#00B2FF"/>
<path opacity="0.21" d="M137.479 26.6586C135.483 19.5942 130.443 13.7959 122.73 11.7861C126.362 14.607 128.86 18.5822 130.13 23.075C131.636 28.4058 131.189 35.1166 129.842 40.3162C128.547 45.3091 126.738 49.5179 124.47 53.4471C126.768 54.8714 129.114 56.251 131.505 57.5793C133.926 53.4947 135.836 49.1262 137.189 43.9018C138.536 38.6998 138.984 31.9914 137.479 26.6586Z" fill="black"/>
<path fill-rule="evenodd" clip-rule="evenodd" d="M131.506 57.5822C130.949 58.4471 128.792 56.8874 127.75 56.3297C120.415 52.4174 113.972 47.1073 107.619 42.1711C102.117 37.8969 96.8258 33.3809 91.6292 28.6853C90.8189 27.9537 89.9423 27.1028 89.1254 26.278C88.3582 25.5046 87.1037 24.0045 87.68 23.2919C88.0696 22.8108 89.9266 24.0455 91.1472 24.8334C94.0625 26.7153 97.3359 28.5698 100.009 30.5174C103.884 33.3366 107.463 36.3095 110.893 39.0889C116.403 43.5519 121.59 47.7288 126.882 52.2837C127.71 52.9983 128.65 53.7378 129.484 54.5013C130.237 55.1907 132.067 56.7115 131.506 57.5822Z" fill="#00B2FF"/>
<path d="M110.892 39.0887C108.623 37.2508 106.283 35.3255 103.84 33.4167C102.331 34.1691 100.892 34.9686 99.8272 35.8501C99.4446 36.1672 99.1097 36.4943 98.8372 36.833C95.37 41.178 96.076 47.5095 100.42 50.9809C104.763 54.451 111.099 53.7442 114.57 49.4005C114.853 49.0436 115.108 48.6262 115.339 48.1592C115.937 46.9485 116.369 45.4178 116.741 43.8312C114.82 42.2665 112.878 40.6981 110.892 39.0887Z" fill="#EFAD1B"/>
<path fill-rule="evenodd" clip-rule="evenodd" d="M142.776 9.22821C142.273 6.2351 137.521 3.92432 134.301 4.21953C131.256 4.49984 129.291 6.2206 127.269 8.16992C126.035 9.35698 124.688 10.6488 123.511 11.9261C123.437 12.0064 123.372 12.0764 123.308 12.1389C124.517 12.3725 125.329 13.1509 125.737 14.1201C126.849 15.0563 127.875 16.132 128.859 17.0983C130.596 18.7943 131.997 20.773 133.582 22.6043C133.848 22.9136 134.051 23.2365 134.199 23.5636C134.956 23.3976 135.759 22.1314 136.421 21.2694C137.253 20.1838 137.896 19.3329 138.443 18.5736C139.831 16.6371 141.119 15.0331 142.103 12.8908C142.488 12.0483 143.016 10.6517 142.776 9.22821ZM128.232 13.1786C127.72 13.6995 127.016 14.4567 126.112 14.1417C125.765 13.4328 126.464 12.6871 126.98 12.0234C128.069 10.614 130.399 8.00182 131.891 7.39731C132.183 7.28097 132.479 7.31865 132.758 7.59109C132.709 8.41628 132.052 9.11891 131.506 9.70933C130.407 10.9001 129.418 11.9659 128.232 13.1786ZM129.484 16.934C129.018 16.0214 130.012 15.12 130.639 14.3346C132.289 12.266 135.027 9.66172 136.901 8.16992C137.172 7.95213 137.726 8.06351 137.96 8.36162C137.843 9.45801 136.995 10.2882 136.323 11.0595C134.968 12.6201 133.433 13.8398 131.891 15.2981C131.207 15.9456 130.576 17.0503 129.484 16.934ZM136.227 17.03C135.821 17.4673 135.319 17.9504 134.88 18.3781C134.417 18.8303 133.922 19.3632 133.24 19.4377C132.652 18.581 133.751 17.5281 134.395 16.7419C135.432 15.4823 136.366 14.2787 137.672 13.3703C138.045 13.2871 138.013 13.6071 138.25 13.6585C137.91 14.9967 137.053 16.1349 136.227 17.03Z" fill="#00B2FF"/>
<path opacity="0.21" fill-rule="evenodd" clip-rule="evenodd" d="M142.776 9.22821C142.273 6.2351 137.521 3.92432 134.301 4.21953C131.256 4.49984 129.291 6.2206 127.269 8.16992C126.035 9.35698 124.688 10.6488 123.511 11.9261C123.437 12.0064 123.372 12.0764 123.308 12.1389C124.517 12.3725 125.329 13.1509 125.737 14.1201C126.849 15.0563 127.875 16.132 128.859 17.0983C130.596 18.7943 131.997 20.773 133.582 22.6043C133.848 22.9136 134.051 23.2365 134.199 23.5636C134.956 23.3976 135.759 22.1314 136.421 21.2694C137.253 20.1838 137.896 19.3329 138.443 18.5736C139.831 16.6371 141.119 15.0331 142.103 12.8908C142.488 12.0483 143.016 10.6517 142.776 9.22821ZM128.232 13.1786C127.72 13.6995 127.016 14.4567 126.112 14.1417C125.765 13.4328 126.464 12.6871 126.98 12.0234C128.069 10.614 130.399 8.00182 131.891 7.39731C132.183 7.28097 132.479 7.31865 132.758 7.59109C132.709 8.41628 132.052 9.11891 131.506 9.70933C130.407 10.9001 129.418 11.9659 128.232 13.1786ZM129.484 16.934C129.018 16.0214 130.012 15.12 130.639 14.3346C132.289 12.266 135.027 9.66172 136.901 8.16992C137.172 7.95213 137.726 8.06351 137.96 8.36162C137.843 9.45801 136.995 10.2882 136.323 11.0595C134.968 12.6201 133.433 13.8398 131.891 15.2981C131.207 15.9456 130.576 17.0503 129.484 16.934ZM136.227 17.03C135.821 17.4673 135.319 17.9504 134.88 18.3781C134.417 18.8303 133.922 19.3632 133.24 19.4377C132.652 18.581 133.751 17.5281 134.395 16.7419C135.432 15.4823 136.366 14.2787 137.672 13.3703C138.045 13.2871 138.013 13.6071 138.25 13.6585C137.91 14.9967 137.053 16.1349 136.227 17.03Z" fill="black"/>
<path fill-rule="evenodd" clip-rule="evenodd" d="M26.2177 70.7307C26.5419 70.7436 26.9025 70.3717 27.0118 71.5269C27.1141 72.5964 26.5257 74.0099 26.3299 75.0467C25.9771 76.9252 25.4629 79.484 25.4215 79.7034C24.7437 83.3773 24.2725 86.447 23.8312 89.2451C22.7099 96.3463 21.9684 102.605 21.2219 108.893C20.0253 118.943 19.6174 129.188 19.1761 140.241C19.0291 143.893 19.1682 147.95 18.0408 150.235C17.4971 151.336 16.2169 152.762 15.0866 153.075C13.8639 153.414 11.7585 153.071 10.6571 152.848C9.62161 152.639 8.10953 152.276 7.02308 152.051C4.72887 151.584 1.23393 151.026 0.320554 148.76C-0.229295 147.395 0.104837 144.873 0.434001 142.968C1.35152 137.661 3.20312 132.05 4.5235 127.521C6.46288 120.865 8.49045 114.482 10.5433 107.53C12.5849 100.617 14.4576 93.6194 16.5622 87.4287C17.5385 84.5581 18.6825 81.2271 20.0841 77.8862C21.2123 75.1953 23.1902 71.76 25.8774 70.7303C25.9535 70.7009 26.1345 70.7286 26.2177 70.7307Z" fill="#00B2FF"/>
<path fill-rule="evenodd" clip-rule="evenodd" d="M60.1774 66.7545C66.0837 66.4722 73.1382 66.5098 79.2585 66.7545C85.4083 67.0009 91.4662 66.8957 97.7729 67.321C103.468 67.7056 109.315 68.3072 115.263 68.9125C120.824 69.4773 127.074 70.1998 130.71 72.4323C133.324 74.0376 134.424 76.2076 135.254 79.5882C137.342 88.1059 137.742 102.296 138.32 111.39C138.552 115.051 138.715 118.861 138.887 122.52C139.062 126.196 139.455 129.88 139.455 133.537C139.453 140.919 140.491 149.423 137.977 154.777C137.245 156.336 136.286 157.465 134.229 158.184C130.764 159.395 125.204 158.584 120.827 158.184C107.273 156.949 92.2794 156.797 78.1224 157.729C68.568 158.36 59.7095 158.381 50.0673 159.207C45.8983 159.563 40.9294 160.065 36.2109 160.115C28.2828 160.198 20.78 159.662 18.7205 153.981C17.791 151.418 17.456 147.689 17.2436 144.1C16.6184 133.531 17.1124 121.044 17.5856 111.049C18.1988 98.0512 18.4642 85.8349 21.6739 75.3848C22.333 73.2409 23.1897 70.9736 25.0802 69.8205C26.8573 68.7391 29.6575 68.2111 32.6911 67.8882C38.4078 67.2829 44.7713 67.1694 50.7505 66.9806C53.8396 66.8837 56.964 66.9057 60.1774 66.7545Z" fill="white"/>
<path fill-rule="evenodd" clip-rule="evenodd" d="M60.1774 66.7545C66.0837 66.4722 73.1382 66.5098 79.2585 66.7545C85.4083 67.0009 91.4662 66.8957 97.7729 67.321C103.468 67.7056 109.315 68.3072 115.263 68.9125C120.824 69.4773 127.074 70.1998 130.71 72.4323C133.324 74.0376 134.424 76.2076 135.254 79.5882C137.342 88.1059 137.742 102.296 138.32 111.39C138.552 115.051 138.715 118.861 138.887 122.52C139.062 126.196 139.455 129.88 139.455 133.537C139.453 140.919 140.491 149.423 137.977 154.777C137.245 156.336 136.286 157.465 134.229 158.184C130.764 159.395 125.204 158.584 120.827 158.184C107.273 156.949 92.2794 156.797 78.1224 157.729C68.568 158.36 59.7095 158.381 50.0673 159.207C45.8983 159.563 40.9294 160.065 36.2109 160.115C28.2828 160.198 20.78 159.662 18.7205 153.981C17.791 151.418 17.456 147.689 17.2436 144.1C16.6184 133.531 17.1124 121.044 17.5856 111.049C18.1988 98.0512 18.4642 85.8349 21.6739 75.3848C22.333 73.2409 23.1897 70.9736 25.0802 69.8205C26.8573 68.7391 29.6575 68.2111 32.6911 67.8882C38.4078 67.2829 44.7713 67.1694 50.7505 66.9806C53.8396 66.8837 56.964 66.9057 60.1774 66.7545Z" fill="#00B2FF"/>
<path opacity="0.57" fill-rule="evenodd" clip-rule="evenodd" d="M60.1774 66.7545C66.0837 66.4722 73.1382 66.5098 79.2585 66.7545C85.4083 67.0009 91.4662 66.8957 97.7729 67.321C103.468 67.7056 109.315 68.3072 115.263 68.9125C120.824 69.4773 127.074 70.1998 130.71 72.4323C133.324 74.0376 134.424 76.2076 135.254 79.5882C137.342 88.1059 137.742 102.296 138.32 111.39C138.552 115.051 138.715 118.861 138.887 122.52C139.062 126.196 139.455 129.88 139.455 133.537C139.453 140.919 140.491 149.423 137.977 154.777C137.245 156.336 136.286 157.465 134.229 158.184C130.764 159.395 125.204 158.584 120.827 158.184C107.273 156.949 92.2794 156.797 78.1224 157.729C68.568 158.36 59.7095 158.381 50.0673 159.207C45.8983 159.563 40.9294 160.065 36.2109 160.115C28.2828 160.198 20.78 159.662 18.7205 153.981C17.791 151.418 17.456 147.689 17.2436 144.1C16.6184 133.531 17.1124 121.044 17.5856 111.049C18.1988 98.0512 18.4642 85.8349 21.6739 75.3848C22.333 73.2409 23.1897 70.9736 25.0802 69.8205C26.8573 68.7391 29.6575 68.2111 32.6911 67.8882C38.4078 67.2829 44.7713 67.1694 50.7505 66.9806C53.8396 66.8837 56.964 66.9057 60.1774 66.7545Z" fill="white"/>
<g opacity="0.78">
<path opacity="0.78" fill-rule="evenodd" clip-rule="evenodd" d="M113.56 81.4066C113.825 84.5856 113.925 87.9303 113.899 91.4024C110.818 91.5755 107.64 91.6538 104.473 91.7436C104.61 88.1613 104.114 84.6047 104.358 81.2936C107.416 81.34 110.679 81.1818 113.56 81.4066Z" fill="white"/>
<path opacity="0.78" fill-rule="evenodd" clip-rule="evenodd" d="M101.177 81.4038C101.191 84.9128 101.116 88.5071 101.292 91.853C97.4654 91.9652 93.5213 91.9586 89.8218 92.195C89.8963 88.7109 89.9787 85.235 89.9332 81.6315C93.7324 81.6026 97.3048 81.355 101.177 81.4038Z" fill="#889922"/>
<path opacity="0.78" fill-rule="evenodd" clip-rule="evenodd" d="M116.511 81.7478C122.988 81.7428 127.147 85.0419 127.983 91.0609C124.368 91.1205 120.835 91.2596 117.194 91.2894C117.097 87.9775 116.95 84.7169 116.511 81.7478Z" fill="white"/>
<path opacity="0.78" fill-rule="evenodd" clip-rule="evenodd" d="M86.8672 81.7478C86.7529 85.2688 86.692 88.8412 86.5273 92.3113C81.8424 92.4347 77.2829 92.6823 72.6709 92.8777C72.6966 89.3799 72.9471 85.6452 72.6709 82.202C77.3413 81.9925 82.1285 81.8931 86.8672 81.7478Z" fill="white"/>
<path opacity="0.78" fill-rule="evenodd" clip-rule="evenodd" d="M69.6039 82.3163C69.7737 85.6303 69.3485 89.3281 69.4897 92.9941C65.779 93.2586 61.9023 93.3559 58.1333 93.5617C58.1333 89.89 58.1333 86.2158 58.1333 82.544C61.8787 82.4674 66.1231 82.2815 69.6039 82.3163Z" fill="white"/>
<path opacity="0.78" fill-rule="evenodd" clip-rule="evenodd" d="M40.8686 82.6555C40.6735 86.4366 40.7564 90.4954 40.5286 94.2417C36.112 94.2197 31.7654 94.2616 27.5786 94.4673C28.0995 91.0242 28.5707 87.5081 30.4194 85.2677C32.5434 82.6932 36.2888 82.7946 40.8686 82.6555Z" fill="white"/>
<path opacity="0.78" fill-rule="evenodd" clip-rule="evenodd" d="M55.067 82.6555C55.0352 86.3732 54.759 89.8433 54.8393 93.6719C51.2094 93.867 47.5286 94.0098 43.8208 94.1262C44.0266 90.2834 43.7732 86.3181 43.9363 82.6555C48.0445 82.6932 50.8922 82.6613 55.067 82.6555Z" fill="white"/>
<path opacity="0.78" fill-rule="evenodd" clip-rule="evenodd" d="M129.913 103.328C125.618 103.347 121.209 103.255 117.079 103.44C116.996 100.366 117.262 97.6398 117.194 94.5813C120.704 94.1768 124.863 94.6248 127.869 94.3548C128.632 94.2861 128.638 94.1449 128.891 95.0347C129.533 97.2846 129.556 101.148 129.913 103.328Z" fill="white"/>
<path opacity="0.78" fill-rule="evenodd" clip-rule="evenodd" d="M113.899 94.6976C113.827 97.5781 114.046 100.749 113.786 103.442C110.772 103.608 107.589 103.606 104.473 103.67C104.547 100.792 104.322 97.6149 104.586 94.9228C107.82 94.9779 110.706 94.6827 113.899 94.6976Z" fill="white"/>
<path opacity="0.78" fill-rule="evenodd" clip-rule="evenodd" d="M101.065 95.0337C101.482 95.3943 101.292 96.3139 101.292 97.0782C101.292 99.1149 101.292 101.527 101.292 103.667C97.2249 103.613 93.4675 103.868 89.3672 103.78C89.4823 100.979 89.5908 98.1742 89.7079 95.3753C93.4306 95.1968 97.3698 95.2407 101.065 95.0337Z" fill="white"/>
<path opacity="0.78" fill-rule="evenodd" clip-rule="evenodd" d="M86.4133 95.4875C86.48 98.4318 86.1459 100.976 86.1856 103.893C81.6142 104.093 76.8924 104.141 72.4423 104.462C72.3818 101.6 72.6431 99.0591 72.5566 96.1703C77.0377 95.8043 81.844 95.7637 86.4133 95.4875Z" fill="white"/>
<path opacity="0.78" fill-rule="evenodd" clip-rule="evenodd" d="M69.3762 96.2844C69.2577 99.0072 69.3463 101.934 69.1484 104.576C65.4945 104.785 61.7987 104.948 58.1328 105.144C58.1328 102.342 58.1328 99.5409 58.1328 96.7407C61.983 96.691 65.5562 96.3647 69.3762 96.2844Z" fill="#00B2FF"/>
<path opacity="0.78" fill-rule="evenodd" clip-rule="evenodd" d="M54.8391 96.9666C54.8391 99.729 54.8391 102.492 54.8391 105.257C50.9587 105.39 47.07 105.514 43.3672 105.825C43.4297 102.935 43.5311 100.083 43.7079 97.3073C47.5718 97.3475 51.0228 96.9744 54.8391 96.9666Z" fill="white"/>
<path opacity="0.78" fill-rule="evenodd" clip-rule="evenodd" d="M27.2379 97.4181C31.6661 97.3593 36.0964 97.7294 40.4144 97.4181C40.3569 100.313 40.2277 103.138 40.0724 105.938C35.6778 106.312 30.9366 106.34 26.4434 106.619C26.9029 103.745 26.522 100.032 27.2379 97.4181Z" fill="white"/>
<path opacity="0.78" fill-rule="evenodd" clip-rule="evenodd" d="M130.141 106.508C130.611 109.48 130.629 112.91 130.821 116.161C126.201 116.422 121.42 116.526 116.853 116.843C116.788 113.371 117.053 110.228 116.967 106.735C121.226 106.526 125.662 106.494 130.141 106.508Z" fill="white"/>
<path opacity="0.78" fill-rule="evenodd" clip-rule="evenodd" d="M113.785 106.734C113.738 110.129 113.612 113.451 113.672 116.955C110.616 117.157 107.52 117.314 104.358 117.409C104.286 113.779 104.454 110.387 104.472 106.846C107.7 106.933 110.61 106.701 113.785 106.734Z" fill="#00B2FF"/>
<path opacity="0.78" fill-rule="evenodd" clip-rule="evenodd" d="M101.178 106.849C101.104 110.41 101.329 114.269 101.064 117.64C96.9014 117.677 93.0028 117.981 88.9116 118.092C88.9514 114.346 89.0905 110.699 89.2536 107.077C93.0947 106.867 97.366 107.089 101.178 106.849Z" fill="white"/>
<path opacity="0.78" fill-rule="evenodd" clip-rule="evenodd" d="M85.9581 107.187C85.9482 110.924 85.6509 114.375 85.7304 118.204C81.4521 118.504 76.857 118.491 72.5568 118.771C72.2914 115.287 72.517 111.315 72.4425 107.641C76.9336 107.477 81.3154 107.201 85.9581 107.187Z" fill="white"/>
<path opacity="0.78" fill-rule="evenodd" clip-rule="evenodd" d="M69.0378 107.756C69.2444 111.335 69.1351 115.232 69.2647 118.888C65.5292 118.975 61.9171 119.189 58.2462 119.343C57.9845 115.895 58.2073 111.96 58.134 108.325C61.8301 108.198 65.499 108.045 69.0378 107.756Z" fill="white"/>
<path opacity="0.78" fill-rule="evenodd" clip-rule="evenodd" d="M54.4976 108.438C55.1092 108.464 54.8247 109.307 54.8388 109.574C54.9842 112.655 54.8566 116.32 54.9523 119.454C50.9762 119.606 47.0478 119.804 42.9119 119.796C42.8212 116.07 43.1139 112.729 43.1396 109.12C46.6747 108.639 50.7949 108.748 54.4976 108.438Z" fill="white"/>
<path opacity="0.78" fill-rule="evenodd" clip-rule="evenodd" d="M39.9581 109.235C39.768 112.715 39.7345 116.354 39.619 119.911C35.146 120.096 30.3142 119.921 25.9882 120.251C25.9663 116.632 26.0719 113.141 26.2168 109.689C30.8967 109.636 35.4673 109.475 39.9581 109.235Z" fill="white"/>
<path opacity="0.78" fill-rule="evenodd" clip-rule="evenodd" d="M130.937 119.455C131.212 123.306 131.165 127.48 131.162 131.606C126.47 131.606 121.773 131.606 117.08 131.606C116.967 127.783 116.796 124.017 116.854 120.023C121.575 119.861 126.119 119.521 130.937 119.455Z" fill="white"/>
<path opacity="0.78" fill-rule="evenodd" clip-rule="evenodd" d="M113.56 120.251C113.78 123.929 113.587 128.02 113.899 131.608C110.832 131.608 107.765 131.608 104.7 131.608C104.559 128.002 104.414 124.399 104.358 120.707C107.359 120.49 110.446 120.357 113.56 120.251Z" fill="white"/>
<path opacity="0.78" fill-rule="evenodd" clip-rule="evenodd" d="M101.178 120.817C101.155 124.551 101.302 128.113 101.52 131.605C97.2909 131.581 93.314 131.805 89.0258 131.721C88.8974 128.438 88.7943 124.535 89.0258 121.271C93.1728 121.219 97.0872 120.928 101.178 120.817Z" fill="white"/>
<path opacity="0.78" fill-rule="evenodd" clip-rule="evenodd" d="M85.6194 121.5C85.5448 125.02 85.8131 128.194 85.7307 131.722C81.4773 131.658 77.2656 131.556 72.8983 131.606C72.8664 128.306 72.6805 125.16 72.5571 121.954C76.9414 121.832 81.2247 121.611 85.6194 121.5Z" fill="#889922"/>
<path opacity="0.78" fill-rule="evenodd" clip-rule="evenodd" d="M69.3767 122.067C69.4255 125.312 69.6123 128.421 69.7178 131.606C66.0975 131.81 62.2311 131.768 58.7002 132.063C58.6385 128.832 58.3126 125.862 58.359 122.521C62.0895 122.428 65.712 122.226 69.3767 122.067Z" fill="white"/>
<path opacity="0.78" fill-rule="evenodd" clip-rule="evenodd" d="M54.9526 122.638C55.3592 125.599 55.235 129.091 55.5203 132.175C51.3682 132.379 47.08 132.445 42.9122 132.632C42.8199 129.506 42.7632 126.346 42.8009 123.09C46.8245 122.915 51.0502 122.936 54.9526 122.638Z" fill="white"/>
<path opacity="0.78" fill-rule="evenodd" clip-rule="evenodd" d="M39.6198 123.204C39.6198 126.386 39.6198 129.565 39.6198 132.744C34.8794 132.851 30.2674 133.084 25.7634 133.427C25.5001 130.171 25.7257 126.427 25.989 123.317C30.3166 123.066 35.105 123.272 39.6198 123.204Z" fill="white"/>
<path opacity="0.78" fill-rule="evenodd" clip-rule="evenodd" d="M85.8455 134.904C85.8682 138.779 85.9866 142.56 86.1866 146.259C82.1013 146.415 77.8755 146.429 73.8072 146.601C73.485 142.833 73.2358 138.995 73.1265 135.014C73.2089 134.909 73.3322 134.842 73.4656 134.788C77.4342 134.983 81.7092 134.875 85.8455 134.904Z" fill="white"/>
<path opacity="0.78" fill-rule="evenodd" clip-rule="evenodd" d="M114.014 134.903C114.108 138.367 114.074 141.96 114.239 145.351C111.352 145.379 108.485 145.428 105.722 145.577C105.436 142.117 105.11 138.693 104.927 135.129C104.922 134.935 105.011 134.834 105.153 134.788C108.071 134.862 111.285 134.638 114.014 134.903Z" fill="white"/>
<path opacity="0.78" fill-rule="evenodd" clip-rule="evenodd" d="M69.8308 134.904C70.0358 138.865 70.3099 142.754 70.5115 146.714C66.8505 146.801 63.322 147.021 59.8358 147.282C59.4532 143.349 59.1468 139.34 58.9282 135.243C62.5407 135.11 66.0589 134.877 69.8308 134.904Z" fill="white"/>
<path opacity="0.78" fill-rule="evenodd" clip-rule="evenodd" d="M101.633 134.905C101.959 138.477 102.124 142.211 102.541 145.694C98.0402 145.735 93.8853 146.124 89.3669 146.148C89.2654 142.502 89.0298 138.382 89.1391 134.905C93.3032 134.905 97.468 134.905 101.633 134.905Z" fill="white"/>
<path opacity="0.78" fill-rule="evenodd" clip-rule="evenodd" d="M117.308 134.905C121.889 134.905 126.47 134.905 131.051 134.905C130.947 138.116 130.788 140.613 129.574 142.4C127.436 145.536 122.532 145.023 117.422 145.239C117.526 141.727 117.12 138.118 117.308 134.905Z" fill="white"/>
<path opacity="0.78" fill-rule="evenodd" clip-rule="evenodd" d="M55.4059 135.356C56.0203 135.525 55.7123 136.341 55.7479 136.721C56.0509 140.045 56.2965 143.944 56.5412 147.398C52.3233 147.797 47.9349 148.025 43.4806 148.193C43.093 144.265 43.069 139.968 42.9121 135.814C47.113 135.696 51.3723 135.637 55.4059 135.356Z" fill="white"/>
<path opacity="0.78" fill-rule="evenodd" clip-rule="evenodd" d="M39.7328 135.926C39.7349 140.201 39.9982 144.217 40.1862 148.305C36.1427 147.878 32.5185 147.597 30.079 145.694C27.5115 143.689 26.3982 140.473 25.8765 136.38C30.6069 136.342 35.1535 136.117 39.7328 135.926Z" fill="white"/>
</g>
<path fill-rule="evenodd" clip-rule="evenodd" d="M30.1677 86.9103C27.1647 86.9202 30.5731 79.9324 32.3853 82.2672C33.3306 83.4841 31.3428 86.0437 30.1677 86.9103Z" fill="#00B2FF"/>
<path fill-rule="evenodd" clip-rule="evenodd" d="M130.859 95.3339C129.874 94.1539 129.495 91.5926 129.275 89.0529C129.178 87.9643 129.056 86.203 130.019 86.0084C131.174 85.7757 131.633 87.7548 131.793 88.4608C132.306 90.7061 132.468 93.5183 132.117 95.0383C131.894 95.3244 131.261 95.4523 130.859 95.3339Z" fill="#00B2FF"/>
<path fill-rule="evenodd" clip-rule="evenodd" d="M126.972 86.4748C124.683 87.4172 123.492 82.1332 125.536 81.9046C126.423 81.8102 127.952 84.1492 127.807 85.482C127.75 85.9581 127.37 86.3088 126.972 86.4748Z" fill="#00B2FF"/>
<path fill-rule="evenodd" clip-rule="evenodd" d="M32.1882 75.9906C31.9754 74.1527 32.9803 73.0058 33.6742 71.8734C34.4825 70.5584 35.5263 68.795 35.1602 66.2702C35.0708 65.6301 34.7586 64.7751 34.2469 64.667C32.9646 64.3966 32.5472 66.2056 32.3017 67.5268C32.0512 68.8906 32.1725 70.9969 31.0451 70.9592C30.2232 70.9302 30.0075 69.4554 30.0153 68.2137C30.0311 65.0707 31.8313 61.042 35.2766 62.15C37.3042 62.8042 38.6614 66.5964 38.4784 69.9291C38.3869 71.613 37.9099 73.2352 37.1067 74.6177C36.0947 76.3645 33.743 78.2977 32.1882 75.9906Z" fill="#003294"/>
<path fill-rule="evenodd" clip-rule="evenodd" d="M50.7836 74.57C50.2487 73.1229 51.2308 71.6613 51.8113 70.3385C52.6841 68.3544 53.99 65.6059 52.6137 63.2463C51.5629 63.4111 51.2776 64.3377 50.8979 65.1907C50.553 65.9649 50.4694 67.2046 49.5254 67.3648C48.8095 66.8518 49.5659 65.7078 49.8682 64.7336C50.3762 63.0973 51.4387 60.1799 53.8712 61.3003C55.4379 62.0241 56.0064 65.3877 55.8155 68.0505C55.7021 69.635 55.1435 71.6448 54.3295 72.8546C53.549 74.0114 52.2332 75.1815 50.7836 74.57Z" fill="#003294"/>
<path fill-rule="evenodd" clip-rule="evenodd" d="M43.348 63.3613C42.4206 63.6019 42.1813 64.543 41.8621 65.4199C41.5457 66.2878 41.5263 67.4338 40.8323 67.9357C39.8809 67.7725 40.2009 65.8621 40.3732 64.9624C40.74 63.0669 42.6326 59.8295 45.1781 61.6464C46.6037 62.6632 46.9316 65.6166 46.7805 67.7079C46.6256 69.8651 45.8174 72.4305 44.721 73.7695C44.362 74.2101 43.5841 74.9255 43.1187 75.0278C42.0678 75.2626 40.9756 74.7434 40.9478 74.1144C40.8953 72.9783 42.1817 71.7059 42.6645 70.6812C43.399 69.1145 44.0552 67.3366 44.035 65.4199C44.0292 64.8494 44.0113 63.9161 43.348 63.3613Z" fill="#003294"/>
<path fill-rule="evenodd" clip-rule="evenodd" d="M60.5055 73.6818C60.2948 71.846 61.2976 70.6957 61.9936 69.5646C62.8018 68.2475 63.8435 66.4862 63.4796 63.9613C63.3902 63.3212 63.078 62.4662 62.5662 62.3582C61.2839 62.0878 60.8645 63.8967 60.6211 65.218C60.3706 66.581 60.4919 68.688 59.3624 68.6504C58.5405 68.6214 58.3268 67.1466 58.3326 65.9048C58.3504 62.7618 60.1499 58.7332 63.596 59.8412C65.6239 60.4954 66.9787 64.2876 66.7977 67.6202C66.7062 69.3041 66.2272 70.9264 65.426 72.3089C64.412 74.0557 62.0598 75.9889 60.5055 73.6818Z" fill="#003294"/>
<path fill-rule="evenodd" clip-rule="evenodd" d="M109.735 74.3845C109.524 72.5457 110.526 71.3996 111.222 70.2664C112.029 68.9514 113.071 67.188 112.708 64.6611C112.618 64.0239 112.306 63.1701 111.795 63.0608C110.512 62.7904 110.094 64.5985 109.851 65.9218C109.598 67.2815 109.722 69.3911 108.59 69.3522C107.771 69.3244 107.554 67.8492 107.563 66.6079C107.578 63.4649 109.379 59.435 112.824 60.5434C114.852 61.1976 116.209 64.9907 116.027 68.3204C115.934 70.0064 115.458 71.6294 114.654 73.0123C113.642 74.7554 111.29 76.6919 109.735 74.3845Z" fill="#003294"/>
<path fill-rule="evenodd" clip-rule="evenodd" d="M89.4461 73.8377C89.2345 71.9977 90.2381 70.8516 90.9321 69.7196C91.7403 68.4038 92.782 66.642 92.4189 64.1164C92.3282 63.4763 92.0165 62.6204 91.5043 62.514C90.222 62.2437 89.8026 64.0518 89.5591 65.3738C89.3086 66.7356 89.432 68.8418 88.3029 68.805C87.4806 68.7773 87.2649 67.302 87.2732 66.0603C87.2893 62.9161 89.0892 58.8858 92.5344 59.9958C94.5624 60.6508 95.9172 64.4431 95.737 67.7761C95.6447 69.4588 95.1665 71.0802 94.3641 72.4647C93.3505 74.2116 91.0016 76.1447 89.4461 73.8377Z" fill="#003294"/>
<path fill-rule="evenodd" clip-rule="evenodd" d="M79.3776 74.0216C78.8468 72.5745 79.8269 71.1142 80.4094 69.7909C81.2801 67.8068 82.586 65.0563 81.2114 62.6975C80.1589 62.8636 79.8765 63.7898 79.494 64.6419C79.1491 65.4174 79.0663 66.6558 78.121 66.816C77.4051 66.303 78.162 65.159 78.4638 64.186C78.9739 62.5489 80.0326 59.6344 82.4689 60.7548C84.0335 61.4757 84.6041 64.8402 84.412 67.5033C84.2977 69.0879 83.7412 71.0976 82.9251 72.3062C82.1451 73.4631 80.8288 74.634 79.3776 74.0216Z" fill="#003294"/>
<path fill-rule="evenodd" clip-rule="evenodd" d="M71.9438 62.8154C71.0163 63.0548 70.7758 63.9963 70.4578 64.8741C70.1419 65.7448 70.122 66.8871 69.428 67.389C68.4766 67.2258 68.797 65.3167 68.9709 64.4157C69.3378 62.5211 71.2283 59.2828 73.7759 61.0996C75.2015 62.1165 75.5273 65.0699 75.3762 67.1612C75.223 69.3192 74.4148 71.8846 73.3163 73.2228C72.9573 73.6629 72.181 74.3788 71.716 74.4832C70.6635 74.7167 69.5709 74.1979 69.5431 73.5665C69.4906 72.4312 70.7758 71.1601 71.2577 70.1341C71.9943 68.5706 72.6501 66.7902 72.6302 64.8736C72.6245 64.3035 72.6066 63.3711 71.9438 62.8154Z" fill="#003294"/>
<path fill-rule="evenodd" clip-rule="evenodd" d="M119.599 77.3114C119.066 75.866 120.046 74.404 120.628 73.0799C121.499 71.0979 122.805 68.3466 121.428 65.9898C120.379 66.1538 120.092 67.0792 119.712 67.9329C119.367 68.7064 119.287 69.9456 118.339 70.1067C117.624 69.5937 118.382 68.4476 118.682 67.4746C119.19 65.8375 120.253 62.923 122.687 64.0434C124.252 64.7643 124.82 68.1288 124.631 70.7907C124.517 72.3752 123.96 74.3879 123.144 75.5956C122.364 76.7516 121.046 77.9238 119.599 77.3114Z" fill="#003294"/>
<path fill-rule="evenodd" clip-rule="evenodd" d="M101.095 62.375C100.167 62.6147 99.9264 63.555 99.6084 64.4348C99.2925 65.3035 99.2734 66.4475 98.5787 66.9506C97.6284 66.7874 97.9477 64.877 98.1203 63.9773C98.4872 62.0818 100.38 58.8424 102.927 60.6604C104.352 61.6773 104.676 64.6303 104.527 66.7228C104.372 68.8808 103.567 71.4454 102.468 72.7844C102.109 73.2229 101.33 73.9392 100.866 74.0439C99.8133 74.2754 98.7215 73.7566 98.695 73.1272C98.6424 71.9932 99.9268 70.7208 100.411 69.6948C101.146 68.1293 101.802 66.351 101.782 64.4344C101.775 63.8639 101.757 62.9314 101.095 62.375Z" fill="#003294"/>
<path fill-rule="evenodd" clip-rule="evenodd" d="M173.413 171.148C173.325 173.065 171.929 175.025 171.818 177.31C171.735 179.002 171.955 180.948 172.566 182.677C173.738 186.01 177.043 187.179 178.282 189.742C165.135 195.603 150.5 200.564 135.61 205.97C131.294 207.535 123.944 210.294 119.863 208.794C115.823 207.308 112.58 198.865 115.642 194.369C117.574 191.537 123.234 189.061 128.321 187.273C137.906 183.915 149.643 180.802 158.538 177.215C163.922 175.045 168.803 172.953 173.413 171.148Z" fill="#00B2FF"/>
<path opacity="0.81" fill-rule="evenodd" clip-rule="evenodd" d="M173.413 171.148C173.325 173.065 171.929 175.025 171.818 177.31C171.735 179.002 171.955 180.948 172.566 182.677C173.738 186.01 177.043 187.179 178.282 189.742C165.135 195.603 150.5 200.564 135.61 205.97C131.294 207.535 123.944 210.294 119.863 208.794C115.823 207.308 112.58 198.865 115.642 194.369C117.574 191.537 123.234 189.061 128.321 187.273C137.906 183.915 149.643 180.802 158.538 177.215C163.922 175.045 168.803 172.953 173.413 171.148Z" fill="white"/>
<path fill-rule="evenodd" clip-rule="evenodd" d="M162.541 182.098C162.682 183.792 121.468 198.48 120.76 196.72C120.261 195.5 130.847 192.37 141.142 188.836C151.92 185.134 162.453 181.064 162.541 182.098Z" fill="#00B2FF"/>
<path fill-rule="evenodd" clip-rule="evenodd" d="M171.641 183.763C171.782 185.453 130.567 200.142 129.852 198.383C129.358 197.164 139.947 194.035 150.24 190.5C161.024 186.795 171.552 182.726 171.641 183.763Z" fill="#00B2FF"/>
<path fill-rule="evenodd" clip-rule="evenodd" d="M119.212 193.765C116.416 196.935 117.055 204.005 120.834 205.999C137.425 200.672 154.444 194.482 171.947 189.667C174.102 189.076 178.157 186.961 179.178 189.667C180.236 192.445 175.563 193.236 173.517 194.06C159.57 199.688 144.276 206.107 127.8 209.935C124.855 210.623 121.333 211.626 118.863 211.283C116.908 211.013 114.439 209.005 112.526 207.591C103.194 200.725 93.3521 192.181 84.9466 184.263C81.749 181.254 76.8893 177.257 75.3106 173.606C72.069 166.104 77.4297 162.978 83.519 159.954C87.8938 157.782 92.4221 156.347 96.3696 154.96C106.396 151.444 113.903 147.972 121.777 145.003C127.723 142.756 134.871 147.838 139.372 149.865C149.179 154.283 155.744 157.238 165.476 162.759C167.998 164.196 176.341 168.777 175.858 171.55C175.347 174.503 165.776 176.571 162.509 177.789C147.919 183.226 133.611 188.63 119.212 193.765Z" fill="#003294"/>
<path opacity="0.21" fill-rule="evenodd" clip-rule="evenodd" d="M112.837 195.521C109.779 197.344 77.6014 168.804 78.7425 167.29C79.4882 166.291 86.3278 172.884 94.2501 179.459C103.436 187.08 113.771 194.967 112.837 195.521Z" fill="black"/>
<path fill-rule="evenodd" clip-rule="evenodd" d="M85.0195 159.828C85.5611 157.251 87.4359 156.028 88.1108 153.54C88.5671 151.858 88.43 149.385 88.8068 147.454C91.1329 147.504 93.4586 150.878 95.2998 152.94C99.1438 157.235 101.759 160.659 105.981 165.315C107.536 167.034 110.208 170.289 111.849 170.556C115.528 171.157 121.605 168.022 125.399 166.712C134.452 163.588 141.138 161.018 151.225 158.225C156.894 156.653 164.646 155.157 165.928 160.917C167.142 166.371 161.594 169.322 157.168 171.6C152.54 173.983 147.576 176.112 143.517 177.865C139.149 179.753 134.816 181.913 129.247 183.88C124.662 185.503 117.947 188.368 113.275 187.627C110.631 187.211 107.193 183.594 105.232 181.664C97.7766 174.31 92.3713 167.26 85.0195 159.828Z" fill="#00B2FF"/>
<path opacity="0.81" fill-rule="evenodd" clip-rule="evenodd" d="M85.0195 159.828C85.5611 157.251 87.4359 156.028 88.1108 153.54C88.5671 151.858 88.43 149.385 88.8068 147.454C91.1329 147.504 93.4586 150.878 95.2998 152.94C99.1438 157.235 101.759 160.659 105.981 165.315C107.536 167.034 110.208 170.289 111.849 170.556C115.528 171.157 121.605 168.022 125.399 166.712C134.452 163.588 141.138 161.018 151.225 158.225C156.894 156.653 164.646 155.157 165.928 160.917C167.142 166.371 161.594 169.322 157.168 171.6C152.54 173.983 147.576 176.112 143.517 177.865C139.149 179.753 134.816 181.913 129.247 183.88C124.662 185.503 117.947 188.368 113.275 187.627C110.631 187.211 107.193 183.594 105.232 181.664C97.7766 174.31 92.3713 167.26 85.0195 159.828Z" fill="white"/>
<path fill-rule="evenodd" clip-rule="evenodd" d="M83.914 157.569C85.2787 156.359 100.069 172.459 106.53 179.142C108.896 181.59 111.233 185.673 113.743 186.079C117.037 186.612 125.021 182.992 127.871 181.886C137.15 178.295 144.313 175.344 153.201 171.026C156.296 169.521 163.239 166.876 164.106 164.389C164.616 162.906 164.638 160.371 163.707 159.598C161.901 158.093 154.706 160.715 150.629 161.894C139.971 164.973 130.304 168.891 119.56 172.631C117.344 173.401 114.742 174.506 113.073 174.375C110.423 174.172 108.01 170.504 105.933 168.338C99.4245 161.556 87.546 149.601 88.1605 146.901C88.8254 143.969 121.05 133.425 134.278 132.199C135.817 132.054 138.878 131.664 141.246 132.521C148.311 135.086 156.445 144.666 161.509 151.333C163.429 153.865 166.052 156.886 166.701 159.349C168.525 166.289 165.154 167.99 160.686 170.4C149.807 176.271 139.75 180.146 127.52 184.928C125.673 185.651 123.049 186.793 120.511 187.629C117.925 188.477 114.738 189.547 112.497 189.202C110.053 188.824 106.901 184.359 104.986 182.286C99.9623 176.854 82.7899 158.572 83.914 157.569Z" fill="#EFAD1B"/>
<path opacity="0.12" fill-rule="evenodd" clip-rule="evenodd" d="M155.75 155.032C155.258 156.106 152.693 153.546 151.332 152.103C148.734 149.328 143.174 144.548 140.35 141.102C138.678 139.068 135.472 135.315 136.472 134.487C137.258 133.841 139.83 136.808 141.178 138.274C144.018 141.365 149.574 146.562 152.58 149.756C153.769 151.023 156.378 153.666 155.75 155.032Z" fill="white"/>
<path d="M108.48 176.431C110.107 177.88 111.675 179.375 113.303 180.699C113.919 181.183 114.615 181.682 115.122 181.89C115.245 181.943 115.338 181.937 115.263 181.924C115.152 181.943 115.35 181.905 115.386 181.894L115.631 181.826C115.993 181.714 116.382 181.583 116.765 181.448C118.315 180.914 119.889 180.349 121.451 179.753C124.599 178.631 127.747 177.486 130.948 176.463C132.996 175.802 135.054 175.161 137.139 174.596C138.31 174.275 138.711 174.826 137.71 175.356C135.721 176.405 133.695 177.37 131.654 178.288C128.589 179.686 125.469 180.931 122.304 182.109C120.708 182.658 119.122 183.225 117.472 183.702C117.055 183.818 116.644 183.934 116.19 184.032L115.821 184.1C115.646 184.129 115.64 184.148 115.317 184.158C114.827 184.15 114.507 184.019 114.253 183.897C113.233 183.389 112.648 182.767 112.001 182.151C110.401 180.518 109.028 178.767 107.732 176.965C107.058 176.029 107.589 175.631 108.48 176.431Z" fill="#00B2FF"/>
<path fill-rule="evenodd" clip-rule="evenodd" d="M160.806 161.3C160.947 162.994 119.73 177.681 119.023 175.923C118.526 174.704 129.112 171.572 139.407 168.038C150.185 164.336 160.715 160.266 160.806 161.3Z" fill="#00B2FF"/>
<path fill-rule="evenodd" clip-rule="evenodd" d="M89.5749 154.896C88.9795 154.583 88.9903 153.441 89.0222 152.714C89.1472 149.83 91.4029 148.745 94.0052 147.101C97.4823 144.903 100.98 142.942 104.403 141.04C106.624 139.804 109.577 137.885 112.788 137.619C116.709 137.296 120.436 137.819 124.111 138.294C133.025 139.446 141.112 140.972 149.749 142.858C151.489 143.238 154.013 143.444 154.219 144.47C154.611 146.432 151.699 146.182 149.748 145.83C148.367 145.583 146.095 145.095 144.585 144.773C135.569 142.84 127.57 141.524 118.085 140.277C115.51 139.941 112.928 139.55 110.551 140.53C108.729 141.28 107.025 142.918 105.282 144.185C101.817 146.704 98.5029 149.26 95.1413 151.835C93.5236 153.071 91.9573 154.826 89.5749 154.896Z" fill="#003294"/>
<path fill-rule="evenodd" clip-rule="evenodd" d="M147.876 167.274C149.114 167.724 150.132 164.721 150.203 164.032C150.386 162.232 146.024 155.736 144.121 152.543C142.886 150.468 141.374 147.483 138.864 145.735C135.798 143.599 132.488 142.248 129.243 140.886C121.373 137.579 114.005 134.975 106.008 132.403C104.398 131.887 102.227 130.851 101.57 131.596C100.311 133.02 102.824 134.204 104.592 134.844C105.845 135.301 107.944 135.987 109.339 136.441C117.664 139.155 124.863 141.887 133.246 145.391C135.521 146.341 137.828 147.253 139.312 149.19C140.45 150.677 141.069 152.835 141.897 154.706C143.541 158.43 145.75 166.499 147.876 167.274Z" fill="#003294"/>
<path fill-rule="evenodd" clip-rule="evenodd" d="M113.046 123.998C119.414 123.414 125.036 126.704 126.252 132.516C127.124 136.688 125.124 140.196 123.167 142.389C120.024 145.91 114.307 148.902 108.851 149.297C101.66 149.823 95.7064 146.235 96.0165 138.809C96.1635 135.25 98.4577 132.278 100.46 130.17C102.97 127.526 105.629 125.69 109.469 124.617C110.546 124.313 111.601 124.133 113.046 123.998ZM105.396 129.8C103.352 131.128 100.87 133.461 99.966 135.725C97.3936 142.164 103.122 145.81 109.099 145.35C114.976 144.898 120.618 141.132 122.549 137.08C122.979 136.179 123.453 134.894 123.415 133.38C123.284 128.596 118.39 126.496 113.788 126.96C110.209 127.323 107.775 128.253 105.396 129.8Z" fill="#003294"/>
<path fill-rule="evenodd" clip-rule="evenodd" d="M145.182 129.497C151.551 128.909 157.174 132.2 158.387 138.01C159.262 142.184 157.26 145.692 155.303 147.883C152.16 151.406 146.443 154.398 140.987 154.795C133.796 155.318 127.844 151.734 128.154 144.304C128.301 140.747 130.594 137.775 132.596 135.665C135.106 133.021 137.767 131.186 141.605 130.113C142.682 129.812 143.736 129.629 145.182 129.497ZM137.532 135.296C135.489 136.624 133.006 138.955 132.102 141.221C129.531 147.66 135.258 151.307 141.235 150.845C147.111 150.392 152.753 146.628 154.686 142.577C155.117 141.675 155.589 140.39 155.551 138.875C155.424 134.094 150.528 131.992 145.924 132.458C142.344 132.82 139.911 133.75 137.532 135.296Z" fill="#003294"/>
<path opacity="0.6" fill-rule="evenodd" clip-rule="evenodd" d="M105.397 129.799C103.353 131.127 100.871 133.459 99.9663 135.724C97.3939 142.163 103.122 145.809 109.099 145.348C114.977 144.896 120.618 141.131 122.549 137.079C122.979 136.177 123.453 134.892 123.415 133.378C123.284 128.594 118.39 126.495 113.788 126.958C110.209 127.322 107.775 128.251 105.397 129.799Z" fill="white"/>
<path opacity="0.6" fill-rule="evenodd" clip-rule="evenodd" d="M137.532 135.297C135.49 136.625 133.006 138.956 132.102 141.222C129.531 147.661 135.258 151.308 141.235 150.846C147.111 150.393 152.753 146.629 154.686 142.578C155.117 141.676 155.589 140.391 155.551 138.876C155.424 134.095 150.528 131.993 145.924 132.459C142.344 132.821 139.911 133.751 137.532 135.297Z" fill="white"/>
<path fill-rule="evenodd" clip-rule="evenodd" d="M43.1673 109.326C42.2278 105.68 42.7181 100.249 40.1514 96.167C39.5651 95.2317 38.5412 94.1403 37.699 94.5278C36.3563 95.1452 37.1057 99.2831 37.215 100.442C37.4407 102.766 37.7408 104.639 38.1276 106.767C37.0999 104.779 36.3244 102.212 34.9369 99.6106C33.954 97.7718 31.8776 94.0413 30.3067 94.6446C28.1259 95.4805 30.5949 101.597 31.2727 103.506C32.2519 106.258 33.8343 110.188 35.8093 113.409C37.7736 116.617 41.5128 120.611 44.5726 117.057C45.2702 116.241 45.9571 114.946 46.5049 113.833C47.5843 111.633 48.1768 109.455 48.614 107.043C48.8277 105.856 49.12 104.546 49.0455 103.468C48.973 102.37 48.6786 101.18 47.4986 100.829C45.642 101.485 45.0176 103.256 44.4508 104.654C43.8385 106.155 43.4795 107.783 43.1131 109.226C43.1313 109.261 43.1495 109.295 43.1673 109.326Z" fill="white"/>
<path fill-rule="evenodd" clip-rule="evenodd" d="M66.2446 158.386C66.2268 161.458 66.1531 164.752 65.9196 167.717C65.8472 168.72 65.8898 169.801 65.6016 170.614C65.0915 172.055 63.1157 173.378 62.4913 175.12C61.7738 177.119 61.9676 179.976 61.8463 182.629C61.7208 185.316 61.6744 187.964 61.525 190.46C61.2008 195.792 61.9187 201.514 60.342 205.48C60.3362 205.492 60.2634 205.644 60.2377 205.693C58.1046 209.587 50.894 210.974 45.6477 211.593C37.2455 212.582 26.687 212.121 23.9804 206.229C23.5142 205.214 23.3332 203.811 23.1217 202.473C22.063 195.814 21.8083 188.664 20.9744 181.772C20.8113 180.401 20.6217 179.026 20.4407 177.693C20.2569 176.347 20.078 175.002 19.6905 173.941C19.0475 172.198 17.3217 171.447 16.6837 169.864C15.5107 166.941 16.0804 161.934 16.0424 158.064C17.2522 156.867 18.7531 155.958 20.3335 155.06C24.912 152.463 30.7856 151.096 37.8181 150.769C43.3717 150.513 49.649 151.286 54.4461 152.272C59.5964 153.332 64.2663 155.017 66.2446 158.386Z" fill="#003294"/>
<path fill-rule="evenodd" clip-rule="evenodd" d="M63.1761 160.723C63.3074 161.631 62.336 162.033 61.7208 162.391C52.5936 167.703 34.955 167.619 22.2567 164.451C21.4882 164.26 20.533 164.042 20.0411 163.41C19.9256 162.899 20.4187 162.908 20.7082 162.681C21.3553 162.174 22.0948 161.419 22.9179 160.93C25.2904 159.533 28.4205 158.403 31.6174 157.693C40.9006 155.626 54.8315 155.874 62.3224 160.478C62.5373 161.045 63.0917 160.246 63.1761 160.723Z" fill="#EFAD1B"/>
<path fill-rule="evenodd" clip-rule="evenodd" d="M40.1769 150.549C45.7006 150.284 51.2513 150.742 55.8393 151.834C58.1534 152.388 59.8481 152.752 62.2735 153.873C64.1798 154.75 66.4313 156.326 66.6719 157.948C67.0247 160.323 65.1561 162.337 63.5637 163.421C61.7187 164.676 59.5139 165.33 57.4474 165.887C52.8093 167.13 47.1792 167.39 41.8923 167.39C36.9449 167.39 31.0187 167.267 26.1243 166.102C24.1451 165.629 21.9623 164.796 19.9057 163.741C18.043 162.787 15.9417 161.217 15.721 159.45C15.1484 154.958 22.0571 153.354 25.3748 152.478C30.0461 151.244 34.4387 150.821 40.1769 150.549ZM22.5858 162.026C27.9477 163.873 34.6979 164.256 41.5735 164.493C48.9492 164.748 54.9081 163.609 59.9147 161.489C61.0161 161.023 64.1719 159.911 64.0974 158.485C64.0349 157.277 61.048 156.031 59.7011 155.482C54.3413 153.298 47.3406 152.664 39.8556 153.013C33.794 153.304 26.7375 154.448 22.1561 156.34C20.5529 157 18.8421 157.871 18.1858 159.342C19.0901 160.811 20.8862 161.44 22.5858 162.026Z" fill="#00B2FF"/>
<path opacity="0.21" fill-rule="evenodd" clip-rule="evenodd" d="M22.8008 174.907C30.4386 176.118 36.1963 176.507 43.182 176.191C50.8907 175.842 62.274 173.296 62.274 173.296C62.274 173.296 55.6617 177.855 43.2893 178.337C35.5471 178.64 28.026 177.727 22.8008 174.907Z" fill="black"/>
<path fill-rule="evenodd" clip-rule="evenodd" d="M32.8632 156.384C33.1812 157.89 33.5095 159.392 33.8573 160.89H48.6204C49.2349 160.052 49.6543 158.151 50.0816 156.772C51.4641 152.317 52.7683 147.935 53.3289 143.331C53.7364 139.952 53.625 136.808 53.4233 133.768C53.2014 130.466 52.6797 126.563 51.3436 123.573C50.0592 120.682 47.8805 118.022 45.961 117.208C43.5447 116.183 38.6582 117.045 35.511 118.454C32.1254 119.97 29.9922 122.144 29.071 124.485C27.9866 127.237 28.1257 131.111 28.4727 134.579C29.1861 141.736 31.3453 149.189 32.8632 156.384Z" fill="#889922"/>
<path opacity="0.21" d="M34.3089 159.08C34.3814 159.687 34.4737 160.289 34.5644 160.892H36.6934C36.1527 156.346 35.4579 151.73 34.9718 147.156C34.5383 143.075 34.1131 138.96 33.9231 134.736C33.74 130.753 33.2482 126.334 34.3226 122.824C34.8774 121.015 35.9411 119.515 36.8623 117.924C36.3883 118.09 35.9328 118.269 35.5113 118.455C35.3362 118.534 35.1793 118.621 35.0103 118.702C34.4298 119.616 33.8713 120.563 33.4734 121.481C32.0044 124.857 32.1476 129.704 32.252 133.576C32.4776 141.923 33.2771 150.46 34.3089 159.08Z" fill="black"/>
<path opacity="0.21" d="M39.7211 160.892H41.7359C41.8352 154.911 41.569 148.782 41.4436 142.648C41.357 138.264 40.6395 133.595 40.4685 128.904C40.3919 126.761 40.5749 124.45 40.6801 122.234C40.7687 120.427 40.9463 118.613 40.9214 116.936C40.5728 116.984 40.2209 117.045 39.8677 117.114C38.1946 125.177 39.305 133.742 39.5348 142.261C39.6984 148.431 39.5017 154.628 39.7211 160.892Z" fill="black"/>
<path opacity="0.21" d="M45.0732 127.97C46.96 139.385 45.929 150.226 44.9241 160.89H46.7741C47.0763 158.941 47.3086 156.897 47.4759 155.088C47.8717 150.852 47.9052 146.389 48.0108 142.202C48.1209 137.868 47.9172 133.41 47.0953 128.812C46.3815 124.809 44.968 120.902 43.7445 116.773C43.342 116.755 42.9185 116.757 42.4829 116.778C42.5496 117.09 42.6262 117.395 42.685 117.686C43.3694 120.986 44.5125 124.59 45.0732 127.97Z" fill="black"/>
<path fill-rule="evenodd" clip-rule="evenodd" d="M30.2163 125.637C30.6515 127.163 32.1478 127.577 33.103 128.328C33.2661 128.906 32.3408 129.169 32.7242 129.815C33.1308 130.141 33.8085 129.589 34.411 129.296C35.3869 129.344 36.3226 130.905 37.3962 129.746C37.3304 128.898 36.4431 128.515 35.9272 128.222C36.2762 127.372 37.4919 126.773 36.7425 125.6C35.7922 125.508 35.321 126.669 34.5683 127.155C33.0024 127.012 31.9636 125.185 30.2163 125.637Z" fill="white"/>
<path fill-rule="evenodd" clip-rule="evenodd" d="M47.0062 127.41C46.393 126.934 45.9326 125.964 45.0768 126.26C45.1273 126.359 44.9944 126.405 44.9277 126.469C45.0221 127.325 45.8303 128.062 46.3123 128.555C46.2109 129.199 44.871 129.485 45.1145 130.226C45.5219 130.095 45.9264 129.969 46.3868 129.671C46.6444 130.361 46.193 131.208 46.0804 132.02C45.9653 132.871 45.8945 133.773 46.0357 134.617C46.5963 134.188 46.9106 133.258 47.1184 132.493C47.3399 131.673 47.4306 130.776 47.6306 130.033C48.5191 130.68 49.6743 131.625 50.509 132.47C50.7653 132.731 50.8113 133.326 51.2932 133.204C52.0406 132.741 51.2663 131.847 50.9988 131.433C50.319 130.392 48.9423 129.35 48.3163 128.633C48.9245 127.971 50.3877 127.553 49.6582 126.5C49.2855 126.453 48.6682 126.897 48.4363 127.156C48.3838 126.074 49.2247 125.253 48.8827 124.088C47.3284 124.593 47.648 126.359 47.0062 127.41Z" fill="white"/>
<path fill-rule="evenodd" clip-rule="evenodd" d="M38.7152 135.848C38.1021 136.71 38.8722 137.97 39.4568 139.177C38.8237 139.133 38.4159 138.358 37.6963 138.582C37.8959 139.619 38.9426 140.173 39.5918 140.647C39.3562 141.25 38.2292 141.596 38.3981 142.318C38.9864 142.239 39.7201 141.696 40.3801 141.382C41.4844 142.909 42.3783 145.11 43.526 146.505C44.1313 145.532 43.0159 144.056 42.5708 142.775C43.5451 142.897 44.1612 144.184 45.361 143.589C45.0927 141.83 42.895 141.789 41.857 140.715C42.4019 140.063 43.8063 139.658 43.8709 138.863C43.7786 138.697 43.692 138.53 43.6005 138.367C42.7518 138.242 42.0222 139.202 41.1117 139.573C40.4447 138.371 40.0273 135.982 38.7152 135.848Z" fill="white"/>
<path fill-rule="evenodd" clip-rule="evenodd" d="M39.997 154.056C39.8182 154.819 38.5707 155.27 39.0667 156.226C39.6969 156.259 40.0517 155.588 40.6926 155.351C41.3646 156.559 42.2892 158.449 43.0088 159.695H43.323C43.5955 158.468 42.6382 156.888 42.338 155.496C43.1243 155.6 43.658 156.512 44.6621 155.922C44.9154 154.701 43.3073 154.448 42.5616 153.964C43.0369 153.138 44.9949 152.488 44.5635 151.601C44.0248 150.489 42.3579 152.238 41.4594 152.884C40.6612 152.207 40.6185 149.642 39.2836 149.81C38.7338 150.465 39.2282 151.422 39.5987 152.342C38.9657 152.566 38.6216 151.854 37.9517 152.199C38.1748 153.243 39.2853 153.685 39.997 154.056Z" fill="white"/>
<path fill-rule="evenodd" clip-rule="evenodd" d="M30.2163 125.637C30.6515 127.163 32.1478 127.577 33.103 128.328C33.2661 128.906 32.3408 129.169 32.7242 129.815C33.1308 130.141 33.8085 129.589 34.411 129.296C35.3869 129.344 36.3226 130.905 37.3962 129.746C37.3304 128.898 36.4431 128.515 35.9272 128.222C36.2762 127.372 37.4919 126.773 36.7425 125.6C35.7922 125.508 35.321 126.669 34.5683 127.155C33.0024 127.012 31.9636 125.185 30.2163 125.637Z" fill="#889922"/>
<path fill-rule="evenodd" clip-rule="evenodd" d="M47.0062 127.41C46.393 126.934 45.9326 125.964 45.0768 126.26C45.1273 126.359 44.9944 126.405 44.9277 126.469C45.0221 127.325 45.8303 128.062 46.3123 128.555C46.2109 129.199 44.871 129.485 45.1145 130.226C45.5219 130.095 45.9264 129.969 46.3868 129.671C46.6444 130.361 46.193 131.208 46.0804 132.02C45.9653 132.871 45.8945 133.773 46.0357 134.617C46.5963 134.188 46.9106 133.258 47.1184 132.493C47.3399 131.673 47.4306 130.776 47.6306 130.033C48.5191 130.68 49.6743 131.625 50.509 132.47C50.7653 132.731 50.8113 133.326 51.2932 133.204C52.0406 132.741 51.2663 131.847 50.9988 131.433C50.319 130.392 48.9423 129.35 48.3163 128.633C48.9245 127.971 50.3877 127.553 49.6582 126.5C49.2855 126.453 48.6682 126.897 48.4363 127.156C48.3838 126.074 49.2247 125.253 48.8827 124.088C47.3284 124.593 47.648 126.359 47.0062 127.41Z" fill="#889922"/>
<path fill-rule="evenodd" clip-rule="evenodd" d="M38.7152 135.848C38.1021 136.71 38.8722 137.97 39.4568 139.177C38.8237 139.133 38.4159 138.358 37.6963 138.582C37.8959 139.619 38.9426 140.173 39.5918 140.647C39.3562 141.25 38.2292 141.596 38.3981 142.318C38.9864 142.239 39.7201 141.696 40.3801 141.382C41.4844 142.909 42.3783 145.11 43.526 146.505C44.1313 145.532 43.0159 144.056 42.5708 142.775C43.5451 142.897 44.1612 144.184 45.361 143.589C45.0927 141.83 42.895 141.789 41.857 140.715C42.4019 140.063 43.8063 139.658 43.8709 138.863C43.7786 138.697 43.692 138.53 43.6005 138.367C42.7518 138.242 42.0222 139.202 41.1117 139.573C40.4447 138.371 40.0273 135.982 38.7152 135.848Z" fill="#889922"/>
<path fill-rule="evenodd" clip-rule="evenodd" d="M39.997 154.056C39.8182 154.819 38.5707 155.27 39.0667 156.226C39.6969 156.259 40.0517 155.588 40.6926 155.351C41.3646 156.559 42.2892 158.449 43.0088 159.695H43.323C43.5955 158.468 42.6382 156.888 42.338 155.496C43.1243 155.6 43.658 156.512 44.6621 155.922C44.9154 154.701 43.3073 154.448 42.5616 153.964C43.0369 153.138 44.9949 152.488 44.5635 151.601C44.0248 150.489 42.3579 152.238 41.4594 152.884C40.6612 152.207 40.6185 149.642 39.2836 149.81C38.7338 150.465 39.2282 151.422 39.5987 152.342C38.9657 152.566 38.6216 151.854 37.9517 152.199C38.1748 153.243 39.2853 153.685 39.997 154.056Z" fill="#889922"/>
<g opacity="0.21">
<path opacity="0.21" fill-rule="evenodd" clip-rule="evenodd" d="M30.2163 125.637C30.6515 127.163 32.1478 127.577 33.103 128.328C33.2661 128.906 32.3408 129.169 32.7242 129.815C33.1308 130.141 33.8085 129.589 34.411 129.296C35.3869 129.344 36.3226 130.905 37.3962 129.746C37.3304 128.898 36.4431 128.515 35.9272 128.222C36.2762 127.372 37.4919 126.773 36.7425 125.6C35.7922 125.508 35.321 126.669 34.5683 127.155C33.0024 127.012 31.9636 125.185 30.2163 125.637Z" fill="black"/>
<path opacity="0.21" fill-rule="evenodd" clip-rule="evenodd" d="M47.0062 127.41C46.393 126.934 45.9326 125.964 45.0768 126.26C45.1273 126.359 44.9944 126.405 44.9277 126.469C45.0221 127.325 45.8303 128.062 46.3123 128.555C46.2109 129.199 44.871 129.485 45.1145 130.226C45.5219 130.095 45.9264 129.969 46.3868 129.671C46.6444 130.361 46.193 131.208 46.0804 132.02C45.9653 132.871 45.8945 133.773 46.0357 134.617C46.5963 134.188 46.9106 133.258 47.1184 132.493C47.3399 131.673 47.4306 130.776 47.6306 130.033C48.5191 130.68 49.6743 131.625 50.509 132.47C50.7653 132.731 50.8113 133.326 51.2932 133.204C52.0406 132.741 51.2663 131.847 50.9988 131.433C50.319 130.392 48.9423 129.35 48.3163 128.633C48.9245 127.971 50.3877 127.553 49.6582 126.5C49.2855 126.453 48.6682 126.897 48.4363 127.156C48.3838 126.074 49.2247 125.253 48.8827 124.088C47.3284 124.593 47.648 126.359 47.0062 127.41Z" fill="black"/>
<path opacity="0.21" fill-rule="evenodd" clip-rule="evenodd" d="M38.7152 135.848C38.1021 136.71 38.8722 137.97 39.4568 139.177C38.8237 139.133 38.4159 138.358 37.6963 138.582C37.8959 139.619 38.9426 140.173 39.5918 140.647C39.3562 141.25 38.2292 141.596 38.3981 142.318C38.9864 142.239 39.7201 141.696 40.3801 141.382C41.4844 142.909 42.3783 145.11 43.526 146.505C44.1313 145.532 43.0159 144.056 42.5708 142.775C43.5451 142.897 44.1612 144.184 45.361 143.589C45.0927 141.83 42.895 141.789 41.857 140.715C42.4019 140.063 43.8063 139.658 43.8709 138.863C43.7786 138.697 43.692 138.53 43.6005 138.367C42.7518 138.242 42.0222 139.202 41.1117 139.573C40.4447 138.371 40.0273 135.982 38.7152 135.848Z" fill="black"/>
<path opacity="0.21" fill-rule="evenodd" clip-rule="evenodd" d="M39.997 154.056C39.8182 154.819 38.5707 155.27 39.0667 156.226C39.6969 156.259 40.0517 155.588 40.6926 155.351C41.3646 156.559 42.2892 158.449 43.0088 159.695H43.323C43.5955 158.468 42.6382 156.888 42.338 155.496C43.1243 155.6 43.658 156.512 44.6621 155.922C44.9154 154.701 43.3073 154.448 42.5616 153.964C43.0369 153.138 44.9949 152.488 44.5635 151.601C44.0248 150.489 42.3579 152.238 41.4594 152.884C40.6612 152.207 40.6185 149.642 39.2836 149.81C38.7338 150.465 39.2282 151.422 39.5987 152.342C38.9657 152.566 38.6216 151.854 37.9517 152.199C38.1748 153.243 39.2853 153.685 39.997 154.056Z" fill="black"/>
</g>
<g opacity="0.21">
<path opacity="0.21" fill-rule="evenodd" clip-rule="evenodd" d="M30.2163 125.637C30.6515 127.163 32.1478 127.577 33.103 128.328C33.2661 128.906 32.3408 129.169 32.7242 129.815C33.1308 130.141 33.8085 129.589 34.411 129.296C35.3869 129.344 36.3226 130.905 37.3962 129.746C37.3304 128.898 36.4431 128.515 35.9272 128.222C36.2762 127.372 37.4919 126.773 36.7425 125.6C35.7922 125.508 35.321 126.669 34.5683 127.155C33.0024 127.012 31.9636 125.185 30.2163 125.637Z" fill="black"/>
<path opacity="0.21" fill-rule="evenodd" clip-rule="evenodd" d="M47.0062 127.41C46.393 126.934 45.9326 125.964 45.0768 126.26C45.1273 126.359 44.9944 126.405 44.9277 126.469C45.0221 127.325 45.8303 128.062 46.3123 128.555C46.2109 129.199 44.871 129.485 45.1145 130.226C45.5219 130.095 45.9264 129.969 46.3868 129.671C46.6444 130.361 46.193 131.208 46.0804 132.02C45.9653 132.871 45.8945 133.773 46.0357 134.617C46.5963 134.188 46.9106 133.258 47.1184 132.493C47.3399 131.673 47.4306 130.776 47.6306 130.033C48.5191 130.68 49.6743 131.625 50.509 132.47C50.7653 132.731 50.8113 133.326 51.2932 133.204C52.0406 132.741 51.2663 131.847 50.9988 131.433C50.319 130.392 48.9423 129.35 48.3163 128.633C48.9245 127.971 50.3877 127.553 49.6582 126.5C49.2855 126.453 48.6682 126.897 48.4363 127.156C48.3838 126.074 49.2247 125.253 48.8827 124.088C47.3284 124.593 47.648 126.359 47.0062 127.41Z" fill="black"/>
<path opacity="0.21" fill-rule="evenodd" clip-rule="evenodd" d="M38.7152 135.848C38.1021 136.71 38.8722 137.97 39.4568 139.177C38.8237 139.133 38.4159 138.358 37.6963 138.582C37.8959 139.619 38.9426 140.173 39.5918 140.647C39.3562 141.25 38.2292 141.596 38.3981 142.318C38.9864 142.239 39.7201 141.696 40.3801 141.382C41.4844 142.909 42.3783 145.11 43.526 146.505C44.1313 145.532 43.0159 144.056 42.5708 142.775C43.5451 142.897 44.1612 144.184 45.361 143.589C45.0927 141.83 42.895 141.789 41.857 140.715C42.4019 140.063 43.8063 139.658 43.8709 138.863C43.7786 138.697 43.692 138.53 43.6005 138.367C42.7518 138.242 42.0222 139.202 41.1117 139.573C40.4447 138.371 40.0273 135.982 38.7152 135.848Z" fill="black"/>
<path opacity="0.21" fill-rule="evenodd" clip-rule="evenodd" d="M39.997 154.056C39.8182 154.819 38.5707 155.27 39.0667 156.226C39.6969 156.259 40.0517 155.588 40.6926 155.351C41.3646 156.559 42.2892 158.449 43.0088 159.695H43.323C43.5955 158.468 42.6382 156.888 42.338 155.496C43.1243 155.6 43.658 156.512 44.6621 155.922C44.9154 154.701 43.3073 154.448 42.5616 153.964C43.0369 153.138 44.9949 152.488 44.5635 151.601C44.0248 150.489 42.3579 152.238 41.4594 152.884C40.6612 152.207 40.6185 149.642 39.2836 149.81C38.7338 150.465 39.2282 151.422 39.5987 152.342C38.9657 152.566 38.6216 151.854 37.9517 152.199C38.1748 153.243 39.2853 153.685 39.997 154.056Z" fill="black"/>
</g>
</svg>
