<svg width="236" height="214" viewBox="0 0 236 214" fill="none" xmlns="http://www.w3.org/2000/svg">
<path fill-rule="evenodd" clip-rule="evenodd" d="M26.8332 36.6881C39.1698 29.8782 50.7619 21.4173 61.4349 12.5332C62.8596 11.349 65.1542 10.0224 64.5384 7.63663C62.561 6.60505 59.5833 8.85581 57.8437 9.92104C52.3871 13.267 48.6291 16.347 43.155 20.2055C38.3539 23.5888 33.4131 26.9176 28.6295 30.8144C26.877 32.2401 24.9881 33.8395 24.5484 35.0578C24.4128 35.4335 24.2206 36.9375 24.2206 37.179C24.2197 39.2311 25.4039 40.9159 26.1805 42.7292C30.6198 53.0998 35.4707 62.4426 40.7056 72.2711C41.079 72.9699 41.5606 73.9079 42.0124 74.7201C42.5093 75.6148 43.2186 76.4246 43.3177 77.0045C43.4685 77.8794 43.1615 79.2304 43.1546 80.4334C43.143 82.7934 42.583 89.4775 44.6245 89.7365C46.7337 90.0048 46.5821 85.3498 46.5821 83.2064C46.5821 77.5761 45.8497 73.6466 44.1345 69.8245C39.1011 58.608 32.0225 47.7672 26.8332 36.6881Z" fill="#00B2FF"/>
<path opacity="0.2" fill-rule="evenodd" clip-rule="evenodd" d="M26.8332 36.6881C39.1698 29.8782 50.7619 21.4173 61.4349 12.5332C62.8596 11.349 65.1542 10.0224 64.5384 7.63663C62.561 6.60505 59.5833 8.85581 57.8437 9.92104C52.3871 13.267 48.6291 16.347 43.155 20.2055C38.3539 23.5888 33.4131 26.9176 28.6295 30.8144C26.877 32.2401 24.9881 33.8395 24.5484 35.0578C24.4128 35.4335 24.2206 36.9375 24.2206 37.179C24.2197 39.2311 25.4039 40.9159 26.1805 42.7292C30.6198 53.0998 35.4707 62.4426 40.7056 72.2711C41.079 72.9699 41.5606 73.9079 42.0124 74.7201C42.5093 75.6148 43.2186 76.4246 43.3177 77.0045C43.4685 77.8794 43.1615 79.2304 43.1546 80.4334C43.143 82.7934 42.583 89.4775 44.6245 89.7365C46.7337 90.0048 46.5821 85.3498 46.5821 83.2064C46.5821 77.5761 45.8497 73.6466 44.1345 69.8245C39.1011 58.608 32.0225 47.7672 26.8332 36.6881Z" fill="black"/>
<path fill-rule="evenodd" clip-rule="evenodd" d="M24.86 92.9016C25.0467 91.6534 25.1352 89.8894 25.9451 89.0307C27.4118 87.4709 30.0603 88.2139 32.1401 87.3261C33.3127 86.8246 33.8552 84.7177 35.3929 84.0747C36.2447 83.7165 37.1408 83.8308 38.0248 83.7631C39.1085 83.6792 40.2567 83.6395 41.4409 83.6183C41.4409 83.6151 41.4409 83.6114 41.4399 83.6077C41.628 83.6091 41.8188 83.6077 42.0106 83.6077C43.014 83.5962 44.0419 83.5971 45.079 83.6022C46.1125 83.5976 47.1403 83.5962 48.1438 83.6077C48.3342 83.6077 48.5255 83.6091 48.7131 83.6077C48.7121 83.6114 48.7121 83.6147 48.7121 83.6183C49.8977 83.6395 51.0477 83.6792 52.1282 83.7631C53.0127 83.8308 53.9097 83.7165 54.7615 84.0747C56.2992 84.7177 56.8417 86.8246 58.0143 87.3261C60.0945 88.2139 62.7431 87.4709 64.2107 89.0307C65.0192 89.8894 65.1077 91.6534 65.2935 92.9016C58.2425 93.063 31.9114 93.063 24.86 92.9016Z" fill="#00B2FF"/>
<path fill-rule="evenodd" clip-rule="evenodd" d="M21.5288 37.3219C21.5288 39.8336 23.5648 41.8709 26.0764 41.8709C28.5881 41.8709 30.624 39.8336 30.624 37.3219C30.624 34.8112 28.5881 32.7729 26.0764 32.7729C23.5648 32.7729 21.5288 34.8112 21.5288 37.3219Z" fill="#00B2FF"/>
<path fill-rule="evenodd" clip-rule="evenodd" d="M23.909 37.3218C23.909 38.5189 24.8798 39.4896 26.0768 39.4896C27.2748 39.4896 28.2446 38.5189 28.2446 37.3218C28.2446 36.1248 27.2753 35.1541 26.0768 35.1541C24.8798 35.1541 23.909 36.1248 23.909 37.3218Z" fill="white"/>
<path fill-rule="evenodd" clip-rule="evenodd" d="M85.3975 20.4746C87.7917 23.473 87.304 27.8436 84.3056 30.24C81.3086 32.6355 76.9357 32.1465 74.5406 29.1494C72.9596 27.1683 72.7172 22.3769 71.7616 20.2524C71.5201 19.7145 71.4676 19.1208 71.9285 18.7535L75.9151 15.567C76.3747 15.1996 76.9467 15.3757 77.4155 15.7348C79.2583 17.1462 83.8423 18.5299 85.3975 20.4746Z" fill="#EFAD1B"/>
<path fill-rule="evenodd" clip-rule="evenodd" d="M74.6724 12.3525C74.3433 12.2322 74.0354 12.4119 73.7648 12.5346C72.9969 12.8918 72.2889 13.4154 71.6183 13.9077C71.1831 14.2239 70.742 14.6254 70.3221 15.0056C70.1202 15.19 69.9128 15.4057 69.7187 15.6238C69.5261 15.8432 69.3011 16.1077 69.3408 16.4613C69.545 16.7941 70.1119 16.6364 70.4221 16.5549C70.2811 16.842 69.6473 17.2642 69.875 17.7473C70.0792 18.187 70.9144 17.928 71.309 17.8639C71.203 18.2069 70.7618 18.6595 71.0605 19.0107C71.2684 19.1089 71.6252 19.0365 71.846 18.9642C72.329 18.8033 72.8052 18.494 73.268 18.193C74.1488 17.6224 74.9665 17.0218 75.7427 16.2331C75.9082 16.0663 76.1046 15.8634 76.2839 15.6274C76.5604 15.2555 76.9619 14.5157 76.1742 14.4783C75.7146 14.4562 75.2703 14.6954 74.914 14.8028C75.0237 14.5567 75.4344 14.2018 75.4602 13.7971C75.5058 13.0388 74.4009 13.4237 74.0497 13.6417C74.0322 13.6431 74.0253 13.6615 74.0055 13.6592C74.129 13.4845 74.3392 13.2974 74.4968 13.0886C74.6383 12.8982 74.8485 12.6171 74.6724 12.3525Z" fill="#EFAD1B"/>
<path fill-rule="evenodd" clip-rule="evenodd" d="M72.7189 13.3333C72.2525 12.7511 71.4016 12.6552 70.8162 13.1222C70.234 13.5877 70.1395 14.4382 70.6042 15.024C71.0706 15.6062 71.9224 15.703 72.506 15.2365C73.0891 14.7682 73.1845 13.9178 72.7189 13.3333Z" fill="#EFAD1B"/>
<path fill-rule="evenodd" clip-rule="evenodd" d="M61.7613 12.5331C59.2101 20.4608 63.878 29.066 67.1479 34.4051C75.1327 27.9718 83.0581 21.4795 90.3252 14.3285C84.9235 10.5705 76.285 4.98804 67.3101 7.79976C65.1986 5.75919 62.4615 1.07514 58.6602 0.944235C56.273 0.862649 56.1914 3.90299 57.028 6.1685C57.9614 8.69352 60.2375 10.8041 61.7613 12.5331Z" fill="#00B2FF"/>
<path fill-rule="evenodd" clip-rule="evenodd" d="M9.3721 65.4147C14.6655 65.1571 19.9317 64.5537 25.1597 63.7019C25.014 65.4742 24.8435 67.2465 24.6803 69.0197C24.3945 72.108 22.9674 85.5061 21.8266 91.1623C21.7307 91.6347 21.2246 92.7921 19.7556 92.8189C19.3122 92.8272 10.659 93.0125 10.1442 93.0161C9.53388 93.0198 8.2345 92.5506 8.1082 91.4448C7.99389 90.4123 7.83626 89.3798 7.69982 88.3335C6.52397 79.2857 5.56014 74.5676 4.36446 65.583C6.05057 65.5581 7.7247 65.494 9.3721 65.4147Z" fill="#00B2FF"/>
<path d="M17.7947 65.2898C16.8973 65.2677 16.0233 65.2267 15.1393 65.2433C13.2397 65.2829 11.4444 65.3714 9.68269 65.4064C9.22774 65.4171 8.77833 65.4627 8.33168 65.4613C7.04935 65.4544 5.68451 65.3737 4.34871 65.3378C4.15604 65.3332 3.87948 65.3249 3.66054 65.3737C3.64994 65.1543 3.66653 64.9105 3.67206 64.6367C3.69787 63.2073 3.89976 61.7489 4.22841 60.6966C5.22358 57.5115 7.05765 55.6751 10.0699 54.4025C11.4688 53.812 13.2711 53.3488 15.2291 53.4027C18.889 53.5018 21.479 55.0266 23.0867 57.169C24.3723 58.8842 25.1725 60.8547 25.5412 63.5507C25.6136 64.0817 25.7279 64.8432 25.6288 65.4115C25.3417 65.3262 24.901 65.3009 24.5553 65.2811C22.3889 65.1428 19.9879 65.3461 17.7947 65.2898Z" fill="#00B2FF"/>
<path d="M10.8664 43.8949C10.2004 43.9567 9.63896 43.7677 9.61453 43.4759C9.5855 43.1869 10.1045 42.9007 10.7673 42.8389C11.4357 42.7804 11.9971 42.9661 12.0229 43.2579C12.0497 43.5497 11.5316 43.8354 10.8664 43.8949Z" fill="#00B2FF"/>
<path d="M14.5793 70.8758L15.0518 75.9756C14.2829 75.7806 13.2596 75.2768 12.4604 74.2572L11.9261 68.4692C12.6203 69.8189 13.6865 70.5375 14.5793 70.8758Z" fill="#EFAD1B"/>
<path d="M13.8005 62.4712L14.1831 66.6164C13.3456 66.3399 12.3048 65.7144 11.5604 64.5247L11.1534 60.1426C11.8581 61.4539 12.9188 62.1481 13.8005 62.4712Z" fill="#EFAD1B"/>
<path d="M13.4077 58.2094C12.5771 57.942 11.5386 57.3401 10.7882 56.1725L10.3369 51.2898C11.0555 52.5592 12.1092 53.2267 12.9735 53.5346L13.4077 58.2094Z" fill="#EFAD1B"/>
<path d="M15.4458 80.2513L15.6104 82.0374C15.2628 82.7477 13.7906 82.314 13.1812 82.0526L12.836 78.3052C13.6016 79.4312 14.6341 80.0028 15.4458 80.2513Z" fill="#EFAD1B"/>
<path d="M9.96927 47.3122L9.61481 43.4786C9.64062 43.769 10.2016 43.9571 10.8667 43.8953C11.5319 43.8359 12.0499 43.5501 12.0227 43.2583L12.5791 49.2689C11.7637 49.0168 10.7312 48.4415 9.96927 47.3122Z" fill="#EFAD1B"/>
<path d="M12.5805 49.2689L12.9736 53.5353C12.1094 53.2274 11.0557 52.5563 10.3371 51.2896L9.96833 47.3113C10.7312 48.4438 11.7637 49.0168 12.5805 49.2689Z" fill="#00B2FF"/>
<path d="M13.4076 58.2092L13.8008 62.4725C12.9185 62.1484 11.8584 61.4538 11.1559 60.1438L10.7886 56.1724C11.5385 57.3399 12.577 57.9419 13.4076 58.2092Z" fill="#00B2FF"/>
<path d="M14.1845 66.615L14.5786 70.8759C13.6862 70.5389 12.6196 69.819 11.9255 68.4689L11.5604 64.5242C12.3039 65.7157 13.3456 66.3398 14.1845 66.615Z" fill="#00B2FF"/>
<path d="M15.0517 75.9757L15.4458 80.2518C14.6313 80.0043 13.6011 79.4313 12.836 78.3067L12.4603 74.2573C13.2642 75.2765 14.2838 75.7793 15.0517 75.9757Z" fill="#00B2FF"/>
<path d="M20.4465 74.4539C18.652 74.4014 16.8973 73.6049 15.1798 72.7858C17.4619 72.5175 19.1337 71.1877 21.473 71.0112C22.8719 70.9084 24.3303 71.5698 24.3511 72.76C24.3502 72.7632 24.3502 72.7646 24.3488 72.7655C24.1902 72.9218 24.0805 73.1061 23.9717 73.2195C23.2932 73.922 21.8579 74.4949 20.4465 74.4539Z" fill="#00B2FF"/>
<path d="M21.8264 91.162C21.7494 91.6368 21.2244 92.7919 19.7554 92.8187C19.7402 92.8187 19.7213 92.8187 19.6946 92.82C19.5835 92.7514 19.4706 92.6813 19.3562 92.6158C17.4231 91.4981 15.9273 90.5158 14.4247 88.9468C12.4892 86.9343 11.2244 88.8569 10.0075 86.2807C7.73462 81.4718 6.3813 76.7873 5.17365 70.8946C8.74499 70.0801 12.0103 71.2763 14.728 72.5711C14.8782 72.642 15.0276 72.7144 15.1792 72.7854C16.8967 73.6045 18.6515 74.4014 20.4459 74.4535C21.8577 74.4946 23.2926 73.9216 23.9716 73.2191C24.0744 73.114 24.1758 72.9486 24.3159 72.8015C24.1398 74.6301 22.7515 85.4828 21.8264 91.162Z" fill="#00B2FF"/>
<path d="M8.10871 91.4448C7.99439 90.4123 7.83674 89.3798 7.70031 88.3334C6.75539 81.0755 6.07182 78.1144 5.09048 70.9123C5.11491 70.9063 5.14396 70.9017 5.17438 70.8948C6.38204 76.7879 7.40531 77.229 9.68004 82.0402C10.8969 84.615 12.4895 86.9345 14.4249 88.9469C15.9276 90.516 17.4233 91.4987 19.3565 92.616C19.4708 92.6815 19.5837 92.7515 19.6948 92.8202C18.8071 92.8377 10.6425 93.0129 10.1442 93.0161C9.53438 93.0198 8.23454 92.5505 8.10871 91.4448Z" fill="#00B2FF"/>
<path opacity="0.2" d="M20.4465 74.4539C18.652 74.4014 16.8973 73.6049 15.1798 72.7858C17.4619 72.5175 19.1337 71.1877 21.473 71.0112C22.8719 70.9084 24.3303 71.5698 24.3511 72.76C24.3502 72.7632 24.3502 72.7646 24.3488 72.7655C24.1902 72.9218 24.0805 73.1061 23.9717 73.2195C23.2932 73.922 21.8579 74.4949 20.4465 74.4539Z" fill="black"/>
<path opacity="0.2" d="M8.10871 91.4448C7.99439 90.4123 7.83674 89.3798 7.70031 88.3334C6.75539 81.0755 6.07182 78.1144 5.09048 70.9123C5.11491 70.9063 5.14396 70.9017 5.17438 70.8948C6.38204 76.7879 7.40531 77.229 9.68004 82.0402C10.8969 84.615 12.4895 86.9345 14.4249 88.9469C15.9276 90.516 17.4233 91.4987 19.3565 92.616C19.4708 92.6815 19.5837 92.7515 19.6948 92.8202C18.8071 92.8377 10.6425 93.0129 10.1442 93.0161C9.53438 93.0198 8.23454 92.5505 8.10871 91.4448Z" fill="black"/>
<path d="M3.43365 65.458C3.49311 65.417 3.57101 65.3926 3.65997 65.3737C3.87938 65.3248 4.15594 65.3331 4.34816 65.3377C5.68395 65.3737 7.04879 65.4543 8.33111 65.4613C8.77776 65.4626 9.22718 65.417 9.68212 65.4064C11.4438 65.3714 13.2396 65.2829 15.1387 65.2432C16.0228 65.2266 16.8967 65.2677 17.7942 65.2898C19.9873 65.346 22.3883 65.1428 24.5552 65.2806C24.9004 65.3004 25.3416 65.3262 25.6287 65.411C25.6753 65.4248 25.72 65.4401 25.7582 65.4576C26.204 65.665 26.4045 66.0923 26.498 66.7173C26.5423 67.0045 26.6101 67.2912 26.5146 67.4829C26.2662 67.9867 24.7635 67.9494 23.8195 67.9217C22.7976 67.8913 21.773 67.8296 20.8304 67.806C19.7863 67.777 18.7907 67.7595 17.7946 67.7397C15.9117 67.7023 13.4452 67.8554 11.5448 67.8959C10.5404 67.9158 9.55214 67.8738 8.53346 67.8549C7.58485 67.836 6.55466 67.8374 5.49773 67.7885C4.65652 67.7512 3.28201 67.7282 3.00913 67.1529C2.73718 66.585 3.16032 65.6396 3.43365 65.458Z" fill="#003294"/>
<path d="M102.814 86.5772L98.9893 56.9629C98.8247 55.5686 97.701 54.4711 96.3025 54.3623L53.8174 51.4851C52.9518 51.4105 52.1 51.7184 51.4841 52.3263C50.8683 52.9329 50.5484 53.7824 50.6079 54.6444L55.3436 88.1306C55.4436 89.548 56.5254 90.6694 57.8893 90.8561C58.047 90.8796 58.2041 90.8851 58.3678 90.8819L99.9439 89.8914C100.777 89.8715 101.565 89.5005 102.112 88.8695C102.657 88.2398 102.909 87.4092 102.814 86.5772Z" fill="#003294"/>
<path d="M99.8535 83.8531L58.5471 85.1829L54.1064 55.2095L96.2545 57.5722L99.8535 83.8531Z" fill="#00B2FF"/>
<path d="M123.231 88.5768C123.231 90.5441 121.636 92.139 119.669 92.139L59.1994 93.0235C57.2335 93.0235 55.7248 90.5441 55.7248 88.5773C55.7248 86.6114 57.3197 85.0156 59.2865 85.0156H119.669C121.636 85.0152 123.231 86.6109 123.231 88.5768Z" fill="#003294"/>
<path fill-rule="evenodd" clip-rule="evenodd" d="M128.566 92.139C86.9196 92.1321 44.8872 92.782 3.53973 92.917C3.35904 95.2388 3.39268 97.7541 3.20001 100.065C45.9884 99.6933 87.6069 99.3886 128.734 97.1134C128.734 95.6107 128.734 94.1081 128.734 92.6064C128.748 92.3851 128.762 92.1657 128.566 92.139Z" fill="#EFAD1B"/>
<path d="M42.7676 97.5793C45.7743 97.5793 48.7796 97.5793 51.7849 97.5793C52.0509 97.6494 51.7536 97.7974 51.7849 98.0868C47.9149 118.878 42.5496 138.889 37.6388 158.995C33.1903 177.212 29.2654 195.527 23.9618 213.058H19.8724C28.3624 175.499 35.7747 136.766 42.7676 97.5793Z" fill="#EFAD1B"/>
<path d="M112.412 158.658C107.087 138.518 101.584 118.303 96.2449 98.2546C99.354 98.2546 102.462 98.2546 105.572 98.2546C105.788 98.2989 105.749 98.6248 105.883 98.7612C110.516 118.503 114.834 138.434 118.94 158.489C122.669 176.706 127.054 194.742 130.631 213.058H127.438C124.925 205.073 122.886 196.851 120.649 188.691C117.915 178.71 115.076 168.737 112.412 158.658Z" fill="#EFAD1B"/>
<path d="M29.2141 179.699H120.936V183.935H29.2141V179.699Z" fill="#EFAD1B"/>
<path fill-rule="evenodd" clip-rule="evenodd" d="M35.4163 156.7C35.2974 156.68 35.2878 156.762 35.2845 156.847C34.5507 161.313 36.4968 165.276 38.9047 167.251C38.949 169.342 38.7752 172.637 39.1403 174.86C39.244 175.479 39.3643 176.284 39.9266 176.513C40.1437 168.832 40.553 160.095 35.4163 156.7Z" fill="#889922"/>
<path fill-rule="evenodd" clip-rule="evenodd" d="M21.8591 164.991C29.2175 162.337 33.8748 157.229 36.0684 149.894C45.7564 152.064 42.0942 169.526 44.3252 179.826C45.1207 179.101 45.0825 177.681 45.1498 176.538C45.36 172.969 45.2351 168.688 44.8465 164.699C44.1606 157.681 43.2867 151.637 38.8465 149.051C34.3661 146.441 28.5629 149.601 26.0329 152.367C23.2239 155.435 21.5055 159.802 21.8591 164.991Z" fill="#889922"/>
<path opacity="0.2" d="M26.0322 152.366C28.2922 149.898 33.1583 147.124 37.3667 148.417C32.3932 148.441 28.5872 153.192 26.513 156.437C25.4584 158.089 24.6052 159.962 23.705 162.361C23.5579 162.753 23.321 163.607 23.0191 164.538C22.6388 164.694 22.2549 164.848 21.8594 164.991C21.5054 159.802 23.2238 155.435 26.0322 152.366Z" fill="black"/>
<path fill-rule="evenodd" clip-rule="evenodd" d="M0.258919 113.57C-0.20755 113.489 0.0570221 113.86 0.274124 113.851C0.24601 114.179 0.688511 113.99 0.717548 114.252C4.94204 118.074 10.5655 121.5 17.267 123.594C24.3406 125.8 34.4056 127.254 42.2646 124.047C47.5963 134.743 47.7005 150.837 47.4073 165.138C47.3326 168.76 47.2999 172.248 47.3815 176.004C47.405 177.076 47.2414 178.401 48.1047 179.214C49.1768 178.304 48.9819 176.56 49.0404 175.357C49.2676 170.865 49.3124 166.482 49.5059 161.926C49.7682 155.712 49.5912 149.285 48.9984 143.185C47.8632 131.486 44.8592 120.143 37.8498 114.669C33.9074 111.59 26.7568 109.156 20.0742 109.06C11.8547 108.943 5.6399 110.843 0.258919 113.57Z" fill="#889922"/>
<path opacity="0.2" d="M33.4865 114.887C28.1945 112.548 21.6726 111.693 14.5618 111.732C9.00009 111.765 5.01713 112.848 0.342304 113.529C5.70531 110.825 11.8985 108.944 20.0746 109.061C26.7572 109.157 33.9082 111.59 37.8502 114.669C40.1484 116.464 42.0092 118.9 43.5225 121.762C40.7734 118.868 37.2026 116.528 33.4865 114.887Z" fill="black"/>
<path fill-rule="evenodd" clip-rule="evenodd" d="M53.8663 182.438C54.348 182.063 54.1346 181.096 54.1895 180.445C54.572 175.977 55.151 170.835 55.1616 165.864C55.6202 168.077 55.0076 171.185 55.5382 173.465C56.0517 171.637 55.8391 169.698 55.9654 167.799C56.7891 155.054 57.4948 141.332 61.9332 131.665C69.9379 133.481 79.5 130.653 85.8619 127.654C91.749 124.877 96.4298 120.675 98.958 115.715C95.7439 115.316 93.0124 114.669 89.7319 114.62C71.2561 114.355 61.2275 122.534 57.1952 135.705C55.2035 142.206 54.5656 149.778 53.7778 157.888C53.1224 164.661 52.8352 171.819 53.3054 179.644C53.3552 180.516 53.2095 181.684 53.8663 182.438Z" fill="#889922"/>
<path opacity="0.2" d="M94.9188 116.761C87.3995 116.444 80.6431 117.783 75.3174 119.851C67.8798 122.736 62.1176 126.809 58.4541 132.682C58.3559 132.686 58.2582 132.825 58.1798 132.906C62.7417 121.39 72.6048 114.375 89.7319 114.621C93.0128 114.67 95.7439 115.317 98.958 115.716C98.7317 116.16 98.4842 116.595 98.2242 117.026C98.209 117.025 98.1915 117.025 98.1763 117.024C97.0829 116.997 95.9619 116.807 94.9188 116.761Z" fill="black"/>
<path fill-rule="evenodd" clip-rule="evenodd" d="M13.6678 127.863C15.2742 133.905 19.8766 137.478 24.3113 140.458C28.7903 143.467 34.2749 146.15 41.5107 145.815C44.5732 153.858 43.3766 165.443 44.4054 175.726C44.4451 176.146 44.157 177.124 44.9037 177.255C45.6467 177.144 45.3402 175.88 45.3679 175.256C45.8615 164.572 45.614 151.251 42.1874 142.395C38.1252 131.898 27.9762 126.441 13.6678 127.863Z" fill="#889922"/>
<path opacity="0.2" d="M42.1875 142.395C42.6148 143.496 42.99 144.666 43.3237 145.893C41.7533 143.194 39.9626 140.781 37.6348 138.809C32.9845 134.871 27.6293 131.867 20.9932 130.464C18.7226 129.983 16.3534 129.673 14.1367 129.315C13.9629 128.845 13.8007 128.366 13.6679 127.863C27.9764 126.441 38.1253 131.898 42.1875 142.395Z" fill="black"/>
<path fill-rule="evenodd" clip-rule="evenodd" d="M57.7191 180.413C58.2561 180.015 58.1016 179.245 58.1961 178.697C58.9115 174.626 59.0304 169.684 59.7933 165.354C60.6658 160.382 61.7509 155.745 63.6412 151.898C68.9544 151.123 73.697 148.992 77.7754 146.681C83.8316 143.253 88.7213 138.702 91.7515 132.583C84.7978 130.944 77.0826 133.78 72.3598 137.071C68.3428 139.873 64.9595 143.228 62.7161 147.425C59.2102 153.984 58.1182 162.105 57.5522 171.392C57.3701 174.346 56.9571 177.458 57.7191 180.413Z" fill="#889922"/>
<path opacity="0.2" d="M62.198 151.263C61.5177 152.206 60.8995 153.443 60.0044 154.292C60.6986 151.849 61.5771 149.553 62.7161 147.425C64.9595 143.229 68.3428 139.873 72.3598 137.071C77.0826 133.78 84.7978 130.944 91.7515 132.583C91.5565 132.977 91.3546 133.363 91.1449 133.742C88.1313 134.436 85.5039 135.228 83.3209 136.105C74.6525 139.587 66.9613 144.658 62.198 151.263Z" fill="black"/>
<path fill-rule="evenodd" clip-rule="evenodd" d="M60.2958 175.486C60.9222 174.935 60.9259 173.958 61.0273 173.193C61.3467 170.756 61.4988 168.113 62.0658 165.664C63.1264 161.067 65.0748 156.779 69.2984 155.003C70.0534 162.832 72.7273 168.536 78.0101 171.363C81.923 165.18 79.073 152.867 72.1419 152.605C71.1877 152.568 69.421 152.892 68.371 153.354C62.6507 155.882 60.134 164.119 59.8473 172.12C59.8044 173.267 59.4905 174.573 60.2958 175.486Z" fill="#889922"/>
<path opacity="0.2" d="M77.2866 165.331C76.7404 160.877 74.4924 156.148 71.8019 154.313C70.6901 153.555 69.5982 153.496 68.3098 153.386C68.3297 153.376 68.3486 153.363 68.3693 153.354C69.4193 152.892 71.1856 152.568 72.1402 152.605C79.0713 152.867 81.9218 165.18 78.0084 171.363C77.8079 171.256 77.6166 171.137 77.4239 171.02C77.2529 169.173 77.5198 167.214 77.2866 165.331Z" fill="black"/>
<path fill-rule="evenodd" clip-rule="evenodd" d="M88.3002 74.3352C79.4405 77.9089 72.1393 82.9068 66.6173 89.5208C61.0722 96.1578 56.9233 103.938 54.9781 113.802C53.976 118.886 53.8991 124.521 53.6714 130.097C53.0929 144.072 52.9505 158.431 52.9772 173.027C52.9795 175.199 52.962 177.305 53.1639 179.649C53.2072 180.16 52.897 181.195 53.676 181.458C53.7317 181.208 54.0622 180.259 54.0853 181.157C55.5414 181.4 55.2496 179.478 55.3731 178.695C56.6052 170.817 55.8949 160.773 56.0314 152.135C56.1936 142.017 56.9311 131.693 57.227 122.157C67.3806 119.232 75.7295 113.543 81.6715 105.708C87.1857 98.4298 91.9435 86.9589 88.3002 74.3352Z" fill="#889922"/>
<path opacity="0.2" d="M66.9951 97.1208C61.5523 105.088 56.9019 113.911 54.5161 124.409C54.2525 125.573 54.2511 126.964 53.7528 127.957C53.916 123.571 54.0782 119.204 54.7466 115.137C56.66 107.801 59.137 101.034 62.5014 95.0899C63.7662 93.1424 65.1403 91.289 66.6162 89.5213C72.1382 82.9073 79.4395 77.9089 88.2992 74.3357C88.4066 74.71 88.507 75.0861 88.6011 75.4567C88.0295 75.9001 87.3003 76.2094 86.856 76.5242C78.7449 82.2546 72.4793 89.0857 66.9951 97.1208Z" fill="black"/>
<path fill-rule="evenodd" clip-rule="evenodd" d="M48.6212 100.88C48.3925 100.847 48.3833 101.022 48.2045 101.036C47.4389 108.071 48.2828 115.273 48.187 122.469C48.0911 129.628 48.305 136.813 48.0261 143.767C47.5324 156.031 46.9853 167.873 47.0881 180.459C47.1033 182.143 46.9387 183.952 47.6748 185.516C48.8986 184.46 48.7553 182.551 48.9443 181.105C49.5546 176.371 49.7657 171.082 50.0003 165.701C50.8811 145.493 52.0104 122.008 48.7765 101.3C48.8101 101.07 48.6364 101.06 48.6212 100.88Z" fill="#889922"/>
<path fill-rule="evenodd" clip-rule="evenodd" d="M46.1605 67.9111C43.6018 72.7367 40.3831 81.7996 40.3831 89.6153C40.3831 94.4524 41.7143 99.4296 44.7523 102.02C46.1033 103.167 48.3098 104.228 50.8122 103.709C55.7102 102.693 57.7378 97.0567 57.2953 90.4634C56.7892 82.9137 52.3555 75.6245 48.4158 70.5887C47.4276 69.3253 47.0422 68.5505 46.1605 67.9111Z" fill="#889922"/>
<path fill-rule="evenodd" clip-rule="evenodd" d="M42.781 82.5686C42.2398 83.2194 41.8162 86.4852 43.2023 86.5147C44.1214 85.7482 43.8088 83.4845 43.2023 82.5686C43.0612 82.5686 42.9211 82.5686 42.781 82.5686Z" fill="#889922"/>
<path fill-rule="evenodd" clip-rule="evenodd" d="M42.3562 89.3328C42.1681 90.5635 42.3165 97.0669 44.47 96.2386C44.9111 95.1185 44.435 92.741 44.1888 91.0249C44.0791 90.257 43.9114 89.5817 43.4818 89.0507C42.9466 88.983 42.5848 89.0904 42.3562 89.3328Z" fill="#889922"/>
<path fill-rule="evenodd" clip-rule="evenodd" d="M49.3348 82.691C47.7515 82.4039 47.4003 84.8819 47.1776 87.0068C46.7799 90.7985 46.6457 94.7989 46.8545 99.194C46.9522 101.272 47.2127 103.745 48.4729 103.831C50.1097 103.94 50.1355 101.376 50.4143 99.4088C50.9135 95.8831 51.3302 91.5046 51.062 87.547C50.9403 85.7955 50.8186 82.963 49.3348 82.691Z" fill="#EFAD1B"/>
<path opacity="0.65" fill-rule="evenodd" clip-rule="evenodd" d="M49.3348 82.691C47.7515 82.4039 47.4003 84.8819 47.1776 87.0068C46.7799 90.7985 46.6457 94.7989 46.8545 99.194C46.9522 101.272 47.2127 103.745 48.4729 103.831C50.1097 103.94 50.1355 101.376 50.4143 99.4088C50.9135 95.8831 51.3302 91.5046 51.062 87.547C50.9403 85.7955 50.8186 82.963 49.3348 82.691Z" fill="#889922"/>
<path fill-rule="evenodd" clip-rule="evenodd" d="M28.821 176.442C28.8615 174.851 28.8034 172.713 29.782 172.148C30.1402 171.944 30.8472 171.86 31.6548 171.826V171.818L32.1927 171.807H32.2033L67.9043 171.106V171.111C68.581 171.09 69.2401 171.09 69.8771 171.157C71.9269 171.362 71.8462 172.982 71.8324 175.181C71.8126 177.124 72.1136 179.367 70.9926 180.094C70.0652 180.691 67.6642 180.574 67.6642 180.574C67.1276 187.909 66.3214 195.393 65.7038 202.913C65.5208 205.144 65.5323 208.968 64.4915 209.917C63.5023 210.817 38.0074 211.4 36.9938 210.556C36.3126 209.992 36.266 208.849 36.0992 207.344C35.098 198.496 34.0397 189.578 32.9782 181.15C31.5594 181.099 30.4697 181.262 29.7442 180.797C28.7652 180.178 28.7882 177.941 28.821 176.442Z" fill="#00B2FF"/>
<path opacity="0.2" fill-rule="evenodd" clip-rule="evenodd" d="M32.9777 181.149L67.4899 182.843L67.666 180.574L32.9777 181.149Z" fill="black"/>
<path d="M146.659 153.297C144.532 153.156 141.225 154.233 140.393 152.591C139.707 151.234 140.976 148.165 141.546 146.594C142.89 142.903 145.288 138.774 148.64 137.24C152.279 135.581 157.051 135.311 161.839 134.771C166.831 134.206 171.852 133.373 176.027 133.36C176.82 132.818 176.728 131.747 177.015 130.889C181.013 118.834 186.26 106.05 191.53 95.2483C194.535 89.0869 197.559 83.6138 202.419 79.5432C207.272 75.481 214.164 73.5303 222.381 73.0177C229.484 72.5683 235.224 73.9862 235.906 80.6034C236.44 85.8023 234.577 91.3672 233.266 95.7761C229.388 108.816 223.007 122.503 218.586 133.712C225.497 133.864 224.803 143.154 224.359 150.121C223.808 150.824 222.91 151.159 221.554 151.003C223.678 167.934 233.454 212.099 233.581 213.057H229.796C229.72 212.354 218.653 168.199 215.943 151.18C206.578 151.455 195.766 151.71 185.758 151.886C184.921 154.43 177.14 197.784 174.791 213.057H171.285C173.107 195.59 177.604 169.434 179.322 152.063C170.763 151.966 161.267 152.39 152.765 152.947C147.531 167.163 132.398 210.773 131.572 213.057H127.982C133.314 196.049 141.368 170.432 146.659 153.297ZM214.132 133.181C217.161 125.222 220.63 117.136 224.193 108.128C226.499 102.3 229.377 95.2677 230.79 88.1895C231.566 84.3139 232.468 78.6587 228.976 78.1328C220.787 95.0183 215.071 114.545 208.357 133.008C210.384 132.958 212.025 133.319 214.132 133.181ZM203.737 132.829C210.488 114.287 216.09 94.5237 224.523 77.7778C222.35 77.6322 220.782 78.1291 218.748 78.1323C212.372 96.013 206.166 114.075 200.604 132.829H203.737V132.829ZM195.986 132.829C199.935 119.08 204.664 105.208 209.183 92.2485C210.57 88.2632 212.127 84.414 213.306 80.6038C213.407 80.2793 214.199 79.5156 213.471 79.1888C211.891 79.617 210.336 80.0719 209.018 80.779C204.545 98.7556 198.268 114.803 193.839 132.83H195.986V132.829ZM189.219 132.829C193.358 116.143 199.13 100.257 203.576 84.484C198.059 90.7901 194.462 98.9989 190.872 107.246C187.235 115.59 184.048 124.4 180.809 133.008C183.792 133.137 186.262 132.723 189.219 132.829Z" fill="#003294"/>
<path fill-rule="evenodd" clip-rule="evenodd" d="M184.873 17.7771C185.97 21.5946 184.122 22.7133 185.253 25.2651C185.926 26.7829 188.56 26.7829 189.388 28.5714C190.115 30.1441 189.103 31.8426 189.394 33.4191C189.689 35.042 192.666 36.9448 191.294 39.5325C190.533 40.9628 188.024 40.5673 186.257 41.2356C183.867 42.1409 183.472 46.004 178.957 45.4394C177.564 45.2642 175.807 43.8667 175.446 42.6148C174.792 40.328 176.254 38.3857 176.428 36.5968C176.541 35.431 176.306 33.9159 175.731 32.7608C175.126 31.55 173.229 30.4976 172.445 28.6765C171.95 27.5283 172.091 25.9638 171.588 24.7156C170.697 22.5073 168.671 20.8202 168.054 19.1226C166.498 14.829 169.019 10.7271 172.779 10.0961C179.973 8.88842 183.848 14.221 184.873 17.7771Z" fill="#003294"/>
<path fill-rule="evenodd" clip-rule="evenodd" d="M164.756 7.09497C165.358 6.9212 167.013 6.54553 168.211 6.7949C170.132 7.19868 172.686 8.97191 172.943 10.7663C173.075 11.6836 171.896 13.7251 171.424 15.0853C168.838 22.5834 166.511 29.3398 164.772 37.2278C164.311 39.3127 163.829 41.8547 163.439 44.3203C163.143 46.1995 162.431 48.3125 160.582 49.0048C158 49.9709 155.982 48.7573 154.716 47.4671C153.875 46.6047 153.376 45.745 152.441 45.6072C150.906 45.3786 149.669 46.5955 147.966 46.4996C146.555 46.4166 145.225 45.0472 144.851 43.7976C144.481 42.5655 144.93 40.7314 144.733 39.7528C144.186 37.0508 142.048 36.6729 141.838 33.3698C141.674 30.8056 143.173 28.8899 144.263 27.7777C145.489 26.5258 147.58 25.8362 148.167 24.3174C148.823 22.6152 148.011 20.6027 148.363 18.8212C148.813 16.552 150.687 14.1464 153.766 13.4278C154.97 13.1452 156.208 13.3379 157.446 12.8083C159.539 11.9145 160.242 9.60201 162.144 8.23625C162.865 7.71908 163.702 7.40196 164.756 7.09497Z" fill="#003294"/>
<path fill-rule="evenodd" clip-rule="evenodd" d="M153.722 29.4781C154.247 26.3304 154.688 23.3029 155.429 20.2686C155.869 18.4682 156.207 16.8701 156.762 15.974C157.945 14.0621 160.461 12.3727 163.825 12.0017C168.701 11.4638 174.159 14.4354 175.697 19.0439C176.382 21.101 176.181 22.5382 175.84 24.2008C177.879 23.6302 180.385 23.7786 181.065 25.4527C181.932 27.6113 180.022 29.5745 178.722 30.5535C178.127 31.0024 177.406 31.1587 177.059 31.6104C176.731 32.0446 176.54 33.6731 176.57 34.3078C176.711 37.6261 178.95 46.5941 178.95 46.5941C179.076 47.3477 179.088 48.0548 179.018 48.7255C178.054 48.5029 177.056 48.3733 176.033 48.3733C171.511 48.3733 167.451 50.6822 164.968 54.1622C164.307 53.5404 163.805 52.7458 163.55 51.7575C163.55 51.7575 162.506 46.371 161.922 44.2512C159.253 44.2184 156.625 43.1173 154.911 40.6623C153.969 39.3196 153.112 36.6019 153.097 34.3258C153.089 33.055 153.413 31.3403 153.722 29.4781Z" fill="#FCD2C0"/>
<path fill-rule="evenodd" clip-rule="evenodd" d="M167.883 27.2065C167.084 26.3524 166.299 25.9546 165.591 25.8158C164.004 25.7891 163.501 26.5976 163.501 26.5976C163.501 26.5976 163.484 27.0617 164.648 27.8066C164.816 27.855 164.998 27.8974 165.193 27.9306C166.529 28.1574 167.883 27.2065 167.883 27.2065Z" fill="white"/>
<path fill-rule="evenodd" clip-rule="evenodd" d="M162.718 26.5756C162.718 26.5756 163.932 25.4914 165.591 25.8182C165.639 25.9441 165.755 26.2045 165.765 26.3525C165.789 27.0061 165.324 27.5822 164.649 27.8017C163.26 27.4085 162.718 26.5756 162.718 26.5756Z" fill="#003294"/>
<path d="M168.249 25.6993C166.332 23.891 163.574 24.3713 162.611 24.865L162.173 24.0132C163.701 23.2314 166.804 23.012 168.91 25.0014L168.249 25.6993Z" fill="#003294"/>
<path fill-rule="evenodd" clip-rule="evenodd" d="M159.253 26.1786C158.513 25.3849 157.786 25.0148 157.13 24.8848C155.643 25.0401 155.01 25.5872 155.01 25.5872C155.01 25.5872 155.194 26.0906 156.253 26.7336C156.41 26.7788 156.579 26.8175 156.76 26.8488C157.999 27.0595 159.253 26.1786 159.253 26.1786Z" fill="white"/>
<path fill-rule="evenodd" clip-rule="evenodd" d="M154.464 25.5872C154.464 25.5872 155.586 24.5837 157.13 24.8847C157.173 25.0073 157.279 25.2442 157.288 25.3784C157.317 25.9909 156.878 26.5266 156.253 26.7331C154.962 26.3615 154.464 25.5872 154.464 25.5872Z" fill="#003294"/>
<path d="M159.572 24.8065C157.805 23.1429 155.266 23.5813 154.377 24.0339L153.938 23.1798C155.366 22.446 158.26 22.2487 160.229 24.1049L159.572 24.8065Z" fill="#003294"/>
<path opacity="0.13" fill-rule="evenodd" clip-rule="evenodd" d="M170.904 39.873C170.937 42.3524 166.922 46.2547 162.422 46.5967L161.922 44.2506C165.867 43.8514 168.827 41.8113 170.904 39.873Z" fill="black"/>
<path fill-rule="evenodd" clip-rule="evenodd" d="M166.389 33.0436C167.606 35.5055 164.723 38.4537 161.23 38.7381C159.96 38.8418 157.759 38.3145 157.314 36.9694C156.542 34.621 158.857 34.5159 160.812 33.9895C162.712 33.4755 165.369 30.98 166.389 33.0436Z" fill="white"/>
<path opacity="0.13" fill-rule="evenodd" clip-rule="evenodd" d="M160.774 32.9749C155.388 32.3905 159.292 28.3734 160.399 26.2079C160.464 26.0867 160.487 25.8461 160.668 25.7986C161.655 25.5336 161.391 31.0044 160.774 32.9749Z" fill="black"/>
<path d="M162.459 10.8484C161.869 12.47 161.966 14.3031 162.732 15.8662C163.494 17.425 164.914 18.7046 166.625 19.3674C167.614 19.7491 168.78 19.9962 169.342 20.8374C169.924 21.7076 169.601 22.836 169.835 23.8348C170.024 24.6539 170.618 25.3864 171.416 25.7924C172.214 26.1902 173.203 26.258 174.052 25.9639C174.104 26.4507 174.155 26.9508 174.359 27.4062C174.563 27.8625 174.947 28.2732 175.455 28.4212C176.094 28.6019 176.816 28.3009 177.257 27.8307C177.697 27.3629 177.913 26.7457 178.067 26.1404C179.074 22.1644 177.782 17.7555 174.731 14.8C171.69 11.8412 166.988 10.4193 162.634 11.1448" fill="#003294"/>
<path fill-rule="evenodd" clip-rule="evenodd" d="M164.779 6.38789C167.654 5.62043 172.01 6.15927 172.961 9.20099C173.695 11.5485 171.793 15.101 169.33 15.962C167.09 16.7438 164.73 16.1303 162.65 17.083C160.829 17.9159 160.233 20.2086 158.915 20.7207C157.364 21.3204 155.647 20.8175 154.669 21.3006C153.053 22.1045 153.594 24.6539 151.794 25.0563C148.608 25.768 147.551 19.3126 148.454 16.8498C148.932 15.5444 151.147 13.6343 152.984 12.9484C154.69 12.3114 156.415 12.5027 158.079 11.5707C160.652 10.1261 160.793 8.28511 162.661 7.13599C163.234 6.78384 164.125 6.56305 164.779 6.38789Z" fill="#003294"/>
<path fill-rule="evenodd" clip-rule="evenodd" d="M128.551 108.038C143.37 104.998 162.401 105.459 179.072 106.33C179.583 106.441 179.311 106.02 179.072 106.018C173.913 102.681 167.53 99.9157 160.886 97.3128C154.246 94.7135 147.237 91.4911 139.744 90.9403C134.626 90.5632 130.173 92.1037 128.24 95.1357C126.148 98.419 126.9 104.154 128.551 108.038Z" fill="#00B2FF"/>
<path opacity="0.2" fill-rule="evenodd" clip-rule="evenodd" d="M128.551 108.038C143.37 104.998 162.401 105.459 179.072 106.33C179.583 106.441 179.311 106.02 179.072 106.018C173.913 102.681 167.53 99.9157 160.886 97.3128C154.246 94.7135 147.237 91.4911 139.744 90.9403C134.626 90.5632 130.173 92.1037 128.24 95.1357C126.148 98.419 126.9 104.154 128.551 108.038Z" fill="black"/>
<path fill-rule="evenodd" clip-rule="evenodd" d="M126.219 129.336C121.375 128.939 116.508 130.666 115.802 134.778C115.156 138.558 118.036 141.549 120.158 143.017C123.043 145.014 127.587 146.433 132.592 145.658C136.377 145.074 139.356 143.36 142.697 143.171C146.963 142.932 151.829 144.476 154.978 142.705C156.575 141.806 158.271 139.438 158.087 136.954C157.825 133.408 154.111 131.565 150.004 131.512C146.658 131.471 143.731 132.515 140.521 132.291C134.968 131.9 131.515 129.362 126.531 129.336C126.427 129.336 126.322 129.344 126.219 129.336Z" fill="#889922"/>
<path fill-rule="evenodd" clip-rule="evenodd" d="M209.698 121.874C209.688 121.061 208.622 121.027 208.144 120.787C200.99 117.191 193.977 113.643 186.691 109.75C185.546 109.139 184.139 108.4 182.804 107.728C181.494 107.07 180.074 106.162 178.918 105.863C177.513 105.5 175.755 105.538 174.1 105.396C172.509 105.261 170.89 105.069 169.28 104.93C159.838 104.122 148.584 103.617 138.501 104.774C132.249 105.492 126.146 106.766 122.178 109.283C118.714 111.479 115.615 115.387 117.669 120.631C119.828 126.144 126.992 129.841 133.059 131.824C139.823 134.035 147.152 135.189 155.289 136.178C163.296 137.149 172.077 137.73 180.318 137.731C194.962 137.73 206.773 133.662 209.698 121.874Z" fill="#00B2FF"/>
<path fill-rule="evenodd" clip-rule="evenodd" d="M156.584 94.842C153.253 92.7977 149.495 91.3758 145.767 90.2276C144.897 89.9602 144.022 89.7026 143.148 89.4375C146.125 83.6633 148.934 77.7975 151.881 72.0085C154.939 74.5506 158.289 76.8 161.489 79.1577C163.418 80.5755 165.682 81.1494 167.978 81.0839C165.236 86.4064 162.343 91.674 158.903 96.6277C158.201 95.9667 157.431 95.3619 156.584 94.842Z" fill="#FCD2C0"/>
<g opacity="0.13">
<g opacity="0.13">
<path opacity="0.13" fill-rule="evenodd" clip-rule="evenodd" d="M156.584 94.842C153.253 92.7977 149.495 91.3758 145.767 90.2276C144.897 89.9602 144.022 89.7026 143.148 89.4375C146.125 83.6633 148.934 77.7975 151.881 72.0085C154.939 74.5506 158.289 76.8 161.489 79.1577C163.418 80.5755 165.682 81.1494 167.978 81.0839C165.236 86.4064 162.343 91.674 158.903 96.6277C158.201 95.9667 157.431 95.3619 156.584 94.842Z" fill="black"/>
</g>
</g>
<path fill-rule="evenodd" clip-rule="evenodd" d="M146.778 80.5614C152.058 84.778 158.006 87.7331 164.021 90.5632C166.943 86.4485 169.771 81.8188 171.584 76.459C173.328 71.3034 174.749 65.2716 172.678 59.0775C171.534 55.6546 168.821 52.2478 164.65 54.0621C162.192 55.1342 160.223 57.7629 158.602 59.857C153.867 65.9861 149.38 73.9686 146.778 80.5614Z" fill="#889922"/>
<path fill-rule="evenodd" clip-rule="evenodd" d="M174.876 106.019C182.534 110.204 191.257 114.138 199.905 118.3C201.135 118.892 202.61 119.646 204.101 120.321C205.678 121.034 207.179 121.928 208.764 121.874C208.914 121.871 208.845 121.713 209.231 121.719C212.594 121.783 213.907 115.741 214.672 111.924C215.58 107.404 215.327 102.433 214.982 98.4014C214.229 89.5938 211.912 81.8893 209.387 75.0826C206.956 68.5341 203.839 61.6679 199.126 56.4285C194.514 51.3019 188.403 46.87 180.627 46.1685C179.392 46.0574 177.364 46.1998 176.12 46.4787C169.928 47.8776 165.22 51.1175 162.594 56.1169C158.126 64.6313 161.755 75.5246 165.549 82.3894C168.682 88.0594 171.749 92.5724 173.478 99.4897C174.012 101.632 174.806 103.808 174.876 106.019Z" fill="#889922"/>
<path opacity="0.13" fill-rule="evenodd" clip-rule="evenodd" d="M174.876 106.019C182.534 110.204 191.257 114.138 199.905 118.3C201.135 118.892 202.61 119.646 204.101 120.321C205.678 121.034 207.179 121.928 208.764 121.874C208.914 121.871 208.845 121.713 209.231 121.719C212.594 121.783 213.907 115.741 214.672 111.924C215.58 107.404 215.327 102.433 214.982 98.4014C214.229 89.5938 211.912 81.8893 209.387 75.0826C206.956 68.5341 203.839 61.6679 199.126 56.4285C194.514 51.3019 188.403 46.87 180.627 46.1685C179.392 46.0574 177.364 46.1998 176.12 46.4787C169.928 47.8776 165.22 51.1175 162.594 56.1169C158.126 64.6313 161.755 75.5246 165.549 82.3894C168.682 88.0594 171.749 92.5724 173.478 99.4897C174.012 101.632 174.806 103.808 174.876 106.019Z" fill="black"/>
<path fill-rule="evenodd" clip-rule="evenodd" d="M179.106 40.9078C178.482 40.8926 176.973 41.0793 175.874 41.5951C173.579 42.6672 171.351 44.8221 168.596 47.1826C166.452 49.019 162.286 51.8003 163.179 54.0436C163.87 55.7795 166.762 54.7645 169.232 54.0948C174.363 52.6995 177.574 52.1967 182.912 50.842C184.734 50.3787 187.947 49.2692 188.123 48.0989C188.494 45.6292 182.593 41.815 181.025 41.1978C180.53 41.0037 179.758 40.9244 179.106 40.9078Z" fill="#889922"/>
<path fill-rule="evenodd" clip-rule="evenodd" d="M104.447 75.4727C109.115 74.3338 113.326 76.1379 117.497 77.4294C121.458 78.6555 125.315 79.8341 129.051 81.3179C136.987 84.4771 144.177 88.1499 150.915 91.3022C154.255 84.9344 157.339 78.4209 160.603 72.0088C163.661 74.5509 167.009 76.8002 170.211 79.1579C172.139 80.5758 174.404 81.1496 176.701 81.0842C173.607 87.0916 170.319 93.0312 166.27 98.5288C164.241 101.283 161.35 105.243 158.155 107.033C151.282 110.884 144.42 106.778 139.677 104.39C134.882 101.974 130.452 99.1211 126.276 96.2804C122.417 93.6553 117.945 90.5671 113.369 87.5276C110.31 85.4963 106.788 83.2211 103.602 80.9464C100.898 79.0169 101 76.3172 104.447 75.4727Z" fill="#FCD2C0"/>
<path fill-rule="evenodd" clip-rule="evenodd" d="M98.4327 77.3989C97.6851 77.5658 95.0937 77.6451 93.9326 78.1037C93.4823 78.2798 93.0038 78.6195 93.0707 79.0408C93.214 79.923 95.2523 79.6741 95.9746 79.6861C97.2251 79.7013 98.0935 79.7898 99.1633 79.776C98.3336 80.0784 95.822 80.1424 94.365 80.6278C93.757 80.8334 93.0956 81.1763 93.2099 81.7128C93.3486 82.3941 95.0449 82.3789 95.6169 82.3909C98.3654 82.454 101.429 82.5425 103.598 83.0242C106.088 83.5773 108.168 84.3895 110.311 85.6691C110.829 85.977 111.805 86.8541 112.397 86.7472C112.679 86.697 113.21 86.1756 113.379 85.9493C113.95 85.1768 114.33 84.0816 114.863 82.7375C115.068 82.224 115.292 81.7248 115.459 81.0445C115.597 80.4914 115.93 79.5778 115.88 79.3063C115.803 78.8818 115.005 78.206 114.525 77.8119C113.126 76.6637 111.037 75.209 109.855 74.2899C108.829 73.4953 107.754 72.6587 106.781 71.8797C105.858 71.1413 102.847 68.6955 101.742 69.7469C100.833 70.6116 104.035 72.6324 104.573 73.451C102.944 72.9472 100.187 72.548 97.3399 72.8117C96.5922 72.8827 95.0172 72.9518 94.9471 73.6073C94.8503 74.507 96.1078 74.4964 96.6821 74.6038C97.48 74.7532 98.0575 74.9398 98.7623 74.9458C97.7579 75.221 95.4247 75.2385 94.2834 75.729C93.9114 75.8875 93.5228 76.2189 93.5611 76.5504C93.6533 77.3123 94.8886 77.1533 95.716 77.2035C96.8453 77.2713 97.5722 77.3902 98.3525 77.422C98.3756 77.4114 98.4037 77.4068 98.4327 77.3989Z" fill="#FCD2C0"/>
<path fill-rule="evenodd" clip-rule="evenodd" d="M155.499 80.5614C160.779 84.778 166.728 87.7331 172.742 90.5632C175.665 86.4485 178.492 81.8188 180.307 76.459C182.051 71.3034 183.47 65.2716 181.402 59.0775C180.256 55.6546 177.543 52.2478 173.374 54.0621C170.916 55.1342 168.944 57.7629 167.326 59.857C162.589 65.9861 158.101 73.9686 155.499 80.5614Z" fill="#889922"/>
<path opacity="0.2" fill-rule="evenodd" clip-rule="evenodd" d="M155.499 80.5614C160.779 84.778 166.728 87.7331 172.742 90.5632C175.665 86.4485 178.492 81.8188 180.307 76.459C182.051 71.3034 183.47 65.2716 181.402 59.0775C180.256 55.6546 177.543 52.2478 173.374 54.0621C170.916 55.1342 168.944 57.7629 167.326 59.857C162.589 65.9861 158.101 73.9686 155.499 80.5614Z" fill="white"/>
</svg>
