<svg width="460" height="489" viewBox="0 0 460 489" fill="none" xmlns="http://www.w3.org/2000/svg">
<path d="M276.328 390.405C279.452 390.183 284.314 391.885 285.538 389.288C286.547 387.139 284.681 382.283 283.842 379.795C281.867 373.955 278.342 367.423 273.415 364.993C268.066 362.366 261.053 361.942 254.016 361.084C246.673 360.194 239.296 358.872 233.16 358.853C231.994 357.993 232.126 356.302 231.708 354.943C225.827 335.865 218.118 315.635 210.37 298.537C205.949 288.786 201.505 280.122 194.362 273.684C187.23 267.253 177.099 264.167 165.021 263.351C154.577 262.645 146.14 264.889 145.138 275.359C144.352 283.587 147.091 292.394 149.019 299.376C154.72 320.008 164.099 341.673 170.596 359.413C160.436 359.649 161.457 374.356 162.112 385.381C162.924 386.49 164.239 387.023 166.234 386.775C163.113 413.571 160.029 440.908 156.774 467.755C156.601 469.209 156.348 470.714 156.162 472.232H161.722C161.835 471.118 161.945 469.983 162.113 468.872C166.133 442.146 170.498 413.99 174.483 387.055C188.247 387.487 204.14 387.897 218.854 388.174C220.085 392.199 220.169 396.511 220.794 400.737C224.227 423.971 227.735 448.059 231.189 472.231H236.342C233.664 444.589 230.84 415.944 228.313 388.452C240.898 388.295 254.856 388.972 267.352 389.85C275.046 412.348 283.421 437.925 291.361 462.172C292.329 465.133 293.506 468.616 294.721 472.231H300C292.157 445.314 284.105 417.522 276.328 390.405ZM177.146 358.57C172.693 345.976 167.593 333.175 162.356 318.923C158.964 309.696 154.736 298.569 152.657 287.368C151.518 281.233 150.191 272.282 155.323 271.45C167.359 298.17 175.763 329.079 185.634 358.296C182.655 358.218 180.243 358.787 177.146 358.57ZM192.425 358.011C182.503 328.669 174.265 297.39 161.869 270.891C165.066 270.658 167.371 271.443 170.36 271.45C179.733 299.746 188.856 328.332 197.033 358.011H192.425ZM203.821 358.011C198.014 336.254 191.067 314.299 184.421 293.787C182.38 287.483 180.093 281.391 178.359 275.359C178.211 274.847 177.049 273.637 178.115 273.121C180.436 273.798 182.726 274.519 184.662 275.639C191.239 304.088 200.464 329.485 206.973 358.011H203.821ZM213.767 358.011C207.682 331.604 199.197 306.465 192.663 281.502C200.772 291.482 206.058 304.473 211.338 317.526C216.683 330.73 221.367 344.671 226.13 358.296C221.744 358.503 218.11 357.846 213.767 358.011Z" fill="#2257BF"/>
<path d="M201.855 144.449L201.877 146.705C201.908 149.954 199.3 152.615 196.049 152.647L28.5853 154.24C25.334 154.271 22.6738 151.66 22.6453 148.411L22.6226 146.155L201.855 144.449Z" fill="#00B2FF"/>
<path d="M21.5261 34.257C21.4978 31.0067 24.107 28.3457 27.357 28.3156L194.82 26.7217C198.07 26.6915 200.732 29.3009 200.761 32.5525L201.855 150.451L22.6219 152.157L21.5261 34.257Z" fill="#00B2FF"/>
<path opacity="0.75" d="M197.227 147.472L196.176 36.801C196.144 33.718 193.621 31.2425 190.538 31.2715L31.7249 32.7837C28.642 32.8116 26.168 35.3357 26.1972 38.4177L27.2511 149.09L197.227 147.472Z" fill="white"/>
<path d="M26.2755 33.2948L108.763 98.459C111.403 100.544 115.153 100.457 117.693 98.251L194.759 31.3119" stroke="#00B2FF" stroke-width="5"/>
<path fill-rule="evenodd" clip-rule="evenodd" d="M273.125 68.887C272.743 68.934 271.412 69.4426 270.827 69.7417C268.638 70.867 266.64 72.551 264.609 74.2134C254.622 82.3909 246.464 89.0618 236.508 97.5939C234.777 99.0748 233.179 100.359 231.056 102.352C229.188 104.109 227.487 106.219 228.199 108.012C229.03 110.103 232.139 110.503 233.995 110.812C240.602 111.903 247.355 111.692 253.969 112.245C260.342 112.772 266.777 113.796 273.807 114.055C275.797 114.124 279.132 114.479 280.833 112.85C282.863 110.9 279.994 103.622 278.991 100.446C277.828 96.7645 277.139 93.9078 275.868 90.4943C275.461 89.413 274.589 88.4167 274.29 87.2567C274.021 86.2493 274.588 84.3284 274.829 82.7715C275.298 79.7048 275.543 76.9517 275.647 73.9127C275.698 72.5368 275.847 68.5711 273.125 68.887Z" fill="#00B2FF"/>
<path fill-rule="evenodd" clip-rule="evenodd" d="M273.125 68.887C272.743 68.934 271.412 69.4426 270.827 69.7417C268.638 70.867 266.64 72.551 264.609 74.2134C254.622 82.3909 246.464 89.0618 236.508 97.5939C234.777 99.0748 233.179 100.359 231.056 102.352C229.188 104.109 227.487 106.219 228.199 108.012C229.03 110.103 232.139 110.503 233.995 110.812C240.602 111.903 247.355 111.692 253.969 112.245C260.342 112.772 266.777 113.796 273.807 114.055C275.797 114.124 279.132 114.479 280.833 112.85C282.863 110.9 279.994 103.622 278.991 100.446C277.828 96.7645 277.139 93.9078 275.868 90.4943C275.461 89.413 274.589 88.4167 274.29 87.2567C274.021 86.2493 274.588 84.3284 274.829 82.7715C275.298 79.7048 275.543 76.9517 275.647 73.9127C275.698 72.5368 275.847 68.5711 273.125 68.887Z" fill="#00B2FF"/>
<path opacity="0.42" fill-rule="evenodd" clip-rule="evenodd" d="M273.125 68.887C272.743 68.934 271.412 69.4426 270.827 69.7417C268.638 70.867 266.64 72.551 264.609 74.2134C254.622 82.3909 246.464 89.0618 236.508 97.5939C234.777 99.0748 233.179 100.359 231.056 102.352C229.188 104.109 227.487 106.219 228.199 108.012C229.03 110.103 232.139 110.503 233.995 110.812C240.602 111.903 247.355 111.692 253.969 112.245C260.342 112.772 266.777 113.796 273.807 114.055C275.797 114.124 279.132 114.479 280.833 112.85C282.863 110.9 279.994 103.622 278.991 100.446C277.828 96.7645 277.139 93.9078 275.868 90.4943C275.461 89.413 274.589 88.4167 274.29 87.2567C274.021 86.2493 274.588 84.3284 274.829 82.7715C275.298 79.7048 275.543 76.9517 275.647 73.9127C275.698 72.5368 275.847 68.5711 273.125 68.887Z" fill="white"/>
<path fill-rule="evenodd" clip-rule="evenodd" d="M283.051 92.5257C282.701 91.2215 281.359 90.9017 280.513 90.3383C279.614 89.7392 278.779 89.0361 277.772 88.4006C276.151 87.3574 273.754 85.48 271.925 85.4641C271.167 85.4622 269.523 86.0286 268.522 86.3345C264.837 87.454 261.314 89.5544 257.704 91.4095C248.761 96.0069 238.622 100.687 230.222 106.18C229.673 106.536 228.442 107.059 228.668 107.651C229.031 108.597 230.633 108.017 231.691 107.734C247.632 103.462 264.333 97.3013 279.961 93.7245C281.005 93.4896 282.358 93.6085 283.051 92.5257Z" fill="#00B2FF"/>
<path fill-rule="evenodd" clip-rule="evenodd" d="M283.051 92.5257C282.701 91.2215 281.359 90.9017 280.513 90.3383C279.614 89.7392 278.779 89.0361 277.772 88.4006C276.151 87.3574 273.754 85.48 271.925 85.4641C271.167 85.4622 269.523 86.0286 268.522 86.3345C264.837 87.454 261.314 89.5544 257.704 91.4095C248.761 96.0069 238.622 100.687 230.222 106.18C229.673 106.536 228.442 107.059 228.668 107.651C229.031 108.597 230.633 108.017 231.691 107.734C247.632 103.462 264.333 97.3013 279.961 93.7245C281.005 93.4896 282.358 93.6085 283.051 92.5257Z" fill="#00B2FF"/>
<path d="M451.805 156.881C435.943 132.131 376.619 94.6209 344.908 129.356C317.418 159.467 349.998 187.343 373.238 168.208C396.478 149.073 373.026 62.908 289.67 87.8117" stroke="#003294" stroke-width="5" stroke-linecap="round" stroke-dasharray="11 11"/>
<path fill-rule="evenodd" clip-rule="evenodd" d="M301.402 346.247C301.207 343.336 300.475 340.791 300.909 336.987C301.309 333.444 302.673 328.137 305.728 328.34C308.79 328.55 309.456 333.327 309.346 336.053C309.109 342.216 306.252 347.016 304.483 351.115C305.737 353.701 307.052 356.241 308.468 358.693C308.902 354.906 309.246 350.966 310.137 347.254C310.825 344.387 312.404 340.049 315.273 340.383C318.508 340.757 318.264 346.593 317.632 350.031C316.563 355.828 313.672 360.508 310.978 364.022C312.459 367.562 313.86 371.176 315.485 374.606C316.549 368.27 317.678 362.643 320.85 358.215C321.821 356.861 323.241 355.384 324.956 355.738C327.147 356.189 327.359 359.293 326.81 362.204C325.512 369.094 320.639 375.265 317.197 379.323C318.049 382.28 319.195 384.996 320.015 387.98C321.891 382.241 323.531 376.107 327.098 371.786C328.189 370.461 329.565 368.697 331.41 368.987C333.662 369.341 334.057 372.644 333.647 375.148C332.422 382.714 325.571 387.636 321.308 391.781C323.721 401.275 327.464 412.791 327.908 424.835C327.991 427.114 328.242 430.061 325.98 429.471C324.604 429.112 325.068 427.068 325.046 425.545C324.987 421.077 324.009 416.181 323.577 412.701C318.731 413.88 313.993 412.181 310.052 409.575C308.422 408.497 304.831 406.257 305.465 404.185C306.268 401.584 312.729 405.1 314.141 405.707C317.411 407.093 319.963 408.162 322.737 409.479C322.456 406.275 321.202 402.498 320.456 399.141C315.193 401.161 308.081 399.336 303.232 396.457C301.597 395.488 298.103 393.017 298.857 390.745C299.83 387.822 306.789 390.816 309.007 391.57C312.735 392.829 316.034 393.742 319.201 395.006C318.049 390.573 316.578 386.398 315.121 382.209C310.602 383.946 302.111 382.863 297.668 380.018C296.292 379.135 294.323 377.868 294.828 376.043C295.562 373.381 301.872 375.543 304.2 376.084C307.992 376.97 310.864 377.702 313.66 378.39C312.533 374.764 310.959 371.499 309.641 368.027C306.481 370.701 299.908 370.603 294.713 368.044C292.658 367.032 287.349 363.999 288.074 360.851C288.935 357.103 297.053 359.987 300.206 361.036C303.066 361.985 305.776 362.959 307.831 364.174C306.011 359.804 303.925 355.656 301.641 351.652C296.114 353.326 285.252 351.049 281.541 348.287C280.416 347.45 278.664 345.447 278.935 343.822C279.528 340.221 286.492 342.719 289.2 343.617C292.904 344.844 296 346.286 299.162 347.545C298.484 345.91 297.305 344.346 296.078 342.675C294.946 341.135 293.757 339.137 292.272 338.071C290.771 336.99 288.903 336.387 287.348 335.592C284.218 333.979 281.326 332.132 279.037 329.421C277.895 328.079 276.478 326.342 277.193 324.351C277.752 322.78 279.591 322.116 281.865 322.975C284.998 324.168 287.274 327.25 289.243 329.734C290.758 331.645 292.403 333.519 293.772 335.639C294.199 336.31 294.445 337.191 294.899 337.854C295.899 339.311 297.388 340.526 298.43 341.907C299.589 343.461 300.421 344.979 301.402 346.247Z" fill="#889922"/>
<path d="M366.556 367.15C367.586 366.286 368.691 365.462 369.757 364.661C371.809 363.124 373.746 361.675 375.174 359.996C377.209 357.6 378.031 355.548 377.695 353.718C377.344 351.829 376.109 351.549 375.406 351.549C373.483 351.549 371.202 353.542 370.953 353.767C367.766 356.624 365.404 360.221 363.294 365.415C362.157 366.464 361.008 367.684 359.902 368.86C359.126 369.682 358.384 370.478 357.665 371.188C357.745 369.358 357.811 367.314 357.636 365.071C357.512 363.41 357.116 358.354 354.279 358.354C351.6 358.398 350.953 362.858 350.983 365.213C351.046 369.747 352.108 373.865 353.735 375.968C353.227 376.585 352.756 377.305 352.298 378.006C351.922 378.582 351.556 379.143 351.193 379.611C350.856 377.569 350.502 375.978 349.705 373.97C348.251 370.33 346.494 368.761 344.691 369.349C343.305 369.798 343.22 372.145 343.395 374.031C343.717 377.476 345.244 382.82 348.185 384.503C347.67 385.291 347.231 386.138 346.802 386.96C346.695 387.167 346.585 387.375 346.475 387.585C345.953 385.897 345.25 384.382 344.413 382.664C344.323 382.474 344.225 382.252 344.11 382.003C343.271 380.127 341.938 377.221 339.808 377.591C339.286 377.681 338.857 377.952 338.573 378.372C337.936 379.316 338.163 380.839 338.432 382.064C339.352 386.236 341.279 389.698 344.166 392.356C342.785 395.521 341.524 399.1 340.162 403.758C340.033 403.499 339.903 403.246 339.779 402.98C339.315 402.031 338.832 401.05 338.156 400.001L337.924 399.625C337.031 398.19 335.452 395.706 333.449 396.082C332.856 396.18 332.383 396.531 332.063 397.09C331.309 398.432 331.643 400.789 332.124 402.031C333.12 404.603 335.984 408.638 337.655 409.4C338.063 409.588 338.482 409.659 338.851 409.688C337.887 414.048 337.253 419.758 337.087 425.506L337.072 425.923C337.036 427.35 336.982 429.129 337.167 430.547L337.194 430.769C337.25 431.343 337.34 432.297 338.233 432.597L338.392 432.648L338.56 432.614C340.022 432.314 339.973 430.799 339.943 429.894C339.929 429.665 339.924 429.445 339.941 429.25C339.985 428.562 340.029 427.84 340.075 427.105C340.229 424.536 341.219 415.179 341.219 415.179C341.5 413.308 341.787 411.385 342.231 409.647C345.491 410.179 348.841 409.655 352.962 407.944C354.453 407.332 357.944 405.885 357.451 403.325C357.283 402.449 356.602 401.402 354.326 401.402C352.674 401.402 350.732 401.932 349.568 402.246L349.251 402.331C346.718 403.009 345.052 403.705 343.447 404.495C344.345 401.043 345.353 398.076 346.502 395.475C347.817 396.065 349.418 396.617 351.433 396.734C351.926 396.761 352.509 396.773 353.139 396.773C355.128 396.773 359.937 396.602 361.525 394.985C361.908 394.592 362.111 394.124 362.098 393.624C362.059 391.147 357.745 390.738 354.503 390.647C352.524 390.588 351.075 390.735 349.664 390.876C349.279 390.915 348.895 390.952 348.495 390.988C349.022 389.782 349.644 388.663 350.254 387.565C350.469 387.184 350.681 386.796 350.886 386.413C352.84 387.823 355.641 388.694 358.882 388.89C359.284 388.914 359.726 388.929 360.19 388.929C361.83 388.929 365.814 388.753 367.288 387.109C367.715 386.633 367.908 386.06 367.842 385.445C367.586 383.073 362.667 382.444 359.415 382.69C358.41 382.77 357.412 382.78 356.573 382.78L354.209 382.77C353.848 382.77 353.482 382.77 353.111 382.777C354.038 381.138 355.141 379.661 356.427 378.007C358.355 379.088 361.299 379.722 364.467 379.722C366.736 379.722 368.949 379.39 370.708 378.79L370.84 378.744C372.501 378.18 375.01 377.321 374.793 375.291C374.556 373.085 370.889 373.022 368.698 372.988L368.137 372.973C365.287 372.892 362.381 373.207 359.834 373.832C360.373 373.285 360.925 372.7 361.498 372.095C362.967 370.532 364.641 368.768 366.556 367.15Z" fill="#889922"/>
<path fill-rule="evenodd" clip-rule="evenodd" d="M359.029 424.921C358.936 422.745 358.978 419.814 357.624 419.065C357.121 418.789 356.158 418.692 355.05 418.66L355.052 418.653L354.315 418.648H354.303L305.407 418.448V418.453C304.477 418.441 303.575 418.455 302.703 418.558C299.904 418.88 300.046 421.106 300.114 424.109C300.18 426.771 299.819 429.845 301.371 430.824C302.657 431.617 305.936 431.412 305.936 431.412C306.824 441.435 308.088 451.668 309.096 461.948C309.394 464.996 309.457 470.237 310.904 471.513C312.28 472.726 347.196 472.979 348.562 471.805C349.487 471.017 349.523 469.451 349.719 467.386C350.907 455.252 352.161 443.018 353.435 431.455C355.377 431.358 356.873 431.555 357.856 430.904C359.182 430.033 359.104 426.973 359.029 424.921Z" fill="#EFAD1B"/>
<path opacity="0.2" fill-rule="evenodd" clip-rule="evenodd" d="M353.434 431.455L306.221 434.508L305.93 431.411L353.434 431.455Z" fill="black"/>
<path fill-rule="evenodd" clip-rule="evenodd" d="M95.9742 291.309C95.9016 291.323 95.8022 291.284 95.7397 291.309C93.8585 291.886 93.1987 296.175 92.3324 298.528C89.452 306.341 87.2024 315.182 87.9526 325.613C88.3568 331.242 90.9402 337.061 93.0558 341.641C93.7234 343.068 94.7651 344.723 94.9995 345.932C95.4539 348.223 95.0967 350.99 95.2474 353.382C95.6805 360.271 96.3403 367.981 96.7032 374.824C78.9709 372.254 50.4674 364.282 30.7892 363.521C29.6828 364.469 29.3379 366.014 28.8411 367.357C27.4221 371.228 26.1761 376.084 25.686 381.128C26.7813 382.166 28.3588 382.797 29.8146 383.384C40.05 387.5 61.7366 396.053 72.1529 400.559C77.8914 403.044 83.8017 405.453 89.8986 407.555C96.0869 409.692 102.816 412.201 109.587 412.749C121.042 413.672 125.06 408.059 127.825 400.559C130.479 393.345 131.295 385.233 131.957 375.729C132.25 371.484 132.897 365.945 131.957 361.96C131.585 360.393 130.463 359.02 129.763 357.449C125.236 347.209 119.654 336.354 114.453 326.747C108.139 315.091 101.41 304.377 96.4632 291.982C96.4743 291.598 96.2812 291.4 95.9742 291.309Z" fill="#003294"/>
<path opacity="0.19" d="M98.8912 379.342C99.3969 381.328 100.56 384.341 98.8912 385.433C95.9684 384.564 94.6387 381.276 93.0556 378.889C91.9168 377.158 90.5816 375.387 89.5913 373.764C91.9548 374.125 94.3283 374.479 96.703 374.826C96.6739 374.284 96.646 373.726 96.6058 373.174C96.7164 373.2 96.8347 373.222 96.9508 373.245C97.4811 374.934 98.3374 377.197 98.8912 379.342Z" fill="black"/>
<path fill-rule="evenodd" clip-rule="evenodd" d="M14.9738 384.355C13.0469 387.289 11.0719 390.004 8.70061 392.183C8.45053 392.412 7.80635 392.253 7.54845 392.469C7.22245 392.743 7.27939 393.389 6.93776 393.642C6.46886 393.988 5.98545 394.314 5.48306 394.617C4.30969 395.33 2.65738 396.378 1.25961 395.71C-0.592549 394.824 -0.0209375 391.276 0.584167 388.332C1.8569 382.139 3.50698 376.513 5.63377 370.313C7.36424 365.302 9.31352 360.916 12.8604 360.24C14.803 359.87 16.9242 360.153 19.1046 360.574C19.4239 360.635 19.5791 361.163 19.9006 361.229C20.2166 361.294 20.6977 360.897 21.0148 360.963C21.1142 360.984 21.2135 361.004 21.314 361.025C24.2424 361.64 27.0525 362.551 30.2845 364.084C29.5845 368.551 28.1254 374.337 26.233 379.801C29.6191 380.759 30.2488 383.087 29.436 386.64C29.1558 387.858 28.4045 389.813 27.6297 390.125C26.0711 390.763 16.7824 385.621 14.9738 384.355Z" fill="#EFAD1B"/>
<path d="M12.8826 377.478C8.92372 379.625 6.05896 385.28 6.50107 390.986C6.56247 391.722 6.6596 392.754 6.93759 393.639C7.54828 393.188 8.12994 392.69 8.69262 392.172C8.59884 391.87 8.51511 391.571 8.4805 391.278C8.28624 389.615 8.38895 387.556 9.15594 385.291C11.9169 377.065 19.2462 377.558 26.7207 379.981C26.982 380.064 27.2376 380.178 27.491 380.295C27.1226 380.105 26.7107 379.933 26.2362 379.799C26.4416 379.195 26.6426 378.586 26.8446 377.973C26.3277 377.821 25.841 377.684 25.4234 377.568C20.5558 376.166 16.3781 375.584 12.8826 377.478Z" fill="white"/>
<path d="M20.846 362.037C20.9164 361.71 20.9811 361.341 21.0157 360.962C20.3771 360.832 19.743 360.697 19.1044 360.574C19.1178 360.897 19.1368 361.227 19.0754 361.531C17.9746 367.124 13.8862 368.273 9.87265 367.885C8.7886 367.781 7.48238 367.402 6.65399 367.575C6.46531 368.053 6.2744 368.542 6.09131 369.042C6.89849 369.866 9.50981 369.904 10.5994 369.937C15.2806 370.102 19.6459 368.273 20.846 362.037Z" fill="white"/>
<path d="M11.8622 360.556C8.93603 361.795 7.1944 365.792 5.63363 370.312C3.50795 376.511 1.85787 382.137 0.584025 388.331C0.0403239 390.965 -0.471001 394.07 0.761537 395.334L11.8622 360.556Z" fill="#003294"/>
<path d="M22.8282 392.128C22.6853 392.271 22.5156 392.402 22.3146 392.513C21.868 392.772 21.3299 392.77 20.7237 392.493C18.5031 391.486 15.5323 386.835 15.0176 384.978C14.9663 384.797 15.0065 384.6 15.1203 384.461C15.2309 384.321 15.4106 384.253 15.5758 384.282C16.8653 384.491 22.4396 387.853 23.1932 390.35C23.3908 391.02 23.2613 391.653 22.8282 392.128ZM16.4377 385.767C17.4224 387.798 19.6218 390.803 21.1156 391.473C21.4248 391.61 21.6626 391.64 21.8312 391.547C21.9473 391.476 22.0388 391.401 22.1058 391.331C22.2242 391.203 22.3235 391.041 22.2141 390.682C21.724 389.064 18.2921 386.702 16.4377 385.767Z" fill="#003294"/>
<path d="M18.5589 394.941C18.2284 395.3 17.7617 395.452 17.1856 395.406C16.6821 395.368 16.2333 395.058 15.8448 394.475C14.4537 392.36 14.2215 386.727 14.6982 384.87C14.7463 384.684 14.8702 384.545 15.0455 384.49C15.204 384.43 15.3904 384.47 15.5244 384.595C16.4421 385.445 18.9831 390.36 19.0724 393.157C19.1003 393.955 18.9306 394.553 18.5589 394.941ZM15.5177 386.361C15.3636 388.649 15.7522 392.424 16.6833 393.848C16.8775 394.137 17.0684 394.296 17.2515 394.318C17.5284 394.33 17.7249 394.279 17.841 394.157C18.0029 393.997 18.0754 393.66 18.0587 393.191C17.9939 391.248 16.489 387.991 15.5177 386.361Z" fill="#003294"/>
<path d="M11.9563 392.468L15.6439 385.278L14.7474 384.748L11.0576 391.942L11.9563 392.468Z" fill="#003294"/>
<path fill-rule="evenodd" clip-rule="evenodd" d="M156.165 390.873C146.024 408.696 143.03 433.162 140.274 457.836C140.616 458.728 141.892 458.678 142.645 458.942C146.747 460.383 151.617 461.802 156.539 463.077C157.861 463.419 159.397 463.674 160.671 464.008C166.641 451.115 171.375 438.684 177.041 425.233C180.828 416.268 185.326 405.847 188.192 395.28C189.205 391.55 190.184 387.436 190.087 383.607C189.984 379.354 188.168 375.666 186.06 372.148C180.31 362.566 172.979 353.373 166.603 344.837C162.32 339.097 157.901 333.008 153.556 326.768C148.076 318.927 140.927 310.201 143.826 297.477C129.456 295.347 113.449 293.934 99.2273 292.411C98.7082 292.355 98.6322 292.06 97.8038 292.189C96.4552 292.405 96.779 293.113 96.3804 294.61C94.6979 301.014 93.5302 309.064 94.0035 317.077C94.574 326.535 99.6069 334.189 104.212 340.652C117.503 359.307 138.358 377.266 156.165 390.873Z" fill="#00B2FF"/>
<path fill-rule="evenodd" clip-rule="evenodd" d="M160.743 474.133C163.553 476.09 166.149 478.092 168.21 480.463C168.537 480.839 168.045 481.18 168.343 481.575C168.493 481.773 169.444 482.018 169.586 482.221C169.91 482.687 170.215 483.168 170.498 483.666C171.16 484.828 172.14 486.473 171.451 487.814C170.533 489.598 167.088 488.948 164.227 488.275C158.225 486.865 152.779 485.103 146.79 482.858C141.951 481.036 137.725 479.017 137.16 475.537C136.852 473.631 137.187 471.571 137.657 469.455C137.717 469.184 138.796 469.164 138.859 468.89C138.94 468.544 138.007 467.945 138.089 467.597C138.111 467.502 138.133 467.409 138.156 467.314C138.837 464.47 139.8 461.757 141.383 458.647C145.725 459.447 151.329 461.029 156.607 463.026C157.637 459.744 159.923 459.192 163.368 460.085C164.545 460.392 166.434 461.175 166.719 461.939C167.292 463.481 162.031 472.399 160.743 474.133Z" fill="#EFAD1B"/>
<path d="M153.977 475.984C155.969 479.906 161.403 482.855 166.98 482.576C167.703 482.538 168.716 482.468 169.586 482.222C169.158 481.615 168.689 481.036 168.199 480.472C167.903 480.557 167.612 480.63 167.321 480.654C165.694 480.8 163.691 480.645 161.499 479.836C153.75 476.99 154.201 470.135 156.608 463.095L156.606 463.026C156.022 462.805 155.433 462.592 154.838 462.382C154.676 462.874 154.531 463.352 154.41 463.752C152.908 468.465 152.225 472.521 153.977 475.984Z" fill="white"/>
<path d="M139.131 467.793C138.818 467.722 138.457 467.642 138.089 467.597C137.944 468.22 137.793 468.837 137.656 469.453C137.974 469.45 138.294 469.444 138.59 469.507C144.019 470.735 145.026 474.753 144.539 478.66C144.407 479.716 144.008 480.977 144.146 481.787C144.609 481.989 145.08 482.185 145.569 482.377C146.39 481.613 146.495 479.069 146.563 478.006C146.847 473.441 145.184 469.134 139.131 467.793Z" fill="white"/>
<path d="M137.442 476.524C138.572 479.409 142.425 481.215 146.79 482.859C152.779 485.104 158.224 486.865 164.227 488.275C166.789 488.877 169.801 489.457 171.068 488.294L137.442 476.524Z" fill="#003294"/>
<path d="M168.542 466.679C168.676 466.825 168.803 466.994 168.9 467.191C169.143 467.635 169.129 468.161 168.838 468.743C167.798 470.886 163.175 473.655 161.348 474.105C161.172 474.151 160.985 474.105 160.855 473.994C160.724 473.882 160.657 473.705 160.691 473.541C160.926 472.294 164.36 466.947 166.815 466.278C167.478 466.101 168.089 466.241 168.542 466.679ZM162.163 472.743C164.17 471.832 167.161 469.769 167.855 468.332C167.998 468.036 168.029 467.801 167.947 467.637C167.882 467.522 167.81 467.43 167.748 467.362C167.624 467.239 167.468 467.14 167.116 467.237C165.522 467.671 163.128 470.956 162.163 472.743Z" fill="#003294"/>
<path d="M171.165 470.919C171.505 471.253 171.644 471.711 171.585 472.274C171.534 472.764 171.219 473.192 170.643 473.552C168.541 474.859 163.037 474.926 161.241 474.414C161.058 474.366 160.924 474.235 160.879 474.064C160.825 473.906 160.865 473.728 160.991 473.598C161.848 472.728 166.711 470.382 169.443 470.371C170.219 470.366 170.803 470.55 171.165 470.919ZM162.714 473.656C164.938 473.869 168.636 473.594 170.049 472.722C170.343 472.539 170.498 472.357 170.526 472.181C170.545 471.909 170.499 471.715 170.386 471.599C170.235 471.44 169.909 471.359 169.453 471.364C167.55 471.37 164.332 472.747 162.714 473.656Z" fill="#003294"/>
<path d="M168.579 477.298L161.661 473.504L161.123 474.365L168.038 478.159L168.579 477.298Z" fill="#003294"/>
<path fill-rule="evenodd" clip-rule="evenodd" d="M14.4378 146.361C13.4766 146.088 10.489 144.64 8.87467 144.436C8.25059 144.352 7.4836 144.427 7.28711 144.921C6.8785 145.953 9.34357 146.898 10.1619 147.337C11.5619 148.103 12.493 148.712 13.7122 149.332C12.5767 149.16 9.6852 147.738 7.71805 147.392C6.89413 147.242 5.92507 147.221 5.70178 147.864C5.41151 148.673 7.34963 149.669 7.98711 150.02C11.0584 151.716 14.4736 153.634 16.6138 155.437C19.0799 157.515 20.912 159.614 22.5007 162.257C22.8859 162.897 23.4162 164.416 24.1642 164.655C24.5136 164.768 25.4559 164.525 25.793 164.384C26.9396 163.898 28.0884 162.954 29.5721 161.837C30.1315 161.409 30.7154 161.008 31.3484 160.38C31.8631 159.873 32.8366 159.095 32.9583 158.777C33.1548 158.272 32.6836 157.076 32.3989 156.372C31.565 154.313 30.1516 151.517 29.4036 149.834C28.765 148.373 28.0973 146.842 27.4922 145.43C26.9296 144.091 25.1131 139.689 23.1806 140.149C21.5819 140.533 23.894 144.597 23.9744 145.793C22.4504 144.292 19.5902 142.223 16.1873 140.809C15.2964 140.438 13.4665 139.573 12.963 140.233C12.2664 141.138 13.6954 141.876 14.2771 142.332C15.0898 142.963 15.6123 143.508 16.4083 143.936C15.0954 143.628 12.4361 142.262 10.8318 142.106C10.3037 142.055 9.64724 142.181 9.47531 142.551C9.08233 143.422 10.5817 143.992 11.486 144.536C12.7208 145.277 13.4677 145.84 14.334 146.335C14.3619 146.34 14.3921 146.352 14.4378 146.361Z" fill="#FCD2C0"/>
<path fill-rule="evenodd" clip-rule="evenodd" d="M195.427 148.775C195.214 150.577 194.679 153.633 194.48 155.824C194.418 156.577 194.323 157.848 194.657 158.279C194.867 158.559 196.035 159.055 196.681 159.409C197.435 159.833 198.086 160.065 198.726 160.319C200.945 158.712 203.545 157.572 206.325 157.011C207.052 154.876 208.023 152.929 209.379 150.9C210.906 148.619 213.624 145.904 216.074 143.489C216.585 142.985 218.157 141.537 217.64 140.834C217.234 140.273 216.302 140.545 215.554 140.888C213.765 141.73 211.412 143.837 210.373 144.29C211.358 143.386 212.071 142.557 213.197 141.465C213.843 140.832 215.942 139.293 215.24 138.413C214.904 137.988 214.147 138.112 213.571 138.347C212.128 138.937 209.824 140.949 208.906 141.544L208.887 141.561C208.86 141.582 208.826 141.596 208.796 141.615C208.826 141.596 208.876 141.558 208.906 141.544C209.579 140.848 210.133 140.127 211.094 139.105C211.8 138.352 213.078 137.426 212.437 136.688C212.168 136.372 211.498 136.42 211.011 136.603C209.506 137.162 207.361 139.158 206.176 139.787C206.814 139.171 207.167 138.518 207.754 137.701C208.179 137.109 209.339 136.038 208.4 135.35C207.714 134.839 206.212 136.14 205.466 136.719C202.616 138.946 200.476 141.664 199.461 143.501C199.179 142.334 200.193 137.833 198.551 137.874C196.552 137.92 196.105 142.618 195.959 144.047C195.804 145.555 195.613 147.205 195.427 148.775Z" fill="#FCD2C0"/>
<path fill-rule="evenodd" clip-rule="evenodd" d="M195.36 149.296C198.431 150.242 204.969 152.34 207.884 153.396C204.431 163.165 198.439 184.804 195.051 193.202C191.63 201.698 189.917 207.065 183.522 212.781C171.16 223.833 162.173 228.823 157.406 240.923C153.649 250.463 156.916 289.681 158.957 312.509C144.344 314.33 100.141 318.536 82.1763 316.351C82.7547 303.355 85.1159 254.342 80.7228 245.022C77.7888 238.807 65.009 226.687 61.4297 224.277C54.3292 219.501 47.3125 214.207 41.9268 207.715C36.261 200.89 23.1608 174.653 19.231 157.912C22.6606 155.613 26.7188 154.392 30.8452 152.925C38.8209 167.415 47.8584 185.108 61.3438 195.563C74.6427 205.867 87.4705 215.044 107.887 220.828C116.422 222.45 120.405 222.243 125.512 219.935C138.885 211.945 155.77 206.017 168.415 197.267C181.211 188.413 195.36 149.296 195.36 149.296Z" fill="#EFAD1B"/>
<path fill-rule="evenodd" clip-rule="evenodd" d="M124.033 213.747C130.205 213.116 133.909 210.413 133.295 203.499C133.079 200.995 132.245 197.484 131.744 194.157C130.824 188.072 129.55 183.759 126.092 180.754C123.796 178.763 120.585 177.712 117.839 177.195C115.042 176.675 110.776 177.51 108.655 178.344C103.041 180.558 98.3874 187.554 100.284 195.056C101.03 197.993 102.446 200.531 103.88 202.708C106.211 206.251 106.787 209.199 107.323 213.901C107.552 215.866 107.76 220.238 107.76 220.238C107.806 224.448 113.991 230.647 118.653 229.874C121.473 229.412 124.462 225.941 124.065 221.745L124.033 213.747Z" fill="#FCD2C0"/>
<path fill-rule="evenodd" clip-rule="evenodd" d="M110.627 204.266C110.862 207.032 109.728 209.218 106.573 209.681C101.567 210.421 90.8351 197.494 91.8231 189.161C92.1547 186.303 93.8986 184.03 96.8269 182.412C98.5094 177.802 99.8235 175.192 105.946 172.859C113.997 169.792 128.062 167.236 130.805 171.981C133.185 176.101 129.925 180.447 127.631 182.379C126.329 183.476 124.089 184.704 122.232 185.57C120.117 186.565 117.409 186.985 116.076 188.199C114.949 189.24 114.86 191.96 114.995 194.036C115.088 195.405 116.322 199.001 113.915 199.875C110.763 201.014 109.636 195.237 106.379 196.088C103.402 196.874 104.193 200.913 106.223 202.961C107.561 204.314 109.063 204.136 110.627 204.266Z" fill="#003294"/>
<path fill-rule="evenodd" clip-rule="evenodd" d="M122.387 191.159C123.227 190.006 124.143 189.391 125.011 189.094C127.08 189.077 127.551 189.534 127.551 189.534C127.551 189.534 127.77 190.063 126.868 191.155C126.598 191.285 126.295 191.408 125.955 191.514C124.297 192.032 122.387 191.159 122.387 191.159Z" fill="white"/>
<path fill-rule="evenodd" clip-rule="evenodd" d="M128.822 189.453C128.822 189.453 127.056 188.406 125.01 189.093C124.978 189.261 124.886 189.585 124.911 189.76C124.999 190.538 125.71 191.13 126.609 191.269C128.303 190.545 128.822 189.453 128.822 189.453Z" fill="#003294"/>
<path d="M121.328 189.973C122.954 187.21 126.525 186.732 127.91 186.94L128.098 185.838C125.92 185.509 122.053 186.412 120.271 189.442L121.328 189.973Z" fill="#003294"/>
<path fill-rule="evenodd" clip-rule="evenodd" d="M130.338 188.668C129.293 188.724 130.986 195.273 132.175 197.728C133.526 197.827 135.188 197.207 135.405 196.149C135.857 194.052 131.322 188.613 130.338 188.668Z" fill="#FCD2C0"/>
<path opacity="0.13" fill-rule="evenodd" clip-rule="evenodd" d="M130.338 188.668C129.293 188.724 130.986 195.273 132.175 197.728C133.526 197.827 135.188 197.207 135.405 196.149C135.857 194.052 131.322 188.613 130.338 188.668Z" fill="black"/>
<path opacity="0.13" d="M125.767 201.059L124.925 202.079C127.176 203.665 130.538 204.482 133.243 203.02C133.197 202.57 133.14 202.101 133.062 201.603C130.824 203.174 127.767 202.473 125.767 201.059Z" fill="black"/>
<path opacity="0.13" fill-rule="evenodd" clip-rule="evenodd" d="M124.033 213.748C124.033 213.748 117.856 213.508 113.604 211.434C113.604 211.434 116.181 218.866 124.149 218.941L124.033 213.748Z" fill="black"/>
<path fill-rule="evenodd" clip-rule="evenodd" d="M106.767 240.892C109.829 241.507 119.894 232.303 119.489 230.306C119.045 228.162 110.01 217.075 108.287 216.728C105.674 216.59 105.536 220.134 105.235 222.472C104.721 226.429 104.739 230.577 104.99 234.792C105.12 237.107 104.683 240.478 106.767 240.892Z" fill="white"/>
<path fill-rule="evenodd" clip-rule="evenodd" d="M118.777 230.416C119.248 233.453 127.616 238.711 129.47 237.79C131.422 236.815 127.188 219.294 124.399 218.968C121.848 220.067 118.365 227.781 118.777 230.416Z" fill="white"/>
<path opacity="0.19" d="M166.439 396.383C163.233 394.182 159.15 391.94 155.53 390.018C155.256 389.97 155.144 390.085 155.009 390.168C155.354 390.43 155.7 390.701 156.034 390.959C154.942 392.878 153.949 394.887 153 396.941C157.92 398.18 163.566 399.557 168.985 399.445C169.176 397.946 167.516 397.117 166.439 396.383Z" fill="black"/>
</svg>
