<svg width="224" height="239" viewBox="0 0 224 239" fill="none" xmlns="http://www.w3.org/2000/svg">
<path d="M208.922 133.058L208.647 135.134C208.249 138.126 205.5 140.23 202.507 139.833L48.3462 119.352C45.3544 118.954 43.2524 116.207 43.648 113.214L43.923 111.137L208.922 133.058Z" fill="#00B2FF"/>
<path d="M57.9762 5.36507C58.3755 2.37203 61.1224 0.268105 64.1155 0.664951L218.278 21.1464C221.271 21.5445 223.372 24.2926 222.976 27.2844L208.924 133.058L43.9246 111.137L57.9762 5.36507Z" fill="#00B2FF"/>
<path opacity="0.75" d="M204.665 132.472L218.199 30.5893C218.577 27.7525 216.583 25.1454 213.743 24.7687L67.5446 5.34529C64.7065 4.96854 62.0988 6.9646 61.7227 9.80084L48.1879 111.683L204.665 132.472Z" fill="white"/>
<g opacity="0.25">
<path opacity="0.25" fill-rule="evenodd" clip-rule="evenodd" d="M153.135 46.8207C153.074 48.76 152.763 50.8154 152.411 52.7384C155.748 53.1133 159.277 53.4958 162.381 54.0865C162.052 52.2882 161.864 50.2322 160.406 48.9104C160.304 48.8194 160.135 48.7548 160.021 48.6638C159.907 48.5754 159.857 48.4543 159.756 48.3922C159.361 48.1544 158.836 48.0578 158.408 47.7899C156.784 47.3976 155.066 47.0549 153.135 46.8207Z" fill="#00B2FF"/>
<path opacity="0.25" fill-rule="evenodd" clip-rule="evenodd" d="M137.919 45.4127C141.949 45.9859 145.974 46.5611 150.003 47.1331C149.944 48.496 149.719 49.9379 149.652 51.304C145.734 50.9509 141.47 50.2911 137.303 49.7128C137.622 48.2602 137.474 46.7593 137.919 45.4127Z" fill="#00B2FF"/>
<path opacity="0.25" fill-rule="evenodd" clip-rule="evenodd" d="M135.389 45.1654C135.318 46.5327 135.14 47.954 134.952 49.379C130.98 48.876 126.895 48.2726 123.005 47.8449C123.202 46.4839 123.396 45.1235 123.592 43.7618C127.65 44.3426 131.389 44.6373 135.389 45.1654Z" fill="#00B2FF"/>
<path opacity="0.25" fill-rule="evenodd" clip-rule="evenodd" d="M79.6289 37.5582C79.4455 39.0014 79.3505 40.6616 79.0788 41.9781C73.7143 41.061 69.4855 41.1682 64.3217 40.4336C64.3218 35.5501 74.7837 36.8638 79.6289 37.5582Z" fill="#00B2FF"/>
<path opacity="0.25" fill-rule="evenodd" clip-rule="evenodd" d="M82.1446 37.9171C84.0501 38.1883 86.0847 38.4784 88.0673 38.7591C90.0731 39.0454 92.0771 39.2175 93.7191 39.7309C93.4579 41.1577 93.4069 42.4818 93.206 43.8786C90.9242 43.6656 88.3226 43.0324 86.1512 42.8727C85.889 42.8533 85.6262 42.8394 85.4048 42.8783C84.4094 42.5143 82.8031 42.4445 81.5287 42.2154C81.5822 40.8712 81.9255 39.3898 81.9602 38.0563C82.0348 38.0225 82.0279 37.9152 82.1446 37.9171Z" fill="#00B2FF"/>
<path opacity="0.25" fill-rule="evenodd" clip-rule="evenodd" d="M121.152 43.4714C121.083 44.7703 120.845 46.1508 120.654 47.51C116.909 47.0459 113.376 46.7769 109.504 46.1999C109.535 44.869 109.858 43.3976 110.027 41.9976C113.694 42.4504 117.333 42.8793 121.152 43.4714Z" fill="#00B2FF"/>
<path opacity="0.25" fill-rule="evenodd" clip-rule="evenodd" d="M96.1579 40.0228C99.9694 40.5653 103.782 41.109 107.592 41.6515C107.592 43.0038 107.208 44.5392 107.056 45.9623C103.561 45.2167 99.3453 44.819 95.557 44.2132C95.8539 42.8045 95.7136 41.3349 96.1579 40.0228Z" fill="#00B2FF"/>
<path opacity="0.25" fill-rule="evenodd" clip-rule="evenodd" d="M162.581 55.2008C162.335 56.9049 162.094 58.6097 161.846 60.3151C158.293 59.8811 154.764 59.4723 151.192 59.0208C151.329 57.316 151.661 55.5191 151.771 53.8275C155.134 54.0676 159.079 54.8327 162.581 55.2008Z" fill="#00B2FF"/>
<path opacity="0.25" fill-rule="evenodd" clip-rule="evenodd" d="M149.259 53.4696C149.549 53.6778 149.306 54.125 149.281 54.4725C149.189 55.7232 148.929 57.3577 148.84 58.6855C144.957 58.4052 140.592 57.6939 136.475 57.2021C136.537 55.5018 137.007 53.6032 137.07 51.901C141.27 52.547 145.257 53.0017 149.259 53.4696Z" fill="#00B2FF"/>
<path opacity="0.25" fill-rule="evenodd" clip-rule="evenodd" d="M134.72 51.5655C134.545 53.3386 134.307 55.1418 134.028 56.9651C129.98 56.353 126.087 55.882 122.097 55.3219C122.258 53.5563 122.531 51.7368 122.701 49.9662C126.696 50.4905 130.765 51.0819 134.72 51.5655Z" fill="#00B2FF"/>
<path opacity="0.25" fill-rule="evenodd" clip-rule="evenodd" d="M120.335 49.7407C120.129 51.4943 119.89 53.2624 119.746 54.9879C117.042 54.6852 114.044 54.2325 111.142 53.8188C110.219 53.6869 109.296 53.4691 108.451 53.5455C108.695 51.8414 108.939 50.1366 109.186 48.4313C112.884 48.8508 116.43 49.1354 120.335 49.7407Z" fill="#00B2FF"/>
<path opacity="0.25" fill-rule="evenodd" clip-rule="evenodd" d="M81.3788 44.4152C85.1646 45.1082 89.0446 45.445 92.974 46.0672C92.6727 47.8315 92.6429 49.7382 92.2965 51.357C91.5651 51.4479 90.7842 51.2533 90.0078 51.1428C87.1696 50.7378 83.5481 50.3001 80.7414 49.9892C80.8633 48.2086 81.0931 46.3746 81.2728 44.567C81.2753 44.4886 81.2791 44.4121 81.3788 44.4152Z" fill="#00B2FF"/>
<path opacity="0.25" fill-rule="evenodd" clip-rule="evenodd" d="M95.4077 46.4132C99.2713 46.9469 103.069 47.5132 106.833 48.0965C106.588 49.8018 106.343 51.5053 106.098 53.2107C102.264 52.6689 98.6012 52.2813 94.7282 51.7037C94.9819 49.9613 94.9972 48.0633 95.4077 46.4132Z" fill="#00B2FF"/>
<path opacity="0.25" fill-rule="evenodd" clip-rule="evenodd" d="M78.936 44.1237C78.6472 46.0355 78.6262 47.8186 78.2922 49.7517C73.198 49.2027 68.3666 48.889 63.0485 48.1362C63.3116 46.222 63.6204 44.3473 64.0171 42.5541C69.3358 43.3878 73.5169 43.1971 78.936 44.1237Z" fill="#00B2FF"/>
<path opacity="0.25" fill-rule="evenodd" clip-rule="evenodd" d="M161.524 62.5462C161.286 64.2152 161.045 65.8855 160.807 67.5532C157.251 67.0904 153.963 66.4985 150.433 66.0206C150.678 64.3679 150.699 62.8206 150.967 61.1554C154.478 61.6106 157.934 62.0176 161.524 62.5462Z" fill="#00B2FF"/>
<path opacity="0.25" fill-rule="evenodd" clip-rule="evenodd" d="M148.593 60.9838C148.336 62.5574 148.282 64.0376 148.099 65.5775C143.849 65.0079 139.873 64.3105 135.617 63.7447C135.86 62.2602 135.882 60.8815 136.162 59.3787C140.223 59.8805 144.624 60.3603 148.593 60.9838Z" fill="#00B2FF"/>
<path opacity="0.25" fill-rule="evenodd" clip-rule="evenodd" d="M133.804 59.1002C133.575 60.559 133.386 62.0016 133.265 63.4103C129.383 62.9563 125.415 62.2444 121.418 61.7791C121.655 60.297 121.729 58.8945 121.874 57.4576C125.929 58.0779 129.765 58.4987 133.804 59.1002Z" fill="#00B2FF"/>
<path opacity="0.25" fill-rule="evenodd" clip-rule="evenodd" d="M119.522 57.1214C119.337 58.6116 119.288 60.0373 119.052 61.5539C115.134 60.9568 111.445 60.5624 107.53 59.9666C107.734 58.534 107.939 57.1015 108.147 55.6683C111.982 56.192 115.915 56.8035 119.522 57.1214Z" fill="#00B2FF"/>
<path opacity="0.25" fill-rule="evenodd" clip-rule="evenodd" d="M105.794 55.333C105.585 56.7843 105.378 58.2344 105.167 59.687C101.346 59.1972 97.5932 58.7677 93.929 58.4203C94.2178 56.8629 94.2494 55.4297 94.4986 53.8912C98.4017 54.4983 101.934 54.7673 105.794 55.333Z" fill="#00B2FF"/>
<path opacity="0.25" fill-rule="evenodd" clip-rule="evenodd" d="M92.1375 53.6119C91.85 55.168 91.8116 56.6043 91.5724 58.1397C90.4973 58.0536 89.3903 57.8189 88.3172 57.7315C88.1077 57.7145 87.9302 57.7672 87.7357 57.759C86.6199 57.7206 85.39 57.4501 84.2416 57.3182C82.703 57.1417 81.1695 56.8894 79.8391 56.8578C80.1812 55.2578 80.1187 53.5831 80.5179 52.1236C84.4417 52.6643 88.2463 53.1007 92.1375 53.6119Z" fill="#00B2FF"/>
<path opacity="0.25" fill-rule="evenodd" clip-rule="evenodd" d="M78.0612 51.9395C77.7737 53.5144 77.7597 54.9564 77.4847 56.5238C72.3918 55.9316 67.2116 55.2641 62.0384 54.6016C62.2481 53.1496 62.456 51.6982 62.6657 50.2481C67.8088 51.0668 72.8917 51.3027 78.0612 51.9395Z" fill="#00B2FF"/>
<path opacity="0.25" fill-rule="evenodd" clip-rule="evenodd" d="M147.859 67.821C147.584 69.5735 147.514 71.2274 147.198 73.0012C142.931 72.399 138.978 72.0754 134.679 71.4407C134.768 69.6757 135.214 67.7383 135.297 65.9764C139.291 66.3772 143.663 67.2057 147.859 67.821Z" fill="#00B2FF"/>
<path opacity="0.25" fill-rule="evenodd" clip-rule="evenodd" d="M121.267 63.9797C125.159 64.5334 129.052 65.0885 132.947 65.641C132.787 67.4411 132.513 69.2933 132.238 71.1492C128.285 70.623 124.111 69.8954 120.381 69.5725C120.644 67.7579 120.904 65.9434 121.163 64.1302C121.168 64.0524 121.171 63.974 121.267 63.9797Z" fill="#00B2FF"/>
<path opacity="0.25" fill-rule="evenodd" clip-rule="evenodd" d="M118.826 63.6863C118.562 65.5366 118.295 67.3868 118.031 69.2371C114.397 68.8991 110.174 68.0235 106.651 67.7846C106.886 65.9294 107.026 63.8589 107.384 62.1122C111.28 62.7105 114.954 63.1087 118.826 63.6863Z" fill="#00B2FF"/>
<path opacity="0.25" fill-rule="evenodd" clip-rule="evenodd" d="M160.582 69.6871C160.301 71.3429 160.24 73.1606 159.951 74.6502C156.344 74.0651 153.051 73.7642 149.557 73.2814C149.881 71.5722 149.947 69.715 150.291 68.1671C153.73 68.67 157.068 69.2206 160.582 69.6871Z" fill="#00B2FF"/>
<path opacity="0.25" fill-rule="evenodd" clip-rule="evenodd" d="M104.936 61.8762C104.762 63.7171 104.432 65.6319 104.302 67.4502C100.415 66.882 96.5793 66.3577 92.8493 65.9313C93.108 64.1343 93.3667 62.3393 93.6241 60.5436C97.4024 60.9938 101.004 61.2867 104.936 61.8762Z" fill="#00B2FF"/>
<path opacity="0.25" fill-rule="evenodd" clip-rule="evenodd" d="M91.185 60.2508C91.1258 61.9832 90.6896 63.8987 90.4855 65.7044C86.5428 65.2083 82.7011 64.8032 78.84 64.3793C79.0975 62.5829 79.3549 60.7879 79.6136 58.9928C83.5587 59.4908 87.406 59.9028 91.185 60.2508Z" fill="#00B2FF"/>
<path opacity="0.25" fill-rule="evenodd" clip-rule="evenodd" d="M77.1814 58.6461C77.1209 60.396 76.6803 62.3303 76.4725 64.153C71.1199 63.4321 65.7484 62.6931 60.7677 62.306C60.9988 60.4024 61.4325 58.6851 61.6448 56.7665C66.6311 57.2194 72.2402 58.2326 77.1814 58.6461Z" fill="#00B2FF"/>
<path opacity="0.25" fill-rule="evenodd" clip-rule="evenodd" d="M159.803 76.8501C159.521 78.7581 159.429 80.5764 159.159 82.4793C155.563 82.009 151.987 81.5544 148.431 81.1179C148.703 79.2306 148.973 77.3453 149.244 75.4586C152.668 75.8367 156.221 76.3321 159.803 76.8501Z" fill="#00B2FF"/>
<path opacity="0.25" fill-rule="evenodd" clip-rule="evenodd" d="M146.812 75.112C146.795 77.005 146.184 78.8897 145.991 80.8265C141.799 80.2627 137.785 79.6154 133.671 79.0158C133.987 77.1913 134.104 75.4652 134.357 73.672C138.276 73.9416 142.839 74.7953 146.812 75.112Z" fill="#00B2FF"/>
<path opacity="0.25" fill-rule="evenodd" clip-rule="evenodd" d="M132.004 73.337C131.688 75.1778 131.638 76.8914 131.311 78.7366C127.307 78.1841 123.195 77.5337 119.301 77.0828C119.339 75.3328 119.805 73.4393 120.076 71.6957C123.954 72.1547 128.021 72.7807 132.004 73.337Z" fill="#00B2FF"/>
<path opacity="0.25" fill-rule="evenodd" clip-rule="evenodd" d="M117.628 71.4576C117.377 73.2163 117.122 74.9763 116.869 76.7362C113.293 76.4252 109.247 75.692 105.647 75.3603C105.966 73.4994 106.02 71.7702 106.348 69.9061C110.019 70.3451 113.851 70.9252 117.628 71.4576Z" fill="#00B2FF"/>
<path opacity="0.25" fill-rule="evenodd" clip-rule="evenodd" d="M103.997 69.5715C103.679 71.4625 103.512 73.282 103.278 75.1342C99.2615 74.5879 95.4211 74.2035 91.6271 73.863C91.882 71.8992 92.3169 70.0985 92.5374 68.1058C96.2009 68.4557 100.095 69.0102 103.997 69.5715Z" fill="#00B2FF"/>
<path opacity="0.25" fill-rule="evenodd" clip-rule="evenodd" d="M90.1773 67.8262C89.8873 69.7549 89.5 71.6013 89.2676 73.5827C88.0264 73.4715 86.7795 73.2079 85.5326 73.1067C85.3206 73.0904 85.1581 73.143 84.9461 73.1367C83.9576 73.1002 82.8117 72.868 81.7775 72.7392C80.3524 72.5615 78.9312 72.3499 77.6993 72.3253C77.9072 70.5835 78.2839 68.4705 78.53 66.5575C82.2782 66.8597 86.362 67.4619 90.1773 67.8262Z" fill="#00B2FF"/>
<path opacity="0.25" fill-rule="evenodd" clip-rule="evenodd" d="M76.1681 66.2764C75.8987 68.207 75.6275 70.1325 75.2666 71.979C70.0469 71.3824 64.8418 70.4953 59.7902 69.6654C59.8645 67.9914 60.2474 66.1687 60.4621 64.4276C65.5746 64.9333 70.8117 65.55 76.1681 66.2764Z" fill="#00B2FF"/>
<path opacity="0.25" fill-rule="evenodd" clip-rule="evenodd" d="M158.936 84.614C158.739 86.5138 158.458 88.4563 158.277 90.3499C154.705 89.9617 150.729 89.3289 147.166 88.7676C147.411 86.8985 147.828 85.185 148.038 83.2833C151.524 83.5949 155.509 84.3545 158.936 84.614Z" fill="#00B2FF"/>
<path opacity="0.25" fill-rule="evenodd" clip-rule="evenodd" d="M131.007 80.859C130.744 82.6911 130.481 84.5219 130.216 86.3559C126.122 85.7977 122.147 85.1824 118.144 84.5809C118.399 82.8028 118.655 81.0265 118.91 79.2484C122.802 79.6598 126.916 80.2701 131.007 80.859Z" fill="#00B2FF"/>
<path opacity="0.25" fill-rule="evenodd" clip-rule="evenodd" d="M133.442 81.2048C137.523 81.785 141.605 82.367 145.685 82.9484C145.47 84.8432 145.03 86.5366 144.814 88.4333C140.732 87.8519 136.65 87.2705 132.569 86.6891C132.825 84.9122 133.08 83.1341 133.335 81.3572C133.339 81.2782 133.345 81.2017 133.442 81.2048Z" fill="#00B2FF"/>
<path opacity="0.25" fill-rule="evenodd" clip-rule="evenodd" d="M102.974 77.2572C102.8 78.9437 102.604 80.6428 102.413 82.3401C98.4621 81.7781 94.5164 81.2168 90.5706 80.6549C90.7389 79.0266 91.1274 77.5929 91.3246 75.986C95.1857 76.3898 99.0807 76.8251 102.974 77.2572Z" fill="#00B2FF"/>
<path opacity="0.25" fill-rule="evenodd" clip-rule="evenodd" d="M88.9636 75.7053C88.6504 77.1849 88.435 78.7554 88.2191 80.3197C84.4401 79.9102 80.3514 79.219 76.452 78.7004C76.7407 77.3011 77.0445 75.915 77.2323 74.4235C81.1285 74.8374 85.0944 75.3165 88.9636 75.7053Z" fill="#00B2FF"/>
<path opacity="0.25" fill-rule="evenodd" clip-rule="evenodd" d="M74.8792 74.0893C74.689 75.577 74.3588 76.94 74.0977 78.365C68.7783 77.6717 63.6678 77.1686 58.8332 76.9126C59.1778 75.2097 59.1731 73.4071 59.5616 71.8529C64.5435 72.6383 69.8195 73.5046 74.8792 74.0893Z" fill="#00B2FF"/>
<path opacity="0.25" fill-rule="evenodd" clip-rule="evenodd" d="M90.3461 82.788C94.2931 83.3512 98.237 83.9131 102.184 84.4732C102.125 86.0606 101.869 88.1693 101.728 89.9619C97.6498 89.361 93.4293 88.8323 89.4904 88.1644C89.7409 86.4226 89.9896 84.6821 90.2407 82.9403C90.2445 82.8619 90.2502 82.7829 90.3461 82.788Z" fill="#00B2FF"/>
<path opacity="0.25" fill-rule="evenodd" clip-rule="evenodd" d="M104.701 84.8336C108.294 85.344 111.89 85.8558 115.488 86.3687C115.342 88.1268 115.054 89.9526 114.795 91.7677C111.235 91.2893 107.71 90.8403 104.083 90.2985C104.365 88.4727 104.256 86.5665 104.701 84.8336Z" fill="#00B2FF"/>
<path opacity="0.25" fill-rule="evenodd" clip-rule="evenodd" d="M118 86.7254C121.81 87.3707 125.887 87.8869 129.833 88.4664C129.634 90.2941 129.223 91.9336 128.993 93.7337C124.999 93.151 121.174 92.7189 117.145 92.1024C117.396 90.3606 117.644 88.6189 117.894 86.8796C117.899 86.7994 117.904 86.7216 118 86.7254Z" fill="#00B2FF"/>
<path opacity="0.25" fill-rule="evenodd" clip-rule="evenodd" d="M73.6314 80.4651C73.347 82.2558 72.9855 83.9787 72.6302 85.7085C67.7305 84.846 63.0189 84.2789 58.0345 83.6303C58.374 82.0999 58.2457 80.5218 58.6831 79.1138C59.5675 78.9659 61.0834 79.3895 61.9741 79.2485C63.1181 79.3572 64.3531 79.5455 65.3303 79.5036C68.1314 79.8559 70.9438 80.2151 73.6314 80.4651Z" fill="#00B2FF"/>
<path opacity="0.25" fill-rule="evenodd" clip-rule="evenodd" d="M76.1484 80.8229C80.0678 81.3805 83.9878 81.938 87.9047 82.4975C87.6505 84.275 87.3955 86.0518 87.1394 87.83C83.2639 87.1495 79.0051 86.6534 74.9841 86.045C75.4548 84.3767 75.5429 82.3683 76.1484 80.8229Z" fill="#00B2FF"/>
<path opacity="0.25" fill-rule="evenodd" clip-rule="evenodd" d="M132.264 88.8119C136.294 89.3864 140.32 89.9597 144.348 90.5335C144.218 92.037 143.819 93.8226 143.638 95.4853C139.543 94.9754 135.514 94.5213 131.36 93.9594C131.702 92.281 131.873 90.447 132.264 88.8119Z" fill="#00B2FF"/>
<path opacity="0.25" fill-rule="evenodd" clip-rule="evenodd" d="M157.955 92.5807C157.727 94.0929 157.677 95.518 157.398 97.0552C153.633 96.6602 149.925 96.3103 145.997 95.7646C146.238 94.0988 146.439 92.3934 146.862 90.8912C150.219 91.6174 154.306 91.995 157.955 92.5807Z" fill="#00B2FF"/>
<path opacity="0.25" fill-rule="evenodd" clip-rule="evenodd" d="M157.003 99.2204C157.226 99.3866 157.167 99.6532 157.16 99.8539C157.105 101.399 156.612 103.211 156.628 104.72C152.779 104.146 148.892 103.588 145.127 102.971C145.364 101.304 145.412 99.4589 145.77 97.899C149.661 98.4704 153.281 98.8002 157.003 99.2204Z" fill="#00B2FF"/>
<path opacity="0.25" fill-rule="evenodd" clip-rule="evenodd" d="M159.657 99.7638C159.289 99.5758 159.919 99.5172 159.657 99.7638V99.7638Z" fill="#00B2FF"/>
<path opacity="0.25" fill-rule="evenodd" clip-rule="evenodd" d="M143.323 97.6627C143.111 99.3004 142.937 100.92 142.79 102.529C138.572 101.878 134.238 101.282 130.25 100.52C130.473 99.0206 130.716 97.5379 131.046 96.1349C135.11 96.6191 139.174 97.1026 143.323 97.6627Z" fill="#00B2FF"/>
<path opacity="0.25" fill-rule="evenodd" clip-rule="evenodd" d="M72.3193 87.8861C71.9283 89.2961 71.8415 90.9814 71.5735 92.4992C66.976 91.9999 62.2676 91.0728 57.6175 90.5685C57.6804 88.9854 57.6631 87.4399 57.8891 85.7759C62.782 86.4873 67.6165 87.0218 72.3193 87.8861Z" fill="#00B2FF"/>
<path opacity="0.25" fill-rule="evenodd" clip-rule="evenodd" d="M86.9165 89.9621C86.6729 91.4987 86.4871 93.0053 86.347 94.4924C82.1127 93.8545 78.2259 93.5316 73.9251 92.8335C74.148 91.273 74.3508 89.6924 74.6678 88.2191C78.7189 88.6487 82.8165 89.4007 86.9165 89.9621Z" fill="#00B2FF"/>
<path opacity="0.25" fill-rule="evenodd" clip-rule="evenodd" d="M128.607 95.8436C128.381 97.3219 128.14 98.782 127.82 100.174C124.086 99.5598 120.169 99.0349 116.311 98.4805C116.637 97.0386 116.499 95.5558 116.92 94.2362C120.882 94.8314 124.712 95.3067 128.607 95.8436Z" fill="#00B2FF"/>
<path opacity="0.25" fill-rule="evenodd" clip-rule="evenodd" d="M89.3489 90.3099C93.1014 91.0838 97.5371 91.5279 101.577 92.162C101.347 93.6403 101.389 94.9895 101.124 96.4854C96.9117 95.8695 92.8825 95.4148 88.699 94.8264C88.9972 93.3155 88.8877 91.7311 89.3489 90.3099Z" fill="#00B2FF"/>
<path opacity="0.25" fill-rule="evenodd" clip-rule="evenodd" d="M114.487 93.8899C114.29 95.318 114.032 96.7763 113.959 98.1442C110.437 97.6375 107.056 97.2582 103.491 96.7095C103.75 95.25 103.731 93.9259 103.93 92.4971C107.465 92.9756 111.171 93.6065 114.487 93.8899Z" fill="#00B2FF"/>
<path opacity="0.25" fill-rule="evenodd" clip-rule="evenodd" d="M113.654 100.268C113.276 103.202 112.872 106.149 112.559 109.052C109.025 108.536 105.791 108.287 102.306 107.816C102.455 104.942 102.82 101.964 103.25 98.9533C106.646 99.3263 110.32 99.9497 113.654 100.268Z" fill="#00B2FF"/>
<path opacity="0.25" fill-rule="evenodd" clip-rule="evenodd" d="M116.086 100.614C119.951 101.147 123.783 101.698 127.425 102.34C126.989 105.207 126.444 107.973 126.034 110.862C122.26 110.31 118.772 110.018 114.909 109.387C115.236 106.602 115.641 103.684 115.982 100.766C115.988 100.688 115.991 100.611 116.086 100.614Z" fill="#00B2FF"/>
<path opacity="0.25" fill-rule="evenodd" clip-rule="evenodd" d="M129.937 102.698C134.153 103.384 138.42 104.044 142.55 104.771C142.289 107.499 141.993 110.239 141.791 112.936C137.493 112.489 132.896 111.774 128.396 111.141C128.909 108.408 129.222 105.494 129.834 102.849C129.839 102.772 129.843 102.694 129.937 102.698Z" fill="#00B2FF"/>
<path opacity="0.25" fill-rule="evenodd" clip-rule="evenodd" d="M100.899 98.6189C100.396 101.663 100.194 104.563 99.8693 107.524C95.3672 106.77 91.5625 106.642 87.1808 105.994C87.5613 103.007 87.913 100.034 88.3864 97.0038C92.6081 97.5884 96.6141 97.9766 100.899 98.6189Z" fill="#00B2FF"/>
<path opacity="0.25" fill-rule="evenodd" clip-rule="evenodd" d="M86.0348 96.6689C85.5884 99.6877 85.1602 102.695 84.8261 105.659C80.5811 105.021 76.0119 104.54 72.3767 103.61C72.86 100.768 73.3001 97.8876 73.7001 94.968C77.8867 95.6002 81.9059 96.0863 86.0348 96.6689Z" fill="#00B2FF"/>
<path opacity="0.25" fill-rule="evenodd" clip-rule="evenodd" d="M71.2612 94.6753C71.131 97.2619 70.3961 100.318 70.0469 103.111C68.0443 102.769 66.2355 102.203 64.7152 101.631C63.1635 101.044 61.8565 100.375 60.8875 99.4745C58.9698 97.6891 58.1635 95.4919 57.8628 92.8801C57.7631 92.8518 57.7807 92.7019 57.8873 92.7158C62.4345 93.3255 66.7115 94.0656 71.2612 94.6753Z" fill="#00B2FF"/>
<path opacity="0.25" fill-rule="evenodd" clip-rule="evenodd" d="M145.064 105.129C148.86 105.714 152.501 106.372 156.396 106.909C156.127 109.487 153.81 114.856 144.142 113.272C144.359 110.618 144.665 107.923 144.88 105.27C144.888 105.175 144.959 105.137 145.064 105.129Z" fill="#00B2FF"/>
<path opacity="0.25" fill-rule="evenodd" clip-rule="evenodd" d="M116.558 78.9124C116.301 80.6899 116.047 82.4674 115.792 84.2449C111.909 83.7877 108.453 82.9906 104.844 82.6859C104.83 81.0558 105.265 79.208 105.335 77.5352C108.815 77.7615 112.905 78.5349 116.558 78.9124Z" fill="#00B2FF"/>
</g>
<path d="M17.6904 196.405C13.3092 200.058 9.35191 203.975 5.62708 207.747C5.33485 208.042 4.8594 208.291 4.78369 208.753C5.71641 210.467 6.6022 212.287 7.59094 213.867C13.88 211.026 19.9525 208.29 25.854 205.412C23.0535 202.474 20.2864 199.513 17.6904 196.405Z" fill="#FCD2C0"/>
<path fill-rule="evenodd" clip-rule="evenodd" d="M10.2261 216.926C10.8567 219.1 11.3004 221.188 10.9559 223.304C10.8537 223.939 10.7265 224.847 10.0815 225.179C9.22373 225.627 8.17063 224.433 7.33178 223.392C5.57612 221.203 4.12404 219.03 2.61366 216.521C1.39552 214.491 0.462042 212.553 1.28196 211.043C1.88232 209.935 2.97025 209.034 4.05741 208.108C5.13852 207.185 6.2855 206.388 7.77089 205.61C9.10562 207.105 10.6735 209.252 11.9924 211.468C13.3309 210.471 14.3211 210.879 15.3076 212.169C15.6438 212.609 16.0965 213.429 15.9761 213.805C15.7286 214.565 11.2035 216.602 10.2261 216.926Z" fill="#00B2FF"/>
<path d="M15.2331 216.149C15.2444 216.244 15.2361 216.414 15.2149 216.517C15.1702 216.756 15.012 216.885 14.7432 217.034C13.7333 217.587 11.2448 217.405 10.4544 217.083C10.3764 217.053 10.3227 216.984 10.306 216.903C10.2909 216.822 10.3227 216.738 10.3817 216.682C10.8337 216.26 13.6493 215.111 14.7334 215.523C15.0279 215.634 15.2028 215.859 15.2331 216.149ZM11.1501 216.775C12.1404 216.966 13.8332 216.978 14.5085 216.611C14.6471 216.53 14.7281 216.452 14.7425 216.361C14.7508 216.299 14.7576 216.249 14.7523 216.199C14.7425 216.121 14.7145 216.037 14.5578 215.98C13.8552 215.715 12.0284 216.341 11.1501 216.775Z" fill="#003294"/>
<path d="M14.9462 218.522C14.9659 218.743 14.8864 218.957 14.6986 219.164C14.5374 219.34 14.2928 219.421 13.9809 219.401C12.837 219.335 10.8239 217.864 10.3257 217.171C10.2742 217.104 10.2652 217.017 10.2962 216.938C10.3257 216.861 10.3954 216.803 10.4764 216.788C11.0389 216.681 13.4896 217.095 14.4813 217.834C14.766 218.048 14.9197 218.276 14.9462 218.522ZM11.0813 217.279C11.824 217.97 13.2428 218.873 14.0104 218.918C14.1687 218.929 14.2792 218.901 14.3435 218.837C14.4276 218.737 14.4624 218.621 14.4541 218.544C14.4458 218.441 14.3587 218.347 14.1914 218.223C13.5017 217.711 11.9322 217.369 11.0813 217.279Z" fill="#003294"/>
<path d="M12.1336 220.3L10.7459 216.934L10.2939 217.122L11.6885 220.486L12.1336 220.3Z" fill="#003294"/>
<path d="M7.23664 215.804C6.80132 217.876 7.90287 220.506 10.006 221.923C10.2786 222.105 10.6624 222.352 11.0508 222.494C11.0758 222.142 11.0758 221.788 11.0637 221.433C10.9319 221.386 10.8048 221.334 10.6927 221.265C10.0621 220.879 9.3822 220.27 8.8265 219.36C6.80813 216.054 9.14675 213.46 12.1963 211.343C12.1304 211.387 12.0638 211.418 11.9934 211.471C11.848 211.225 11.7011 210.981 11.5474 210.738C11.343 210.886 11.1515 211.031 10.9865 211.152C9.05817 212.583 7.62275 213.974 7.23664 215.804Z" fill="white"/>
<path d="M3.95533 214.572C5.40286 212.868 6.06455 210.733 4.27027 208.561C4.17791 208.448 4.0704 208.316 3.95154 208.199C3.7123 208.401 3.47912 208.602 3.24821 208.805C3.36405 208.89 3.48291 208.975 3.56997 209.08C5.17271 211.042 4.35734 212.882 3.03169 214.274C2.67359 214.648 2.15348 215.031 1.96875 215.384C2.07928 215.588 2.19133 215.796 2.31019 216C2.83485 215.93 3.61918 214.965 3.95533 214.572Z" fill="white"/>
<path d="M1.09406 211.502C0.655714 212.935 1.51803 214.69 2.61352 216.522C4.1239 219.031 5.57598 221.204 7.33164 223.392C8.08267 224.323 9.00479 225.373 9.80351 225.266L1.09406 211.502Z" fill="#003294"/>
<path d="M56.7709 210.047C55.3431 215.571 54.4179 221.061 53.5972 226.298C53.5314 226.709 53.2921 227.188 53.5018 227.61C55.256 228.456 57.0382 229.415 58.7658 230.12C62.2098 224.144 65.5447 218.376 68.6556 212.594C64.6657 211.841 60.6888 211.056 56.7709 210.047Z" fill="#FCD2C0"/>
<path fill-rule="evenodd" clip-rule="evenodd" d="M62.6909 231.065C64.4731 232.461 66.0508 233.896 67.0063 235.818C67.2917 236.393 67.7225 237.203 67.3939 237.849C66.9548 238.712 65.405 238.359 64.1135 238.004C61.4122 237.252 58.9646 236.337 56.2747 235.182C54.0981 234.245 52.2099 233.214 51.9941 231.51C51.8359 230.262 52.194 228.895 52.5339 227.509C52.8754 226.126 53.341 224.811 54.0897 223.311C56.0468 223.746 58.5716 224.572 60.9398 225.602C61.4432 224.011 62.4812 223.765 64.037 224.237C64.57 224.397 65.4119 224.799 65.5353 225.174C65.7798 225.934 63.2928 230.232 62.6909 231.065Z" fill="#00B2FF"/>
<path d="M66.3014 227.509C66.3673 227.581 66.4597 227.722 66.5028 227.818C66.6065 228.039 66.5505 228.237 66.4218 228.517C65.9221 229.554 63.7978 230.86 62.968 231.059C62.887 231.078 62.8045 231.056 62.7416 230.997C62.6841 230.943 62.6576 230.856 62.6735 230.776C62.7939 230.17 64.4095 227.595 65.53 227.294C65.8298 227.213 66.1069 227.293 66.3014 227.509ZM63.3526 230.402C64.2702 229.979 65.6465 229 65.9812 228.308C66.0486 228.162 66.0637 228.052 66.0274 227.968C65.9978 227.914 65.9728 227.869 65.9418 227.833C65.8888 227.774 65.8146 227.724 65.6549 227.767C64.9303 227.962 63.8099 229.539 63.3526 230.402Z" fill="#003294"/>
<path d="M67.4538 229.605C67.5992 229.772 67.6597 229.993 67.6287 230.27C67.5969 230.509 67.4508 230.716 67.185 230.883C66.2183 231.497 63.7244 231.478 62.9128 231.206C62.8371 231.181 62.7743 231.116 62.7546 231.033C62.7311 230.953 62.7546 230.867 62.8122 230.807C63.2081 230.392 65.4377 229.298 66.6755 229.316C67.0291 229.324 67.2888 229.421 67.4538 229.605ZM63.5919 230.853C64.5966 230.979 66.2788 230.886 66.9269 230.474C67.0609 230.389 67.1328 230.301 67.1479 230.214C67.1593 230.084 67.1199 229.968 67.0685 229.912C67.0011 229.832 66.8739 229.807 66.6695 229.804C65.8079 229.79 64.3346 230.428 63.5919 230.853Z" fill="#003294"/>
<path d="M66.2089 232.691L63.1147 230.768L62.8604 231.184L65.9568 233.103L66.2089 232.691Z" fill="#003294"/>
<path d="M59.6066 231.899C60.4629 233.835 62.8938 235.327 65.4301 235.25C65.7564 235.239 66.2121 235.214 66.6096 235.103C66.4234 234.802 66.2167 234.516 66.0009 234.234C65.8692 234.273 65.7321 234.306 65.5981 234.315C64.8623 234.37 63.956 234.272 62.9726 233.858C59.4045 232.351 59.7891 228.882 61.0284 225.38C60.9989 225.458 60.9641 225.52 60.9391 225.602C60.6748 225.489 60.4144 225.378 60.1487 225.27C60.0692 225.507 59.9965 225.739 59.9337 225.934C59.2054 228.22 58.8526 230.188 59.6066 231.899Z" fill="white"/>
<path d="M56.2255 232.814C56.4042 230.586 55.6994 228.466 52.9708 227.752C52.8293 227.714 52.6673 227.672 52.5022 227.643C52.4265 227.945 52.3538 228.247 52.2842 228.545C52.4258 228.548 52.5734 228.546 52.7051 228.582C55.1528 229.237 55.5654 231.208 55.3027 233.111C55.2315 233.625 55.0339 234.235 55.0884 234.633C55.2958 234.736 55.5093 234.837 55.7236 234.935C56.1082 234.572 56.1824 233.33 56.2255 232.814Z" fill="white"/>
<path d="M52.1089 231.994C52.5904 233.414 54.315 234.335 56.2743 235.181C58.9642 236.338 61.4119 237.252 64.1131 238.004C65.2684 238.323 66.6297 238.636 67.2187 238.082L52.1089 231.994Z" fill="#003294"/>
<path fill-rule="evenodd" clip-rule="evenodd" d="M69.3912 221.831C62.2906 221.261 56.2619 219.799 51.004 217.698C53.6182 207.295 60.5288 192.924 61.5032 189.801C63.8766 182.2 62.9886 174.351 61.7091 167.972C60.3759 161.313 58.6119 155.228 57.9381 148.3C57.3839 149.163 53.8688 165.504 52.2963 172.503C51.3508 176.701 50.4975 180.779 49.0417 184.156C47.6509 187.379 45.4145 189.995 43.2492 192.622C34.5989 203.11 30.6363 204.449 21.3288 213.821C16.2609 209.637 11.9077 204.86 7.83154 199.856C10.1399 197.101 25.012 185.542 29.1804 182.072C30.4099 181.054 32.532 179.753 33.0998 178.58C33.4428 177.872 33.6495 176.65 33.8917 175.567C35.0039 170.608 36.2629 165.669 37.3259 160.587C37.765 158.477 38.2798 156.314 38.3048 154.122C38.3297 151.874 37.8626 149.606 38.0686 146.903C38.6659 139.068 41.3838 133.299 45.7211 129.358C53.5576 129.562 61.1443 129.942 68.4335 129.773C68.6599 129.769 68.7136 129.673 68.9521 129.693C69.8545 129.767 69.9204 130.802 70.3974 132.141C72.7572 138.696 74.4667 145.762 76.485 152.621C78.8729 160.74 80.9488 168.395 79.982 178.904C79.0417 189.173 76.4903 198.292 74.185 207.033C71.8139 216.02 71.804 213.494 69.3912 221.831Z" fill="#003294"/>
<path fill-rule="evenodd" clip-rule="evenodd" d="M33.5787 80.4581C33.8293 79.3369 34.4267 78.1316 34.466 77.2292C34.5205 75.9066 33.6029 74.6104 33.0949 73.328C32.8277 72.6534 32.6263 71.9531 32.5635 71.2437C34.0814 69.4191 35.6645 67.6536 37.4368 66.0963C40.082 63.7721 43.4995 62.3056 46.0478 59.908C48.0458 60.1972 49.9142 60.8869 52.0431 60.6469C53.2711 60.5113 54.4923 59.9519 55.3417 60.4743C56.5251 61.198 56.2934 62.9234 55.5068 64.053C55.023 64.7517 54.2939 65.1129 53.8798 65.661C56.4213 66.2697 57.7742 69.2223 55.7566 71.1498C54.7103 72.1424 53.2416 71.6525 52.1787 70.816C48.6749 74.2311 45.1779 77.7251 41.6749 81.0948C41.7241 81.9988 42.0641 82.6544 41.5212 83.5326C40.5128 85.1785 38.2688 85.0634 37.2422 83.2608C36.7887 83.8892 36.3299 84.5085 35.8447 84.7424C33.3743 84.9393 33.2153 82.0775 33.5787 80.4581Z" fill="#003294"/>
<path d="M45.7165 83.4267C45.7165 83.4267 43.3498 83.0739 41.012 81.0207C39.3154 78.1408 35.5178 73.7747 36.5051 71.0265C37.9617 66.983 42.9933 64.2681 46.5682 64.5982C49.6374 64.8843 54.2715 67.3517 57.4997 70.972C60.7604 74.6333 61.9006 79.0046 56.2815 81.3804C57.1877 83.1724 58.7223 86.097 59.0244 86.7602C59.9238 88.6998 60.3644 92.4466 50.0409 91.9355C50.187 92.1089 46.4826 84.3966 45.7165 83.4267Z" fill="#FCD2C0"/>
<path opacity="0.13" d="M50.7247 74.6796C51.5567 74.881 52.0685 75.7221 51.8702 76.5564C51.6642 77.3884 50.8269 77.8979 49.9941 77.6935C49.1576 77.4921 48.6473 76.6548 48.8517 75.8235C49.0501 74.9892 49.8897 74.4767 50.7247 74.6796Z" fill="black"/>
<path opacity="0.13" d="M55.4876 71.3429C54.6541 71.14 54.1408 70.3026 54.346 69.4699C54.4368 69.0906 54.6647 68.7824 54.963 68.5735C56.3507 69.6251 57.1532 70.5941 57.1532 70.5941C56.9602 71.065 56.0585 71.4845 55.4876 71.3429Z" fill="black"/>
<path fill-rule="evenodd" clip-rule="evenodd" d="M47.5446 75.0314C47.472 72.3127 49.7992 72.1863 49.7992 72.1863C49.7992 72.1863 49.9802 73.0395 49.2344 74.0714C48.6803 74.8391 47.5446 75.0314 47.5446 75.0314Z" fill="white"/>
<path fill-rule="evenodd" clip-rule="evenodd" d="M49.7994 72.1863C49.7994 72.1863 48.6653 72.2453 47.999 73.2204C48.0407 73.3075 48.1126 73.4907 48.1754 73.5679C48.4843 73.9079 48.9953 73.9624 49.4443 73.7466C49.9394 72.8669 49.7994 72.1863 49.7994 72.1863Z" fill="#003294"/>
<path fill-rule="evenodd" clip-rule="evenodd" d="M51.8986 70.1992C51.8304 67.6849 53.9881 67.5615 53.9881 67.5615C53.9881 67.5615 54.1584 68.3527 53.4665 69.3119C52.9547 70.0251 51.8986 70.1992 51.8986 70.1992Z" fill="white"/>
<path fill-rule="evenodd" clip-rule="evenodd" d="M53.9879 67.5613C53.9879 67.5613 52.9401 67.6173 52.3193 68.5175C52.3572 68.6 52.4238 68.7734 52.4844 68.843C52.7698 69.1572 53.2483 69.2102 53.6594 69.0096C54.1197 68.1927 53.9879 67.5613 53.9879 67.5613Z" fill="#003294"/>
<path fill-rule="evenodd" clip-rule="evenodd" d="M45.9907 74.4391L46.5918 74.4595C46.6607 72.6054 48.2786 71.4842 49.0077 71.2548L48.8267 70.6809C47.6889 71.0352 46.0596 72.4381 45.9907 74.4391Z" fill="#003294"/>
<path fill-rule="evenodd" clip-rule="evenodd" d="M50.4297 69.6494L51.0354 69.6744C51.0944 67.9634 52.5912 66.9307 53.2597 66.7218L53.0795 66.1418C52.0256 66.4787 50.5024 67.7832 50.4297 69.6494Z" fill="#003294"/>
<path opacity="0.13" fill-rule="evenodd" clip-rule="evenodd" d="M51.4365 70.9438C51.6265 70.6281 54.7502 72.1294 54.9561 72.4292C55.2105 72.8069 54.3475 74.1106 54.1362 74.0811C53.5389 73.9865 51.1556 71.4162 51.4365 70.9438Z" fill="black"/>
<path opacity="0.13" d="M57.7357 74.0691C57.2194 75.9891 55.2275 76.6629 53.5952 76.4743L53.6777 75.7862C55.0193 75.9398 56.6584 75.4106 57.0687 73.8889L57.7357 74.0691Z" fill="black"/>
<path opacity="0.13" fill-rule="evenodd" clip-rule="evenodd" d="M56.2814 81.3804L57.5389 83.8356C54.6461 84.5836 51.1196 82.6682 51.1196 82.6682C51.1196 82.6682 55.0845 81.7619 56.2814 81.3804Z" fill="white"/>
<path fill-rule="evenodd" clip-rule="evenodd" d="M37.7375 85.9364C38.5976 87.4218 40.0943 88.3114 41.5994 87.5626C43.7676 86.4845 44.1591 84.5336 43.9774 83.4789C43.7578 82.2086 42.9591 81.0616 42.2542 79.8389C39.9838 75.8824 38.9753 69.5154 42.6865 65.412C41.1254 65.1319 34.4949 66.7649 33.0853 68.2768C31.4484 70.0317 31.397 72.2931 31.8709 73.9799C32.26 75.3759 33.5062 76.6047 33.8234 78.296C34.208 80.3386 32.7082 82.8225 32.8286 84.4987C32.9899 86.6761 36.1749 89.7059 37.7375 85.9364Z" fill="#003294"/>
<path fill-rule="evenodd" clip-rule="evenodd" d="M41.7692 83.9552C42.8533 84.5184 45.2563 84.5518 45.756 83.6001C46.2473 82.6485 44.6506 81.076 43.5612 80.5082C42.4786 79.9449 41.1983 80.2546 40.7009 81.2062C40.205 82.1571 40.682 83.3859 41.7692 83.9552Z" fill="#FCD2C0"/>
<path fill-rule="evenodd" clip-rule="evenodd" d="M40.6837 72.5503C42.0532 70.8181 44.1133 69.5675 47.4664 68.1631C50.0306 67.0873 53.4655 63.2322 52.8757 59.4854C52.7319 58.5633 52.4669 57.1498 50.9959 56.844C50.288 56.6971 49.6028 58.0879 49.2122 58.7836C48.9396 57.997 48.1773 55.9468 46.6888 55.7992C44.9195 55.6258 44.4661 58.0916 43.2676 59.4854C41.3545 61.7029 38.2769 59.6649 35.4871 63.1739C34.2606 64.7191 33.7095 66.2393 33.6042 67.6725C33.2787 72.0227 37.0315 77.1587 40.6837 72.5503Z" fill="#003294"/>
<path fill-rule="evenodd" clip-rule="evenodd" d="M118.138 53.812C118.743 53.6773 120.672 52.8346 121.685 52.7718C122.081 52.7476 122.549 52.8316 122.648 53.167C122.86 53.8764 121.275 54.4003 120.749 54.66C119.837 55.1066 119.229 55.4753 118.441 55.8342C119.157 55.7706 121.021 54.9461 122.261 54.8038C122.779 54.7417 123.387 54.772 123.499 55.2081C123.636 55.7661 122.383 56.343 121.969 56.5534C119.977 57.555 117.758 58.6876 116.337 59.799C114.706 61.0754 113.466 62.4056 112.349 64.1045C112.08 64.5156 111.673 65.5074 111.201 65.6346C110.978 65.6929 110.403 65.4892 110.2 65.3802C109.504 65.0024 108.841 64.318 107.972 63.5019C107.641 63.193 107.297 62.8955 106.937 62.4465C106.638 62.0831 106.069 61.5191 106.013 61.2988C105.914 60.9558 106.261 60.1768 106.475 59.7173C107.093 58.3719 108.11 56.5625 108.653 55.4678C109.125 54.5176 109.614 53.5213 110.054 52.6015C110.468 51.7323 111.814 48.8622 112.995 49.2597C113.967 49.586 112.333 52.2078 112.231 53.0065C113.245 52.0624 115.127 50.8064 117.309 50.0138C117.884 49.8056 119.064 49.3082 119.347 49.7745C119.736 50.4082 118.809 50.8397 118.429 51.1214C117.896 51.5067 117.538 51.8489 117.022 52.098C117.857 51.9526 119.576 51.1539 120.585 51.1229C120.916 51.1146 121.317 51.2213 121.404 51.484C121.607 52.0829 120.647 52.3955 120.055 52.7218C119.251 53.1625 118.761 53.5039 118.2 53.7984C118.18 53.8007 118.159 53.8067 118.138 53.812Z" fill="#FCD2C0"/>
<path fill-rule="evenodd" clip-rule="evenodd" d="M101.614 43.207C102.214 43.0708 104.147 42.2274 105.16 42.1668C105.553 42.1403 106.025 42.2244 106.124 42.5628C106.33 43.2699 104.746 43.7938 104.224 44.0542C103.312 44.5024 102.705 44.8696 101.918 45.2277C102.632 45.1664 104.497 44.3389 105.738 44.1965C106.255 44.1367 106.864 44.1647 106.969 44.6023C107.109 45.1618 105.858 45.7395 105.446 45.9462C103.451 46.9463 101.234 48.0781 99.8136 49.1918C98.1798 50.472 96.942 51.7991 95.823 53.4965C95.5558 53.9061 95.1477 54.8986 94.6745 55.0296C94.4497 55.0856 93.8758 54.882 93.6759 54.7745C92.9809 54.3952 92.3162 53.71 91.4463 52.8946C91.1163 52.5835 90.771 52.2905 90.4114 51.8423C90.1124 51.4789 89.5415 50.9118 89.4855 50.6923C89.3901 50.3478 89.7361 49.5695 89.9511 49.1108C90.5704 47.7647 91.5887 45.9568 92.1277 44.8613C92.6017 43.9089 93.0915 42.9156 93.5291 41.9942C93.9432 41.1228 95.2885 38.255 96.4718 38.6517C97.4439 38.9795 95.8117 41.6005 95.7064 42.3977C96.7209 41.4574 98.6038 40.1992 100.786 39.4065C101.358 39.1998 102.541 38.7009 102.822 39.1673C103.214 39.8017 102.289 40.2355 101.905 40.5141C101.37 40.9025 101.015 41.2424 100.497 41.4915C101.335 41.3454 103.05 40.5489 104.06 40.5156C104.393 40.5073 104.793 40.6171 104.881 40.879C105.084 41.4748 104.124 41.789 103.533 42.1146C102.73 42.5575 102.238 42.8989 101.675 43.1904C101.656 43.1964 101.631 43.201 101.614 43.207Z" fill="#FCD2C0"/>
<path fill-rule="evenodd" clip-rule="evenodd" d="M87.5159 46.9344C83.3921 53.7973 77.9313 59.4557 72.0646 64.7568C63.2636 72.7145 53.4692 79.5842 47.907 90.5922C46.087 94.189 44.6099 98.1789 43.2949 102.361C41.3378 108.577 40.103 115.346 39.8592 123.21C39.8199 124.526 39.8592 125.847 39.8759 127.224C39.8872 128.47 40.0311 129.979 40.1166 131.069C44.9604 131.786 50.2244 131.774 55.6587 131.9C61.0628 132.023 66.6477 131.833 72.2486 131.424C72.2123 124.534 72.2024 117.666 72.1494 110.76C72.1366 108.932 72.0556 102.141 72.0306 100.576C72.0306 100.576 74.1792 99.4788 75.3443 98.939C78.5884 97.4331 81.9998 95.8471 85.0508 94.0369C89.074 91.6475 92.7988 88.8615 96.2761 85.9179C103.256 79.9976 108.871 72.9166 113.553 64.8689C112.927 64.2254 112.11 63.8021 111.361 63.3093C109.212 61.9019 106.965 60.3695 104.722 58.9493C98.5783 67.854 90.0415 74.5655 79.5476 79.4714C86.5294 71.9158 93.1228 63.3199 98.3633 53.87C97.5775 53.2 96.6387 52.6632 95.7658 52.0939C93.1947 50.4064 90.4306 48.5727 87.7559 47.0041C87.7089 46.9798 87.5984 46.7966 87.5159 46.9344Z" fill="#EFAD1B"/>
<path opacity="0.1" d="M39.8749 127.225C39.8582 125.848 39.8189 124.527 39.8582 123.211C40.1028 115.347 41.3368 108.578 43.2939 102.362C44.6089 98.1805 46.086 94.1899 47.906 90.5931C48.2406 89.9261 48.5942 89.2773 48.9583 88.6428C48.95 88.6723 48.9371 88.7079 48.9273 88.7375C48.1664 91.1185 47.4154 93.7137 46.8726 95.9085C46.0557 99.2116 45.2524 102.832 44.7952 106.155C44.0161 111.794 43.9222 117.778 44.6846 123.79C44.9337 125.737 45.6022 127.652 45.5591 129.499C45.5424 130.2 45.3425 130.879 45.1086 131.574C43.4074 131.464 41.735 131.31 40.1149 131.07C40.0248 129.867 39.8863 128.471 39.8749 127.225Z" fill="black"/>
<path opacity="0.1" d="M79.5464 79.4715C81.106 78.744 82.6156 77.9672 84.0881 77.1594C83.5468 77.9687 83.0169 78.7962 82.5437 79.6585C81.2317 82.0744 79.931 84.5576 78.6985 87.2225C76.9474 91.0011 75.3439 95.2847 73.9804 99.5955C72.9954 100.082 72.0301 100.576 72.0301 100.576C71.9294 99.6212 71.8916 99.2086 71.8522 98.3009C71.432 88.5959 74.505 84.2222 79.5464 79.4715Z" fill="black"/>
<path fill-rule="evenodd" clip-rule="evenodd" d="M196.736 137.162C201.712 150.983 207.026 164.512 212.601 177.821C191.514 177.344 170.287 178.211 149.052 178.211C138.374 178.211 127.687 178.211 117.05 178.211C106.469 178.211 95.9388 178.689 85.4106 178.602C88.763 164.64 93.5972 151.949 97.8112 138.725C130.69 138.12 163.44 137.408 196.736 137.162Z" fill="#EFAD1B"/>
<path fill-rule="evenodd" clip-rule="evenodd" d="M211.471 177.293C209.395 177.297 208.693 177.36 207.039 177.376C198.146 177.465 189.807 177.026 180.963 177.026C173.622 177.026 166.846 177.026 159.536 177.026C156.008 177.026 152.456 177.113 148.96 177.113C134.747 177.113 120.712 176.752 106.928 177.376C99.9934 177.69 92.4392 177.473 86.2315 177.901C83.6028 178.082 83.9348 180.588 86.3231 180.876C87.7918 180.84 89.2613 180.809 90.7321 180.779C92.3815 194.939 94.6746 208.485 96.8991 222.093C98.1344 221.907 99.6509 221.993 100.911 221.831C99.8563 208.223 99.3804 194.059 98.1029 180.664C120.304 180.393 142.67 180.788 165.008 180.788C170.287 180.788 175.54 180.687 180.782 180.877C186.55 181.082 192.152 181.03 197.76 180.905C196.52 194.142 196.046 208.114 195.004 221.54C196.262 221.702 197.781 221.615 199.016 221.803C201.228 208.264 203.507 194.792 205.155 180.713C207.269 180.653 209.39 180.592 211.534 180.543C214.156 180.482 213.654 177.288 211.471 177.293Z" fill="#EFAD1B"/>
<path opacity="0.12" fill-rule="evenodd" clip-rule="evenodd" d="M211.471 177.293C209.395 177.297 208.693 177.36 207.039 177.376C198.146 177.465 189.807 177.026 180.963 177.026C173.622 177.026 166.846 177.026 159.536 177.026C156.008 177.026 152.456 177.113 148.96 177.113C134.747 177.113 120.712 176.752 106.928 177.376C99.9934 177.69 92.4392 177.473 86.2315 177.901C83.6028 178.082 83.9348 180.588 86.3231 180.876C87.7918 180.84 89.2613 180.809 90.7321 180.779C92.3815 194.939 94.6746 208.485 96.8991 222.093C98.1344 221.907 99.6509 221.993 100.911 221.831C99.8563 208.223 99.3804 194.059 98.1029 180.664C120.304 180.393 142.67 180.788 165.008 180.788C170.287 180.788 175.54 180.687 180.782 180.877C186.55 181.082 192.152 181.03 197.76 180.905C196.52 194.142 196.046 208.114 195.004 221.54C196.262 221.702 197.781 221.615 199.016 221.803C201.228 208.264 203.507 194.792 205.155 180.713C207.269 180.653 209.39 180.592 211.534 180.543C214.156 180.482 213.654 177.288 211.471 177.293Z" fill="black"/>
<path d="M131.298 158.821L117.06 148.339C117.06 148.339 119.7 143.923 125.955 141.008C131.272 138.529 133.95 134.417 133.95 134.417L148.188 144.899C148.188 144.899 144.647 149.885 139.433 152.115C133.884 154.487 131.298 158.821 131.298 158.821Z" fill="white"/>
<path d="M144.087 146.403C144.072 146.393 144.056 146.385 144.039 146.373L133.982 139.017C133.814 138.893 133.771 138.68 133.892 138.541C134.01 138.402 134.244 138.389 134.415 138.513L144.472 145.868C144.642 145.993 144.683 146.206 144.564 146.346C144.454 146.472 144.251 146.495 144.087 146.403Z" fill="#00B2FF"/>
<path d="M140.669 148.764C140.652 148.755 140.636 148.744 140.621 148.734L130.562 141.379C130.393 141.254 130.352 141.042 130.472 140.902C130.592 140.763 130.827 140.753 130.995 140.876L141.054 148.232C141.223 148.355 141.263 148.568 141.145 148.708C141.036 148.834 140.832 148.855 140.669 148.764Z" fill="#00B2FF"/>
<path d="M136.895 150.619C136.878 150.61 136.862 150.6 136.846 150.588L127.136 143.425C126.968 143.301 126.927 143.087 127.048 142.949C127.167 142.811 127.402 142.799 127.571 142.925L137.28 150.088C137.451 150.211 137.49 150.425 137.37 150.563C137.262 150.688 137.059 150.709 136.895 150.619Z" fill="#00B2FF"/>
<path d="M133.472 152.432C133.456 152.422 133.439 152.412 133.424 152.401L123.786 145.351C123.618 145.229 123.575 145.013 123.696 144.877C123.816 144.738 124.049 144.726 124.217 144.849L133.855 151.898C134.026 152.022 134.067 152.236 133.948 152.374C133.84 152.501 133.636 152.522 133.472 152.432Z" fill="#00B2FF"/>
<path d="M130.658 154.714C130.641 154.704 130.625 154.694 130.61 154.683L121.252 147.839C121.084 147.715 121.042 147.501 121.163 147.363C121.281 147.224 121.514 147.211 121.684 147.336L131.043 154.179C131.212 154.305 131.252 154.517 131.133 154.656C131.024 154.782 130.821 154.804 130.658 154.714Z" fill="#00B2FF"/>
<path fill-rule="evenodd" clip-rule="evenodd" d="M156.199 130.224C156.18 130.172 156.041 129.878 155.895 129.74C155.701 129.557 155.413 129.415 155.15 129.291C154.905 129.176 154.641 129.072 154.366 128.961C154.12 128.858 153.873 128.736 153.576 128.658C153.09 128.53 152.891 128.472 152.575 129.006C152.48 129.163 152.423 129.355 152.333 129.505C152.232 129.672 151.962 129.758 151.86 129.906C151.838 129.938 151.816 129.971 151.794 130.004C151.296 130.742 150.803 131.602 150.384 132.291C149.232 134.176 148.086 136.079 147.015 138.046C146.672 138.677 146.395 139.345 146.1 140.012C145.681 140.96 145.23 141.983 144.973 143.055C144.894 143.385 144.77 143.883 145.016 144.17C145.388 144.601 146.534 143.882 147.135 143.453C147.716 143.041 148.501 142.499 149.004 142.025C149.531 141.527 149.864 140.994 150.257 140.426C151.772 138.242 153.183 136.032 154.504 133.813C154.669 133.536 154.848 133.264 155.009 132.979C155.161 132.705 155.289 132.412 155.46 132.146C155.493 132.097 155.526 132.047 155.561 131.996C155.736 131.74 155.766 131.42 155.933 131.141C156.135 130.803 156.352 130.673 156.199 130.224Z" fill="#00B2FF"/>
<path opacity="0.2" fill-rule="evenodd" clip-rule="evenodd" d="M153.158 131.724C152.872 131.643 152.783 131.971 152.687 132.12C151.863 133.385 151.098 134.72 150.347 136.021C149.592 137.336 148.823 138.63 148.052 139.952C147.955 140.118 147.767 140.331 147.872 140.54C148.121 140.509 148.261 140.269 148.391 140.094C149.308 138.876 150.057 137.621 150.846 136.306C151.479 135.246 152.117 134.129 152.689 132.984C152.766 132.831 152.856 132.628 152.96 132.421C153.085 132.175 153.285 131.956 153.158 131.724Z" fill="black"/>
<path d="M152.186 129.436C152.276 129.287 152.326 129.101 152.421 128.944C152.737 128.41 153.264 128.388 153.75 128.516C154.047 128.593 154.294 128.716 154.541 128.818C154.815 128.93 155.079 129.034 155.324 129.149C155.587 129.273 155.875 129.415 156.069 129.598C156.216 129.736 156.354 130.03 156.373 130.082C156.527 130.531 156.304 130.853 156.102 131.191C155.936 131.471 155.737 131.741 155.562 131.997C155.561 131.997 155.559 131.997 155.557 131.997C155.442 131.988 155.266 131.941 155.118 131.907C154.835 131.839 154.507 131.693 154.173 131.562C153.862 131.439 153.537 131.306 153.235 131.139C152.734 130.86 152.174 130.496 151.794 130.005C151.815 129.972 151.839 129.939 151.86 129.906C151.962 129.758 152.086 129.604 152.186 129.436Z" fill="white"/>
<path d="M147.602 141.152C148.024 141.106 148.548 140.729 148.776 141.13C148.912 141.372 148.901 141.769 148.947 142.078C148.443 142.538 147.695 143.054 147.135 143.452C146.534 143.881 145.388 144.6 145.016 144.17C144.77 143.883 144.894 143.385 144.973 143.054C145.231 141.982 145.681 140.959 146.1 140.011C146.128 139.948 146.156 139.884 146.183 139.821C146.377 139.768 146.564 139.735 146.728 139.757C147.341 139.836 147.372 140.584 147.602 141.152Z" fill="white"/>
<path fill-rule="evenodd" clip-rule="evenodd" d="M145.597 142.798C146.008 143.082 146.407 143.386 146.821 143.668C146.197 144.077 145.329 144.533 145.016 144.17C144.769 143.883 144.893 143.385 144.973 143.054C145.018 142.867 145.07 142.683 145.125 142.499C145.286 142.594 145.444 142.693 145.597 142.798Z" fill="#00B2FF"/>
<path fill-rule="evenodd" clip-rule="evenodd" d="M158.475 151.369C159.437 158.612 160.089 166.618 160.845 173.766C157.885 174.949 155.79 172.162 154.188 170.703C152.82 169.457 151.344 168.444 149.994 167.292C148.003 165.592 145.986 163.862 144.069 161.868C143.372 161.144 143.013 159.941 142.251 159.45C140.194 158.127 155.796 152.579 158.475 151.369Z" fill="#003294"/>
<path fill-rule="evenodd" clip-rule="evenodd" d="M161.211 172.89C161.373 173.991 159.853 174.448 158.566 174.292C157.711 174.186 156.806 173.418 156.013 172.803C151.554 169.337 147.582 165.528 143.615 161.43C143.217 161.021 141.035 159.178 142.428 158.718C143.215 158.459 144.204 159.584 144.89 160.206C148.353 163.338 151.2 166.26 154.736 169.39C155.295 169.886 156.056 170.592 156.835 171.141C157.586 171.672 158.574 172.417 159.205 172.542C160.14 172.726 160.538 172.158 161.211 172.89Z" fill="#00B2FF"/>
<path d="M149.033 159.841L149.637 159.59C150.053 159.42 150.243 158.962 150.064 158.572C149.914 158.248 149.557 158.07 149.202 158.115C149.128 158.126 149.054 158.143 148.981 158.175L148.376 158.424C147.96 158.597 147.769 159.054 147.949 159.445C148.133 159.835 148.619 160.012 149.033 159.841Z" fill="#00B2FF"/>
<path d="M152.736 164.24C152.916 164.631 153.402 164.809 153.817 164.637L154.422 164.387C154.838 164.214 155.028 163.758 154.847 163.365C154.697 163.045 154.342 162.866 153.986 162.911C153.912 162.921 153.836 162.942 153.766 162.969L153.162 163.22C152.744 163.393 152.553 163.849 152.736 164.24Z" fill="#00B2FF"/>
<path d="M157.201 154.772L155.34 155.543L155.017 155.676L152.189 156.845L151.697 157.049H151.697L151.687 157.054C151.271 157.227 151.082 157.682 151.261 158.074C151.443 158.465 151.927 158.641 152.345 158.47L152.848 158.262L152.956 158.217L152.956 158.216L155.995 156.958L156.276 156.843L157.277 156.428C157.256 155.876 157.234 155.323 157.201 154.772Z" fill="#00B2FF"/>
<path d="M150.191 161.788C150.362 162.183 150.843 162.369 151.265 162.205L151.874 161.965C152.293 161.802 152.494 161.35 152.32 160.955C152.176 160.625 151.813 160.437 151.455 160.485C151.384 160.492 151.317 160.512 151.248 160.537L150.64 160.775C150.219 160.941 150.016 161.393 150.191 161.788Z" fill="#00B2FF"/>
<path d="M155.823 159.585C155.678 159.254 155.317 159.07 154.956 159.114C154.887 159.125 154.816 159.14 154.749 159.167L154.14 159.408C153.719 159.572 153.52 160.024 153.692 160.419C153.866 160.814 154.346 161.001 154.765 160.834L155.376 160.598C155.795 160.433 155.997 159.98 155.823 159.585Z" fill="#00B2FF"/>
<path d="M157.437 165.6C157.292 165.27 156.932 165.084 156.571 165.129C156.502 165.139 156.43 165.156 156.365 165.183L155.756 165.423C155.334 165.587 155.135 166.038 155.306 166.435C155.48 166.83 155.962 167.016 156.379 166.85L156.989 166.61C157.41 166.449 157.611 165.994 157.437 165.6Z" fill="#00B2FF"/>
<path d="M157.604 161.784C157.459 161.455 157.103 161.271 156.74 161.317C156.681 161.322 156.62 161.336 156.562 161.359L156.43 161.404C156.005 161.554 155.787 162.003 155.943 162.401C156.102 162.801 156.576 163.006 157.001 162.853L157.131 162.805C157.424 162.702 157.617 162.456 157.656 162.183C157.638 162.049 157.62 161.916 157.604 161.784Z" fill="#00B2FF"/>
<path fill-rule="evenodd" clip-rule="evenodd" d="M186.476 138.689C186.394 138.693 187.092 138.558 187.479 138.776C188.356 139.267 188.597 142.743 188.756 144.2C189.215 148.41 189.619 152.172 189.941 156.186C190.122 158.437 190.382 161.009 189.576 162.31C189.012 163.219 187.494 163.782 186.204 164.322C182.521 165.867 178.359 167.318 174.806 168.871C171.191 170.45 167.709 172.142 163.41 173.42C162.183 173.784 159.957 174.414 158.942 173.945C157.674 173.359 157.62 170.285 157.483 168.521C157.298 166.121 157.17 164.445 157.027 162.221C156.819 158.974 156.604 156.007 156.297 152.774C156.178 151.511 156.009 150.384 156.297 149.8C156.656 149.073 158.615 148.501 159.762 148.137C166.675 145.942 172.623 144.086 178.818 141.488C179.965 141.007 181.227 140.47 182.466 140C183.735 139.519 185.121 138.776 186.476 138.689Z" fill="#00B2FF"/>
<path fill-rule="evenodd" clip-rule="evenodd" d="M88.403 159.367C88.3552 160.311 89.3505 160.958 90.1512 161.631C92.229 163.378 95.5318 165.324 98.8877 165.573C100.576 165.696 102.078 165.412 102.471 164.146C104.618 168.53 108.399 171.563 113.393 173.537C114.066 173.801 115.051 174.239 115.577 174.207C116.213 174.167 117.135 173.402 117.849 173.033C122.576 170.596 126.86 168.783 131.743 166.409C132.446 166.068 133.68 165.453 133.751 165.069C133.864 164.455 131.734 162.372 131.131 162.301C130.633 162.244 129.594 162.828 128.946 163.14C124.448 165.311 119.337 167.975 114.878 170.098C111.619 168.017 108.566 165.872 105.354 163.643C104.325 162.929 103.23 162.006 102.121 161.547C101.329 161.218 100.24 161.015 99.2374 160.793C96.3012 160.14 93.1302 159.77 89.889 159.199C89.5905 159.148 88.6682 158.919 88.403 159.367Z" fill="white"/>
<path d="M130.692 166.326C126.378 168.407 122.24 170.406 117.761 172.363C116.925 172.726 115.762 173.462 115.052 173.452C114.549 173.445 113.645 172.934 112.955 172.615C110.904 171.659 109.032 170.42 107.626 169.176C105.448 167.249 103.788 165.225 102.558 162.636C101.365 163.602 99.7157 163.97 97.5766 163.809C94.7284 163.601 91.6573 162.086 89.976 160.793C89.3853 160.339 88.997 159.713 88.4595 159.305C88.5249 159.231 88.6057 159.176 88.705 159.144C88.8373 159.162 88.9696 159.178 89.1031 159.199C91.024 161.101 94.9431 163.536 99.2367 163.224C99.8536 163.179 100.557 163.021 101.073 162.805C101.475 162.636 101.972 162.415 102.144 162.08C102.317 162.121 102.489 162.165 102.658 162.217C102.795 162.262 102.992 162.326 103.211 162.408C103.376 162.606 103.552 162.788 103.733 162.958C103.564 162.847 103.405 162.757 103.257 162.72C105.87 167.506 109.874 170.96 115.315 173.033C120.286 170.579 125.363 168.088 130.431 165.822C131.448 165.368 132.468 164.874 133.516 164.452C133.642 164.646 133.727 164.819 133.746 164.953C133.602 165.018 133.456 165.084 133.314 165.151C132.473 165.551 131.567 165.904 130.692 166.326Z" fill="#00B2FF"/>
<path d="M117.324 171.104C116.61 171.418 115.397 172.133 114.878 172.112C114.526 172.096 113.915 171.635 113.393 171.358C109.886 169.489 107.172 167.132 105.26 164.067C105.313 164.098 105.363 164.129 105.417 164.16C105.889 164.426 106.292 164.775 106.698 165.124C108.932 167.815 111.717 169.976 115.052 171.608C119.653 169.538 124.116 167.524 128.509 165.405C129.867 164.748 131.208 163.919 132.726 163.5C132.795 163.568 132.861 163.638 132.925 163.708C132.71 163.877 132.39 163.953 132.178 164.063C127.264 166.577 122.49 168.848 117.324 171.104Z" fill="#00B2FF"/>
<path fill-rule="evenodd" clip-rule="evenodd" d="M102.518 162.89C99.3126 162.603 87.6182 159.096 87.6182 159.096C92.5843 157.018 105.791 151.236 105.791 151.236C109.159 151.946 118.468 153.807 119.509 154.17C120.014 154.345 128.979 160.269 132.625 162.267C132.455 162.579 120.781 168.173 114.965 170.435C111.992 168.907 102.957 162.969 102.518 162.89Z" fill="#00B2FF"/>
<path opacity="0.2" fill-rule="evenodd" clip-rule="evenodd" d="M102.646 161.127C102.873 161.567 103.412 161.272 103.694 161.212C104.74 160.988 105.822 160.497 106.839 160.123C109.588 159.113 112.312 158.094 115.053 156.938C116.392 156.371 117.83 155.951 118.898 155.092C118.898 155.009 118.898 154.923 118.898 154.84C118.828 154.825 118.811 154.756 118.723 154.756C115.984 155.089 112.322 156.459 109.897 157.356C107.797 158.132 105.796 158.814 103.957 159.871C103.448 160.162 102.718 160.514 102.646 161.127Z" fill="black"/>
<path fill-rule="evenodd" clip-rule="evenodd" d="M120.296 164.733C120.226 164.049 119.392 163.772 118.811 163.392C117.308 162.41 115.33 160.867 113.655 160.123C113.333 159.979 112.809 160.09 112.345 160.289C111.873 160.493 111.096 160.961 110.335 161.379C109.793 161.677 108.594 162.246 108.586 162.637C108.581 163.039 109.61 163.547 110.159 163.894C111.623 164.821 112.125 165.201 113.48 166.158C113.906 166.461 114.718 167.133 115.228 167.164C115.934 167.209 117.302 166.38 117.936 166.075C118.867 165.626 119.667 165.251 120.296 164.733Z" fill="white"/>
<path d="M101.507 142.853C101.547 142.385 101.575 141.87 101.591 141.428C101.62 140.563 101.719 139.427 101.461 138.471C101.406 138.267 101.341 138.077 101.25 137.883C100.911 137.169 100.299 136.578 99.8654 135.837C98.7042 133.844 98.6147 130.252 98.5796 128.762C98.8498 129.282 101.936 129.602 105.204 129.379C108.456 129.157 111.274 128.374 111.215 127.819C111.314 128.016 111.348 128.397 111.39 128.746C111.741 131.577 111.46 133.527 110.28 135.611C109.62 136.772 109.053 137.848 109.125 139.283C109.17 140.181 109.404 141.685 109.631 142.691C109.731 143.138 109.897 143.521 109.838 143.855C109.747 144.366 109.118 144.792 108.345 145.053C106.562 145.65 104.359 145.583 102.944 145.166C102.438 145.019 101.805 144.803 101.563 144.313C101.319 143.814 101.476 143.191 101.507 142.853Z" fill="#00B2FF"/>
<path d="M105.204 129.38C101.936 129.602 98.8497 129.283 98.5794 128.763C98.569 128.743 98.564 128.724 98.5604 128.706C98.4864 128.151 101.497 127.608 104.938 127.368C108.329 127.136 111.142 127.259 111.215 127.814C111.215 127.816 111.215 127.817 111.215 127.82C111.274 128.374 108.456 129.158 105.204 129.38Z" fill="#003294"/>
<path d="M96.9143 123.214L101.759 123.972L104.9 134.144L103.895 134.408L101.02 125.33L100.668 125.349L100.873 125.061L100.32 125.067L100.597 124.84L96.7778 124.263L96.9143 123.214Z" fill="#EFAD1B"/>
<path fill-rule="evenodd" clip-rule="evenodd" d="M109.42 129.815C108.519 129.895 108.27 130.785 108.06 131.379C107.912 131.792 107.735 132.62 107.285 132.788C106.784 132.975 106.022 132.278 105.293 132.138C104.849 132.05 104.205 132.121 103.788 132.474C103.411 132.793 103.365 133.274 103.265 133.758C103.183 134.168 103.002 134.763 102.488 134.922C101.899 135.104 101.539 134.393 100.872 134.72C100.042 135.13 101.216 136.814 101.406 137.255C102.124 138.934 102.441 140.372 101.933 143.326C101.904 143.505 101.896 143.91 102.008 144.124C102.203 144.488 102.897 144.591 103.361 144.66C104.385 144.809 105.453 144.838 106.561 144.744C107.162 144.691 107.777 144.65 108.335 144.439C109.039 144.173 109.068 143.882 108.996 143.191C108.821 141.523 108.517 139.986 108.755 138.503C109.055 136.649 110.089 135.622 110.433 133.792C110.556 133.139 110.612 132.647 110.616 132.047C110.618 131.193 110.564 129.713 109.42 129.815Z" fill="#00B2FF"/>
<path fill-rule="evenodd" clip-rule="evenodd" d="M166.667 204.858C166.709 203.948 166.696 202.723 167.287 202.41C167.505 202.296 167.927 202.257 168.411 202.244V202.243L168.733 202.241H168.738L190.069 202.236V202.237C190.474 202.235 190.868 202.241 191.249 202.285C192.469 202.426 192.404 203.356 192.369 204.614C192.336 205.728 192.488 207.016 191.809 207.42C191.249 207.751 189.817 207.661 189.817 207.661C189.412 211.856 188.843 216.136 188.389 220.438C188.253 221.714 188.216 223.906 187.582 224.439C186.982 224.944 171.748 224.996 171.153 224.501C170.753 224.172 170.738 223.515 170.653 222.65C170.159 217.57 169.632 212.447 169.094 207.603C168.247 207.56 167.594 207.64 167.166 207.366C166.59 207 166.628 205.718 166.667 204.858Z" fill="#00B2FF"/>
<path opacity="0.2" fill-rule="evenodd" clip-rule="evenodd" d="M169.095 207.603L189.687 208.957L189.819 207.661L169.095 207.603Z" fill="black"/>
<path fill-rule="evenodd" clip-rule="evenodd" d="M176.504 197.423C178.442 193.162 180.649 189.438 184.876 187.398C188.055 185.864 192.311 185.642 196.026 184.601C196.933 184.346 197.795 184.052 198.634 183.726C198.89 183.628 199.169 183.486 199.455 183.497C199.191 184.032 198.648 184.351 198.245 184.745C197.02 185.939 195.956 187.252 194.616 188.438C192.956 189.912 191.018 191.365 188.771 192.362C184.933 194.064 179.323 194.523 177.225 198.027C176.921 198.542 176.621 199.212 176.548 199.741C176.455 200.405 176.571 201.159 176.542 201.868C176.536 202.017 176.662 202.381 176.398 202.422C176.06 202.556 176.18 202.276 176.108 202.145C175.173 200.449 173.867 199.022 172.259 197.878C171.396 197.267 170.504 196.707 169.658 196.114C168.801 195.515 168.029 194.899 167.249 194.211C165.658 192.804 164.454 191.25 163.499 189.341C162.576 187.498 161.6 185.558 160.812 183.457C161.284 183.484 161.515 184.052 161.822 184.384C163.368 186.054 165.292 187.631 167.264 188.979C168.068 189.531 168.914 190.006 169.672 190.605C171.154 191.78 172.401 193.292 173.471 194.827C174.581 196.414 175.402 198.223 175.969 200.294C176.003 199.208 175.997 197.841 176.026 196.638C176.033 196.231 176.136 195.756 176.075 195.433C176.026 195.172 175.502 194.554 175.21 194.183C173.065 191.438 169.843 189.55 167.992 186.621C166.291 183.927 165.58 180.812 164.88 177.216C164.66 176.086 164.363 174.956 164.215 173.744C164.652 173.928 164.838 174.484 165.078 174.901C165.812 176.179 166.475 177.404 167.384 178.61C168.532 180.131 170.098 181.294 171.282 182.787C172.497 184.313 173.336 186.094 174.117 187.977C174.882 189.824 175.596 191.803 176.223 193.86C176.485 192.515 176.873 191.218 177.246 189.927C177.643 188.56 177.84 187.203 178.126 185.855C178.681 183.234 179.546 180.762 180.748 178.594C182.795 174.911 185.819 172.023 188.347 168.706C188.711 168.227 189.028 167.676 189.46 167.318C189.496 167.276 189.548 167.248 189.606 167.226C189.644 167.237 189.652 167.272 189.701 167.273C189.482 168.86 189.185 170.377 188.87 171.854C188.542 173.384 188.351 174.886 187.99 176.344C187.63 177.797 187.177 179.136 186.486 180.273C185.812 181.383 184.998 182.338 184.065 183.278C180.413 186.953 176.639 190.544 176.504 197.423Z" fill="#889922"/>
<g opacity="0.2">
<path opacity="0.2" fill-rule="evenodd" clip-rule="evenodd" d="M176.504 197.423C178.442 193.162 180.649 189.438 184.876 187.398C188.055 185.864 192.311 185.642 196.026 184.601C196.933 184.346 197.795 184.052 198.634 183.726C198.89 183.628 199.169 183.486 199.455 183.497C199.191 184.032 198.648 184.351 198.245 184.745C197.02 185.939 195.956 187.252 194.616 188.438C192.956 189.912 191.018 191.365 188.771 192.362C184.933 194.064 179.323 194.523 177.225 198.027C176.921 198.542 176.621 199.212 176.548 199.741C176.455 200.405 176.571 201.159 176.542 201.868C176.536 202.017 176.662 202.381 176.398 202.422C176.06 202.556 176.18 202.276 176.108 202.145C175.173 200.449 173.867 199.022 172.259 197.878C171.396 197.267 170.504 196.707 169.658 196.114C168.801 195.515 168.029 194.899 167.249 194.211C165.658 192.804 164.454 191.25 163.499 189.341C162.576 187.498 161.6 185.558 160.812 183.457C161.284 183.484 161.515 184.052 161.822 184.384C163.368 186.054 165.292 187.631 167.264 188.979C168.068 189.531 168.914 190.006 169.672 190.605C171.154 191.78 172.401 193.292 173.471 194.827C174.581 196.414 175.402 198.223 175.969 200.294C176.003 199.208 175.997 197.841 176.026 196.638C176.033 196.231 176.136 195.756 176.075 195.433C176.026 195.172 175.502 194.554 175.21 194.183C173.065 191.438 169.843 189.55 167.992 186.621C166.291 183.927 165.58 180.812 164.88 177.216C164.66 176.086 164.363 174.956 164.215 173.744C164.652 173.928 164.838 174.484 165.078 174.901C165.812 176.179 166.475 177.404 167.384 178.61C168.532 180.131 170.098 181.294 171.282 182.787C172.497 184.313 173.336 186.094 174.117 187.977C174.882 189.824 175.596 191.803 176.223 193.86C176.485 192.515 176.873 191.218 177.246 189.927C177.643 188.56 177.84 187.203 178.126 185.855C178.681 183.234 179.546 180.762 180.748 178.594C182.795 174.911 185.819 172.023 188.347 168.706C188.711 168.227 189.028 167.676 189.46 167.318C189.496 167.276 189.548 167.248 189.606 167.226C189.644 167.237 189.652 167.272 189.701 167.273C189.482 168.86 189.185 170.377 188.87 171.854C188.542 173.384 188.351 174.886 187.99 176.344C187.63 177.797 187.177 179.136 186.486 180.273C185.812 181.383 184.998 182.338 184.065 183.278C180.413 186.953 176.639 190.544 176.504 197.423Z" fill="black"/>
</g>
<path fill-rule="evenodd" clip-rule="evenodd" d="M171.747 169.917C171.797 169.917 171.845 169.917 171.892 169.917C174.073 174.966 178.284 178.365 180.543 183.5C181.66 186.04 182.411 189.288 182.401 192.671C182.394 196.059 181.688 199.338 181.172 202.434C181.558 202.026 181.826 201.555 182.142 201.095C182.458 200.626 182.779 200.148 183.012 199.569C183.484 198.395 183.566 196.997 183.746 195.542C183.921 194.126 184.109 192.74 184.575 191.61C185.03 190.507 185.633 189.531 186.321 188.607C187.689 186.764 189.23 185.058 190.722 183.384C192.048 181.899 193.328 180.437 194.69 178.95C194.846 178.78 195.046 178.501 195.318 178.49C195.128 179.071 194.803 179.577 194.541 180.151C193.787 181.818 193.354 183.836 192.888 185.797C192.558 187.187 192.376 188.539 192.057 189.822C191.46 192.225 189.876 194.23 188.425 195.924C186.941 197.657 185.093 199.119 183.3 200.589C182.617 201.146 182.021 201.738 181.461 202.434C181.294 202.645 181.204 202.968 180.881 203.036C180.978 201.269 181.036 199.618 180.845 198.083C180.466 195.047 178.985 192.803 177.776 190.484C175.968 187.011 174.18 183.463 173.171 179.179C172.502 176.32 172.24 173.278 171.748 170.055C171.747 170.009 171.748 169.963 171.747 169.917Z" fill="#76851E"/>
</svg>
