<svg width="56" height="57" viewBox="0 0 56 57" fill="none" xmlns="http://www.w3.org/2000/svg">
<path d="M21.3281 0.956055C20.3369 0.956055 19.3075 1.29918 18.5831 2.02355C17.8588 2.74793 17.5156 3.7773 17.5156 4.76855V6.6748H0.359375V44.7998H21.7094C21.4616 43.5798 21.3281 42.3026 21.3281 40.9873H4.17188V28.4823C5.29656 29.1304 6.59281 29.5498 7.98438 29.5498H25.1597C26.2272 28.1011 27.5234 26.8048 28.9722 25.7373H7.98438C5.71594 25.7373 4.17188 24.1932 4.17188 21.9248V10.4873H46.1094V21.9248C46.1094 22.2298 46.0903 22.5157 46.0331 22.7826C47.4056 23.202 48.7019 23.7739 49.9219 24.4792V6.6748H32.7656V4.76855C32.7656 3.7773 32.4225 2.74793 31.6981 2.02355C30.9738 1.29918 29.9444 0.956055 28.9531 0.956055H21.3281ZM21.3281 4.76855H28.9531V6.6748H21.3281V4.76855ZM11.7969 18.1123V23.8311H15.6094V18.1123H11.7969ZM34.6719 18.1123V22.8017C35.9132 22.4137 37.1905 22.1519 38.4844 22.0201V18.1123H34.6719ZM40.3906 25.7373C31.9841 25.7373 25.1406 32.5807 25.1406 40.9873C25.1406 49.3939 31.9841 56.2373 40.3906 56.2373C48.7972 56.2373 55.6406 49.3939 55.6406 40.9873C55.6406 32.5807 48.7972 25.7373 40.3906 25.7373ZM40.3906 29.5498C46.7194 29.5498 51.8281 34.6586 51.8281 40.9873C51.8281 47.3161 46.7194 52.4248 40.3906 52.4248C34.0619 52.4248 28.9531 47.3161 28.9531 40.9873C28.9531 34.6586 34.0619 29.5498 40.3906 29.5498ZM38.4844 31.4561V42.8936H48.0156V39.0811H42.2969V31.4561H38.4844Z" fill="#2257BF"/>
</svg>
