<svg xmlns="http://www.w3.org/2000/svg" width="56" height="56" fill="none" viewBox="0 0 56 56"><path fill="#00B2FF" fill-rule="evenodd" d="M10.2832 22.5881C11.6115 21.2597 13.4132 20.5134 15.2918 20.5134C17.1704 20.5134 18.9721 21.2597 20.3005 22.5881C21.6289 23.9165 22.3752 25.7181 22.3752 27.5968C22.3752 29.4754 21.6289 31.2771 20.3005 32.6054C18.9721 33.9338 17.1704 34.6801 15.2918 34.6801C13.4132 34.6801 11.6115 33.9338 10.2832 32.6054C8.95477 31.2771 8.2085 29.4754 8.2085 27.5968C8.2085 25.7181 8.95477 23.9165 10.2832 22.5881ZM15.2918 30.6801C16.1096 30.6801 16.8938 30.3552 17.4721 29.777C18.0503 29.1988 18.3752 28.4145 18.3752 27.5968C18.3752 26.779 18.0503 25.9948 17.4721 25.4165C16.8938 24.8383 16.1096 24.5134 15.2918 24.5134C14.4741 24.5134 13.6898 24.8383 13.1116 25.4165C12.5333 25.9948 12.2085 26.779 12.2085 27.5968C12.2085 28.4145 12.5333 29.1988 13.1116 29.777C13.6898 30.3552 14.4741 30.6801 15.2918 30.6801Z" clip-rule="evenodd"/><path fill="#00B2FF" fill-rule="evenodd" d="M35.6997 22.5881C37.028 21.2597 38.8297 20.5134 40.7083 20.5134C42.587 20.5134 44.3886 21.2597 45.717 22.5881C47.0454 23.9165 47.7917 25.7181 47.7917 27.5968C47.7917 29.4754 47.0454 31.2771 45.717 32.6054C44.3886 33.9338 42.587 34.6801 40.7083 34.6801C38.8297 34.6801 37.028 33.9338 35.6997 32.6054C34.3713 31.2771 33.625 29.4754 33.625 27.5968C33.625 25.7181 34.3713 23.9165 35.6997 22.5881ZM40.7083 30.6801C41.5261 30.6801 42.3103 30.3552 42.8886 29.777C43.4668 29.1988 43.7917 28.4145 43.7917 27.5968C43.7917 26.779 43.4668 25.9948 42.8886 25.4165C42.3103 24.8383 41.5261 24.5134 40.7083 24.5134C39.8906 24.5134 39.1063 24.8383 38.5281 25.4165C37.9499 25.9948 37.625 26.779 37.625 27.5968C37.625 28.4145 37.9499 29.1988 38.5281 29.777C39.1063 30.3552 39.8906 30.6801 40.7083 30.6801Z" clip-rule="evenodd"/><path fill="#00B2FF" fill-rule="evenodd" d="M22.9917 9.87971C24.32 8.55133 26.1217 7.80505 28.0003 7.80505C29.8789 7.80505 31.6806 8.55133 33.009 9.87971C34.3374 11.2081 35.0837 13.0098 35.0837 14.8884C35.0837 16.767 34.3374 18.5687 33.009 19.8971C31.6806 21.2254 29.8789 21.9717 28.0003 21.9717C26.1217 21.9717 24.32 21.2254 22.9917 19.8971C21.6633 18.5687 20.917 16.767 20.917 14.8884C20.917 13.0098 21.6633 11.2081 22.9917 9.87971ZM28.0003 11.8051C27.1826 11.8051 26.3983 12.1299 25.8201 12.7081C25.2418 13.2864 24.917 14.0706 24.917 14.8884C24.917 15.7061 25.2418 16.4904 25.8201 17.0686C26.3983 17.6469 27.1826 17.9717 28.0003 17.9717C28.8181 17.9717 29.6023 17.6469 30.1806 17.0686C30.7588 16.4904 31.0837 15.7061 31.0837 14.8884C31.0837 14.0706 30.7588 13.2864 30.1806 12.7081C29.6023 12.1299 28.8181 11.8051 28.0003 11.8051Z" clip-rule="evenodd"/><path fill="#00B2FF" fill-rule="evenodd" d="M22.9917 35.2963C24.32 33.968 26.1217 33.2217 28.0003 33.2217C29.8789 33.2217 31.6806 33.968 33.009 35.2963C34.3374 36.6247 35.0837 38.4264 35.0837 40.305C35.0837 42.1836 34.3374 43.9853 33.009 45.3137C31.6806 46.6421 29.8789 47.3883 28.0003 47.3883C26.1217 47.3883 24.32 46.6421 22.9917 45.3137C21.6633 43.9853 20.917 42.1836 20.917 40.305C20.917 38.4264 21.6633 36.6247 22.9917 35.2963ZM28.0003 37.2217C27.1826 37.2217 26.3983 37.5465 25.8201 38.1248C25.2418 38.703 24.917 39.4873 24.917 40.305C24.917 41.1228 25.2418 41.907 25.8201 42.4853C26.3983 43.0635 27.1826 43.3883 28.0003 43.3883C28.8181 43.3883 29.6023 43.0635 30.1806 42.4853C30.7588 41.907 31.0837 41.1228 31.0837 40.305C31.0837 39.4873 30.7588 38.703 30.1806 38.1248C29.6023 37.5465 28.8181 37.2217 28.0003 37.2217Z" clip-rule="evenodd"/><path fill="#00B2FF" fill-rule="evenodd" d="M0.583496 27.5967C0.583496 12.4545 12.858 0.180054 28.0002 0.180054C43.1424 0.180054 55.4168 12.4545 55.4168 27.5967C55.4168 42.7389 43.1424 55.0134 28.0002 55.0134C18.0843 55.0134 9.39826 49.7498 4.5835 41.8641V53.0134C4.5835 54.118 3.68807 55.0134 2.5835 55.0134C1.47893 55.0134 0.583496 54.118 0.583496 53.0134V27.5967ZM4.5835 27.5967C4.5835 40.5298 15.0671 51.0134 28.0002 51.0134C40.9332 51.0134 51.4168 40.5298 51.4168 27.5967C51.4168 14.6637 40.9332 4.18005 28.0002 4.18005C15.0671 4.18005 4.5835 14.6637 4.5835 27.5967Z" clip-rule="evenodd"/></svg>