<svg width="54" height="56" viewBox="0 0 54 56" fill="none" xmlns="http://www.w3.org/2000/svg">
<path fill-rule="evenodd" clip-rule="evenodd" d="M20 4.09668C11.1634 4.09668 4 11.2601 4 20.0967C4 28.9333 11.1634 36.0967 20 36.0967V40.0967C8.95429 40.0967 0 31.1424 0 20.0967C0 9.05097 8.95429 0.0966797 20 0.0966797C31.0457 0.0966797 40 9.05097 40 20.0967H36C36 11.2601 28.8366 4.09668 20 4.09668Z" fill="#00B2FF"/>
<path fill-rule="evenodd" clip-rule="evenodd" d="M17 20.0967C17 18.9921 17.8954 18.0967 19 18.0967H52C53.1046 18.0967 54 18.9921 54 20.0967V53.0967C54 54.2012 53.1046 55.0967 52 55.0967H19C17.8954 55.0967 17 54.2012 17 53.0967V20.0967ZM21 22.0967V51.0967H50V22.0967H21Z" fill="#00B2FF"/>
</svg>
