<svg width="64" height="59" viewBox="0 0 64 59" fill="none" xmlns="http://www.w3.org/2000/svg">
<path fill-rule="evenodd" clip-rule="evenodd" d="M0.958008 9.49072C0.958008 8.38615 1.85344 7.49072 2.95801 7.49072H43.1696C44.2741 7.49072 45.1696 8.38615 45.1696 9.49072C45.1696 10.5953 44.2741 11.4907 43.1696 11.4907H2.95801C1.85344 11.4907 0.958008 10.5953 0.958008 9.49072Z" fill="#FFFFFF"/>
<path fill-rule="evenodd" clip-rule="evenodd" d="M23.064 0.788818C24.1685 0.788818 25.064 1.68425 25.064 2.78882V9.49074C25.064 10.5953 24.1685 11.4907 23.064 11.4907C21.9594 11.4907 21.064 10.5953 21.064 9.49074V2.78882C21.064 1.68425 21.9594 0.788818 23.064 0.788818Z" fill="#FFFFFF"/>
<path fill-rule="evenodd" clip-rule="evenodd" d="M47.6378 23.1284C48.4378 23.1284 49.1609 23.6052 49.4761 24.3406L62.8799 55.6162C63.315 56.6315 62.8447 57.8073 61.8295 58.2424C60.8142 58.6775 59.6384 58.2072 59.2033 57.1919L47.6378 30.2056L36.0722 57.1919C35.6371 58.2072 34.4613 58.6775 33.4461 58.2424C32.4308 57.8073 31.9605 56.6315 32.3956 55.6162L45.7995 24.3406C46.1146 23.6052 46.8377 23.1284 47.6378 23.1284Z" fill="#FFFFFF"/>
<path fill-rule="evenodd" clip-rule="evenodd" d="M36.3525 47.4685C36.3525 46.3639 37.248 45.4685 38.3525 45.4685H56.9225C58.027 45.4685 58.9225 46.3639 58.9225 47.4685C58.9225 48.5731 58.027 49.4685 56.9225 49.4685H38.3525C37.248 49.4685 36.3525 48.5731 36.3525 47.4685Z" fill="#FFFFFF"/>
<path fill-rule="evenodd" clip-rule="evenodd" d="M36.0329 7.55444C37.1023 7.8309 37.7451 8.92194 37.4686 9.99135L35.6082 9.51041C37.4686 9.99137 37.4688 9.99089 37.4686 9.99135L37.4672 9.99675L37.4646 10.0069L37.4555 10.0415C37.4477 10.0707 37.4366 10.1124 37.422 10.1659C37.3928 10.273 37.35 10.4277 37.293 10.626C37.1792 11.0225 37.0091 11.5937 36.78 12.3076C36.322 13.7344 35.627 15.7358 34.6731 18.0535C32.7728 22.6705 29.811 28.6271 25.5902 33.7939C21.4311 38.8852 17.1677 42.7185 13.941 45.282C12.3262 46.5648 10.967 47.5328 10.0045 48.1843C9.52314 48.5102 9.14062 48.7571 8.87454 48.9248C8.74149 49.0087 8.63751 49.0728 8.56479 49.1172C8.52844 49.1393 8.4999 49.1566 8.47944 49.1688L8.45486 49.1835L8.44718 49.1881L8.44345 49.1903C8.44301 49.1905 8.4426 49.1908 7.4261 47.4684L8.44345 49.1903C7.49219 49.7517 6.26508 49.4361 5.70368 48.4849C5.14238 47.5338 5.45821 46.3078 6.40907 45.7463C6.40924 45.7462 6.40889 45.7464 6.40907 45.7463L6.42211 45.7385C6.43438 45.7311 6.45465 45.7189 6.48265 45.7018C6.53866 45.6677 6.62557 45.6141 6.74122 45.5412C6.97255 45.3954 7.31869 45.1721 7.76233 44.8718C8.64986 44.2711 9.92604 43.3629 11.4528 42.15C14.5092 39.7219 18.5533 36.0854 22.4924 31.2634C26.3698 26.5169 29.1534 20.9546 30.9741 16.531C31.8807 14.3283 32.54 12.429 32.9713 11.0852C33.1868 10.4137 33.345 9.88218 33.4483 9.5222C33.5 9.34225 33.5379 9.20529 33.5624 9.11527C33.5747 9.07027 33.5836 9.03702 33.5892 9.01601L33.595 8.99374L33.596 8.99022" fill="#FFFFFF"/>
<path fill-rule="evenodd" clip-rule="evenodd" d="M15.907 17.5129L15.9109 17.5205L15.9303 17.5576C15.9484 17.5921 15.9767 17.6457 16.0152 17.7176C16.0922 17.8616 16.2102 18.0788 16.3687 18.3622C16.6857 18.9291 17.1649 19.7604 17.8038 20.7999C19.0824 22.8796 20.9976 25.7871 23.5308 29.0735C26.0399 32.3286 28.4813 34.8714 30.2905 36.596C31.1943 37.4575 31.9382 38.1129 32.4509 38.5488C32.7071 38.7667 32.9055 38.9296 33.0369 39.0358C33.1026 39.0889 33.1516 39.1278 33.1827 39.1524L33.2158 39.1784L33.2213 39.1827C34.0954 39.8575 34.2578 41.1134 33.5832 41.9879C32.9086 42.8624 31.6526 43.0245 30.7781 42.3498L31.9997 40.7663C30.7781 42.3498 30.7784 42.3501 30.7781 42.3498L30.775 42.3475L30.7702 42.3437L30.7552 42.3321L30.7044 42.2922C30.6614 42.2582 30.6003 42.2096 30.5223 42.1466C30.3663 42.0205 30.1425 41.8365 29.8599 41.5962C29.2949 41.1158 28.4942 40.4098 27.5305 39.4912C25.6047 37.6554 23.0197 34.9623 20.3628 31.5155C17.7299 28.0999 15.7357 25.0735 14.3962 22.8947C13.7263 21.8049 13.2193 20.9258 12.8775 20.3146C12.7066 20.009 12.5769 19.7703 12.4887 19.6055C12.4446 19.5231 12.4109 19.4592 12.3875 19.4147L12.3603 19.3625L12.3526 19.3476L12.3493 19.3413C12.3492 19.341 12.3487 19.3401 14.1279 18.4265L12.3487 19.3401C11.8442 18.3575 12.2317 17.1519 13.2143 16.6474C14.1965 16.1429 15.4022 16.531 15.907 17.5129Z" fill="#FFFFFF"/>
</svg>
