<svg xmlns="http://www.w3.org/2000/svg" width="54" height="55" fill="none" viewBox="0 0 54 55"><path fill="#FFFFFF" d="M4.125 35.2217V39.0342H12.8671L0.3125 51.5887L3.00794 54.2842L15.5625 41.7296V50.4717H19.375V35.2217H4.125Z"/><path fill="#FFFFFF" d="M49.875 19.9717H38.4375C37.4267 19.9707 36.4575 19.5687 35.7428 18.8539C35.028 18.1391 34.626 17.17 34.625 16.1592V4.72168C34.626 3.71085 35.028 2.74171 35.7428 2.02695C36.4575 1.31219 37.4267 0.910189 38.4375 0.90918H49.875C50.8858 0.910189 51.855 1.31219 52.5697 2.02695C53.2845 2.74171 53.6865 3.71085 53.6875 4.72168V16.1592C53.6865 17.17 53.2845 18.1391 52.5697 18.8539C51.855 19.5687 50.8858 19.9707 49.875 19.9717ZM38.4375 4.72168V16.1592H49.875V4.72168H38.4375Z"/><path fill="#FFFFFF" d="M42.25 46.6592H27V42.8467H42.25V29.5029H11.75C10.7392 29.5019 9.77003 29.0999 9.05527 28.3852C8.34051 27.6704 7.93851 26.7013 7.9375 25.6904V12.3467C7.93851 11.3359 8.34051 10.3667 9.05527 9.65195C9.77003 8.93719 10.7392 8.53519 11.75 8.53418H30.8125V12.3467H11.75V25.6904H42.25C43.2608 25.6914 44.23 26.0934 44.9447 26.8082C45.6595 27.523 46.0615 28.4921 46.0625 29.5029V42.8467C46.0615 43.8575 45.6595 44.8266 44.9447 45.5414C44.23 46.2562 43.2608 46.6582 42.25 46.6592Z"/></svg>