<svg xmlns="http://www.w3.org/2000/svg" width="48" height="49" fill="none" viewBox="0 0 48 49"><path fill="#FFFFFF" fill-rule="evenodd" d="M44 3.26335H4C3.64638 3.26335 3.30724 3.40382 3.05719 3.65387C2.80714 3.90392 2.66667 4.24306 2.66667 4.59668V44.5967C2.66667 44.9503 2.80714 45.2894 3.05719 45.5395C3.30724 45.7895 3.64638 45.93 4 45.93H44C44.3536 45.93 44.6928 45.7895 44.9428 45.5395C45.1929 45.2894 45.3333 44.9503 45.3333 44.5967V4.59668C45.3333 4.24306 45.1929 3.90392 44.9428 3.65387C44.6928 3.40382 44.3536 3.26335 44 3.26335ZM4 0.59668C2.93913 0.59668 1.92172 1.01811 1.17157 1.76825C0.421427 2.5184 0 3.53581 0 4.59668V44.5967C0 45.6575 0.421427 46.675 1.17157 47.4251C1.92172 48.1753 2.93913 48.5967 4 48.5967H44C45.0609 48.5967 46.0783 48.1753 46.8284 47.4251C47.5786 46.675 48 45.6575 48 44.5967V4.59668C48 3.53581 47.5786 2.5184 46.8284 1.76825C46.0783 1.01811 45.0609 0.59668 44 0.59668H4Z" clip-rule="evenodd"/><path fill="#FFFFFF" fill-rule="evenodd" d="M21.3335 37.9301V11.2634H26.6668V37.9301H21.3335Z" clip-rule="evenodd"/><path fill="#FFFFFF" fill-rule="evenodd" d="M37.3332 27.2634H10.6665V21.9301H37.3332V27.2634Z" clip-rule="evenodd"/></svg>