<svg width="62" height="62" viewBox="0 0 62 62" fill="none" xmlns="http://www.w3.org/2000/svg">
<path fill-rule="evenodd" clip-rule="evenodd" d="M32.4142 1.68247C33.1953 2.46351 33.1953 3.72984 32.4142 4.51089L26.3031 10.622C25.9567 10.9685 25.5147 11.1612 25.062 11.2003C26.2421 12.833 26.8889 14.8065 26.8889 16.8467C26.8889 19.4031 25.8734 21.8548 24.0657 23.6624C22.2581 25.47 19.8064 26.4856 17.25 26.4856C14.6936 26.4856 12.2419 25.47 10.4343 23.6624C8.62663 21.8548 7.61111 19.4031 7.61111 16.8467C7.61111 14.2903 8.62663 11.8386 10.4343 10.031C12.2419 8.22331 14.6936 7.20779 17.25 7.20779C19.2902 7.20779 21.2637 7.8546 22.8964 9.03466C22.9355 8.58195 23.1282 8.14003 23.4747 7.79358L29.5858 1.68247C30.3668 0.901417 31.6332 0.901417 32.4142 1.68247ZM17.25 22.4856C18.7455 22.4856 20.1798 21.8915 21.2373 20.834C22.2948 19.7765 22.8889 18.3422 22.8889 16.8467C22.8889 15.3512 22.2948 13.9169 21.2373 12.8594C20.1798 11.8019 18.7455 11.2078 17.25 11.2078C15.7545 11.2078 14.3202 11.8019 13.2627 12.8594C12.2052 13.9169 11.6111 15.3512 11.6111 16.8467C11.6111 18.3422 12.2052 19.7765 13.2627 20.834C14.3202 21.8915 15.7545 22.4856 17.25 22.4856ZM44.0454 3.91984C45.853 2.1122 48.3047 1.09668 50.8611 1.09668C53.4175 1.09668 55.8692 2.1122 57.6768 3.91984C59.4845 5.72749 60.5 8.17918 60.5 10.7356C60.5 13.292 59.4845 15.7437 57.6768 17.5513C55.8692 19.3589 53.4175 20.3745 50.8611 20.3745C48.8209 20.3745 46.8474 19.7276 45.2148 18.5476C45.1757 19.0003 44.9829 19.4422 44.6364 19.7887L20.192 44.2331C19.8455 44.5796 19.4036 44.7723 18.9509 44.8114C20.131 46.4441 20.7778 48.4176 20.7778 50.4578C20.7778 53.0142 19.7623 55.4659 17.9546 57.2735C16.147 59.0812 13.6953 60.0967 11.1389 60.0967C8.5825 60.0967 6.13081 59.0812 4.32317 57.2735C2.51552 55.4659 1.5 53.0142 1.5 50.4578C1.5 47.9014 2.51552 45.4497 4.32317 43.6421C6.13081 41.8344 8.5825 40.8189 11.1389 40.8189C13.1791 40.8189 15.1526 41.4657 16.7852 42.6458C16.8243 42.1931 17.0171 41.7511 17.3636 41.4047L41.808 16.9602C42.1545 16.6138 42.5964 16.421 43.0491 16.3819C41.869 14.7493 41.2222 12.7758 41.2222 10.7356C41.2222 8.17918 42.2377 5.72749 44.0454 3.91984ZM11.1389 56.0967C12.6344 56.0967 14.0687 55.5026 15.1262 54.4451C16.1837 53.3876 16.7778 51.9533 16.7778 50.4578C16.7778 48.9623 16.1837 47.528 15.1262 46.4705C14.0687 45.413 12.6344 44.8189 11.1389 44.8189C9.64336 44.8189 8.20909 45.413 7.15159 46.4705C6.0941 47.528 5.5 48.9623 5.5 50.4578C5.5 51.9533 6.0941 53.3876 7.15159 54.4451C8.20909 55.5026 9.64336 56.0967 11.1389 56.0967ZM50.8611 5.09668C49.3656 5.09668 47.9313 5.69077 46.8738 6.74827C45.8163 7.80577 45.2222 9.24004 45.2222 10.7356C45.2222 12.2311 45.8163 13.6654 46.8738 14.7229C47.9313 15.7804 49.3656 16.3745 50.8611 16.3745C52.3566 16.3745 53.7909 15.7804 54.8484 14.7229C55.9059 13.6654 56.5 12.2311 56.5 10.7356C56.5 9.24004 55.9059 7.80577 54.8484 6.74827C53.7909 5.69077 52.3566 5.09668 50.8611 5.09668ZM37.9343 37.531C39.7419 35.7233 42.1936 34.7078 44.75 34.7078C47.3064 34.7078 49.7581 35.7233 51.5657 37.531C53.3734 39.3386 54.3889 41.7903 54.3889 44.3467C54.3889 46.9031 53.3734 49.3548 51.5657 51.1624C49.7581 52.97 47.3064 53.9856 44.75 53.9856C42.7098 53.9856 40.7363 53.3388 39.1036 52.1587C39.0645 52.6114 38.8718 53.0533 38.5253 53.3998L32.4142 59.5109C31.6332 60.2919 30.3668 60.2919 29.5858 59.5109C28.8047 58.7298 28.8047 57.4635 29.5858 56.6825L35.6969 50.5714C36.0433 50.2249 36.4853 50.0321 36.938 49.993C35.7579 48.3604 35.1111 46.3869 35.1111 44.3467C35.1111 41.7903 36.1266 39.3386 37.9343 37.531ZM44.75 49.9856C46.2455 49.9856 47.6798 49.3915 48.7373 48.334C49.7948 47.2765 50.3889 45.8422 50.3889 44.3467C50.3889 42.8512 49.7948 41.4169 48.7373 40.3594C47.6798 39.3019 46.2455 38.7078 44.75 38.7078C43.2545 38.7078 41.8202 39.3019 40.7627 40.3594C39.7052 41.4169 39.1111 42.8512 39.1111 44.3467C39.1111 45.8422 39.7052 47.2765 40.7627 48.334C41.8202 49.3915 43.2545 49.9856 44.75 49.9856Z" fill="#00B2FF"/>
</svg>
