<svg xmlns="http://www.w3.org/2000/svg" width="21" height="37" fill="none" viewBox="0 0 21 37"><path fill="#00B2FF" d="M10.5 18.5C13.7812 18.5 16.5 15.8281 16.5 12.5C16.5 9.21875 13.7812 6.5 10.5 6.5C7.17188 6.5 4.5 9.21875 4.5 12.5C4.5 15.8281 7.17188 18.5 10.5 18.5ZM14.6719 20H13.875C12.8438 20.5156 11.7188 20.75 10.5 20.75C9.28125 20.75 8.10938 20.5156 7.07812 20H6.28125C2.8125 20 0 22.8594 0 26.3281V28.25C0 29.5156 0.984375 30.5 2.25 30.5H18.75C19.9688 30.5 21 29.5156 21 28.25V26.3281C21 22.8594 18.1406 20 14.6719 20Z" opacity=".65"/></svg>