<svg width="21" height="21" viewBox="0 0 21 21" fill="none" xmlns="http://www.w3.org/2000/svg">
<path d="M9.03769 17.5905C10.8972 17.5901 12.7031 16.9676 14.1679 15.8221L18.7732 20.4274L20.2545 18.9461L15.6492 14.3407C16.7953 12.8758 17.4182 11.0695 17.4186 9.2095C17.4186 4.58846 13.6587 0.828552 9.03769 0.828552C4.41664 0.828552 0.656738 4.58846 0.656738 9.2095C0.656738 13.8306 4.41664 17.5905 9.03769 17.5905ZM9.03769 2.92379C12.5043 2.92379 15.3234 5.74293 15.3234 9.2095C15.3234 12.6761 12.5043 15.4952 9.03769 15.4952C5.57112 15.4952 2.75198 12.6761 2.75198 9.2095C2.75198 5.74293 5.57112 2.92379 9.03769 2.92379Z" fill="white"/>
</svg>
